<svg xmlns="http://www.w3.org/2000/svg" xmlns:xlink="http://www.w3.org/1999/xlink" width="512" zoomAndPan="magnify" viewBox="0 0 384 383.999986" height="512" preserveAspectRatio="xMidYMid meet" version="1.0"><defs><clipPath id="bbb3ddc8c7"><path d="M 178 189 L 365.992188 189 L 365.992188 322 L 178 322 Z M 178 189 " clip-rule="nonzero"/></clipPath><clipPath id="5e7544f257"><path d="M 17.992188 145 L 281 145 L 281 331 L 17.992188 331 Z M 17.992188 145 " clip-rule="nonzero"/></clipPath><clipPath id="96eeed05b7"><path d="M 17.992188 94 L 327 94 L 327 331 L 17.992188 331 Z M 17.992188 94 " clip-rule="nonzero"/></clipPath></defs><path fill="#000000" d="M 290.800781 112.730469 L 317.757812 84.753906 L 318.269531 112.222656 L 343.820312 122.316406 L 308.171875 137.773438 Z M 290.800781 112.730469 " fill-opacity="1" fill-rule="nonzero"/><path fill="#6fc8f1" d="M 126.75 53.738281 L 117.738281 65.648438 C 95.503906 95.042969 104.195312 131.746094 108.902344 146.03125 C 106.273438 150.445312 102.867188 157.222656 100.703125 165.558594 C 95.503906 185.613281 100.015625 204.566406 113.753906 220.367188 C 124.46875 232.695312 138.929688 240.136719 154.46875 241.328125 C 155.988281 241.445312 157.515625 241.503906 159.042969 241.503906 C 173.789062 241.503906 188.90625 236.109375 203.042969 225.753906 C 214.183594 217.597656 222.808594 206.550781 227.992188 193.8125 L 230.472656 187.714844 Z M 126.75 53.738281 " fill-opacity="1" fill-rule="nonzero"/><g clip-path="url(#bbb3ddc8c7)"><path fill="#4bbaed" d="M 232.015625 189.257812 L 225.917969 191.738281 C 213.175781 196.921875 202.128906 205.550781 193.972656 216.6875 C 182.542969 232.289062 177.160156 249.085938 178.398438 265.257812 C 179.589844 280.800781 187.035156 295.257812 199.359375 305.976562 C 210.902344 316.011719 224.125 321.125 238.234375 321.121094 C 243.4375 321.121094 248.765625 320.425781 254.171875 319.023438 C 262.507812 316.863281 269.285156 313.457031 273.699219 310.828125 C 287.984375 315.535156 324.6875 324.226562 354.082031 301.992188 L 365.992188 292.980469 Z M 232.015625 189.257812 " fill-opacity="1" fill-rule="nonzero"/></g><g clip-path="url(#5e7544f257)"><path fill="#dbf1fb" d="M 268.953125 165.351562 L 266.835938 161.921875 L 219.546875 145.167969 L 214.511719 149.566406 C 213.902344 150.101562 152.996094 203.101562 112.375 220.027344 C 90.25 228.609375 63.90625 232.457031 63.644531 232.492188 L 17.992188 239.011719 L 92.515625 265.710938 L 54.386719 330.246094 L 88.757812 313.339844 C 89.269531 313.089844 140.566406 288.167969 195.683594 288.167969 C 220.710938 288.167969 242.230469 279.929688 257.917969 264.34375 C 272.734375 249.625 280.890625 229.464844 280.890625 207.574219 C 280.890625 192.628906 276.761719 178.027344 268.953125 165.351562 Z M 268.953125 165.351562 " fill-opacity="1" fill-rule="nonzero"/></g><g clip-path="url(#96eeed05b7)"><path fill="#b7e4f8" d="M 266.167969 94.050781 C 232.625 94.050781 205.335938 121.339844 205.335938 154.882812 C 205.335938 155.683594 205.367188 156.476562 205.398438 157.273438 C 186.796875 172.699219 143.59375 207.015625 112.375 220.027344 C 90.25 228.609375 63.90625 232.453125 63.644531 232.492188 L 17.992188 239.011719 L 92.515625 265.710938 L 54.386719 330.246094 L 88.757812 313.339844 C 89.101562 313.171875 112.585938 301.761719 144.765625 294.367188 C 175.1875 279.988281 208.445312 259.128906 223.636719 232.09375 C 230.6875 219.550781 231.5 209.765625 231.265625 204.660156 C 241.15625 211.613281 253.1875 215.714844 266.167969 215.714844 C 299.710938 215.714844 327 188.425781 327 154.878906 C 327 121.339844 299.710938 94.050781 266.167969 94.050781 Z M 266.167969 94.050781 " fill-opacity="1" fill-rule="nonzero"/></g><path fill="#000000" d="M 290.804688 149.203125 C 290.804688 149.953125 290.730469 150.695312 290.582031 151.433594 C 290.4375 152.167969 290.21875 152.882812 289.933594 153.578125 C 289.644531 154.269531 289.292969 154.929688 288.878906 155.550781 C 288.460938 156.175781 287.988281 156.753906 287.457031 157.285156 C 286.925781 157.816406 286.347656 158.289062 285.722656 158.707031 C 285.101562 159.121094 284.441406 159.476562 283.746094 159.761719 C 283.054688 160.050781 282.339844 160.265625 281.605469 160.414062 C 280.867188 160.558594 280.125 160.632812 279.375 160.632812 C 278.625 160.632812 277.878906 160.558594 277.144531 160.414062 C 276.40625 160.265625 275.691406 160.050781 275 159.761719 C 274.304688 159.476562 273.648438 159.121094 273.023438 158.707031 C 272.398438 158.289062 271.824219 157.816406 271.292969 157.285156 C 270.761719 156.753906 270.289062 156.175781 269.871094 155.550781 C 269.453125 154.929688 269.101562 154.269531 268.8125 153.578125 C 268.527344 152.882812 268.308594 152.167969 268.164062 151.433594 C 268.015625 150.695312 267.945312 149.953125 267.945312 149.203125 C 267.945312 148.453125 268.015625 147.707031 268.164062 146.972656 C 268.308594 146.238281 268.527344 145.523438 268.8125 144.828125 C 269.101562 144.136719 269.453125 143.476562 269.871094 142.851562 C 270.289062 142.226562 270.761719 141.652344 271.292969 141.121094 C 271.824219 140.589844 272.398438 140.117188 273.023438 139.699219 C 273.648438 139.28125 274.304688 138.929688 275 138.644531 C 275.691406 138.355469 276.40625 138.140625 277.144531 137.992188 C 277.878906 137.847656 278.625 137.773438 279.375 137.773438 C 280.125 137.773438 280.867188 137.847656 281.605469 137.992188 C 282.339844 138.140625 283.054688 138.355469 283.746094 138.644531 C 284.441406 138.929688 285.101562 139.28125 285.722656 139.699219 C 286.347656 140.117188 286.925781 140.589844 287.457031 141.121094 C 287.988281 141.652344 288.460938 142.226562 288.878906 142.851562 C 289.292969 143.476562 289.644531 144.136719 289.933594 144.828125 C 290.21875 145.523438 290.4375 146.238281 290.582031 146.972656 C 290.730469 147.707031 290.804688 148.453125 290.804688 149.203125 Z M 290.804688 149.203125 " fill-opacity="1" fill-rule="nonzero"/><path fill="#6fc8f1" d="M 300.21875 104.496094 C 290.496094 97.90625 278.773438 94.046875 266.167969 94.046875 C 248.308594 94.046875 232.222656 101.785156 221.085938 114.085938 C 230.542969 122.191406 242.820312 127.097656 256.253906 127.097656 C 274.375 127.097656 290.40625 118.175781 300.21875 104.496094 Z M 300.21875 104.496094 " fill-opacity="1" fill-rule="nonzero"/></svg>