<svg xmlns="http://www.w3.org/2000/svg" xmlns:xlink="http://www.w3.org/1999/xlink" width="512" zoomAndPan="magnify" viewBox="0 0 384 383.999986" height="512" preserveAspectRatio="xMidYMid meet" version="1.0"><path stroke-linecap="round" transform="matrix(0.164447, 0, 0, 0.164447, 6.72202, 6.968683)" fill-opacity="1" fill="#1c4e80" fill-rule="evenodd" stroke-linejoin="round" d="M 397.832462 395.833678 L 710.337414 395.833678 L 710.337414 1854.174284 L 397.832462 1854.174284 Z M 397.832462 395.833678 " stroke="#202020" stroke-width="66.669998" stroke-opacity="1" stroke-miterlimit="1.5"/><path stroke-linecap="round" transform="matrix(0.164447, 0, 0, 0.164447, 6.72202, 6.968683)" fill-opacity="1" fill="#ea6a47" fill-rule="evenodd" stroke-linejoin="round" d="M 918.658213 1020.819828 L 1231.163164 1020.819828 L 1231.163164 1854.174284 L 918.658213 1854.174284 Z M 918.658213 1020.819828 " stroke="#202020" stroke-width="66.669998" stroke-opacity="1" stroke-miterlimit="1.5"/><path stroke-linecap="round" transform="matrix(0.164447, 0, 0, 0.164447, 6.72202, 6.968683)" fill-opacity="1" fill="#eeeeee" fill-rule="evenodd" stroke-linejoin="round" d="M 1439.507717 604.17823 L 1751.988915 604.17823 L 1751.988915 1854.174284 L 1439.507717 1854.174284 Z M 1439.507717 604.17823 " stroke="#202020" stroke-width="66.669998" stroke-opacity="1" stroke-miterlimit="1.5"/><path fill="#202020" d="M 54.328125 70.691406 L 37.882812 37.800781 L 21.441406 70.691406 Z M 54.328125 70.691406 " fill-opacity="1" fill-rule="evenodd"/><path fill="#202020" d="M 313.335938 329.695312 L 346.222656 346.140625 L 313.335938 362.585938 Z M 313.335938 329.695312 " fill-opacity="1" fill-rule="evenodd"/><path stroke-linecap="round" transform="matrix(0.164447, 0, 0, 0.164447, 6.72202, 6.968683)" fill="none" stroke-linejoin="round" d="M 189.48791 347.494701 L 189.48791 2062.495083 L 1904.488291 2062.495083 " stroke="#202020" stroke-width="66.669998" stroke-opacity="1" stroke-miterlimit="1.5"/></svg>