<svg xmlns="http://www.w3.org/2000/svg" xmlns:xlink="http://www.w3.org/1999/xlink" width="512" zoomAndPan="magnify" viewBox="0 0 384 383.999986" height="512" preserveAspectRatio="xMidYMid meet" version="1.0"><path fill="#fdcd60" d="M 308.867188 61.609375 L 288.839844 56.296875 L 308.867188 50.574219 L 314.179688 30.957031 L 319.492188 50.574219 L 339.109375 56.296875 L 319.492188 61.609375 L 314.179688 81.226562 Z M 328.074219 82.859375 L 320.308594 81.226562 L 328.074219 79.589844 L 330.117188 71.824219 L 331.753906 79.589844 L 339.519531 81.226562 L 331.753906 82.859375 L 330.117188 90.625 Z M 328.074219 82.859375 " fill-opacity="1" fill-rule="nonzero"/><path fill="#5546cb" d="M 52.617188 60.789062 C 52.617188 61.277344 52.710938 61.746094 52.898438 62.199219 C 53.082031 62.648438 53.347656 63.046875 53.695312 63.390625 C 54.039062 63.738281 54.4375 64.003906 54.886719 64.1875 C 55.339844 64.375 55.808594 64.46875 56.296875 64.46875 C 56.78125 64.46875 57.253906 64.375 57.703125 64.1875 C 58.152344 64.003906 58.550781 63.738281 58.894531 63.390625 C 59.242188 63.046875 59.507812 62.648438 59.691406 62.199219 C 59.878906 61.746094 59.972656 61.277344 59.972656 60.789062 C 59.972656 60.304688 59.878906 59.832031 59.691406 59.382812 C 59.507812 58.933594 59.242188 58.535156 58.894531 58.191406 C 58.550781 57.84375 58.152344 57.578125 57.703125 57.390625 C 57.253906 57.207031 56.78125 57.113281 56.296875 57.113281 C 55.808594 57.113281 55.339844 57.207031 54.886719 57.390625 C 54.4375 57.578125 54.039062 57.84375 53.695312 58.191406 C 53.347656 58.535156 53.082031 58.933594 52.898438 59.382812 C 52.710938 59.832031 52.617188 60.304688 52.617188 60.789062 Z M 52.617188 60.789062 " fill-opacity="1" fill-rule="nonzero"/><path fill="#fdcd60" d="M 63.242188 323.988281 L 50.164062 320.71875 L 63.242188 317.859375 L 66.511719 304.371094 L 69.375 317.859375 L 82.859375 320.71875 L 69.375 323.988281 L 66.511719 337.066406 Z M 22.78125 254.511719 L 17.0625 253.285156 L 22.78125 252.058594 L 24.417969 245.929688 L 25.644531 252.058594 L 31.773438 253.285156 L 25.644531 254.511719 L 24.417969 260.640625 Z M 22.78125 254.511719 " fill-opacity="1" fill-rule="nonzero"/><path fill="#5546cb" d="M 322.761719 332.570312 C 322.089844 332.570312 321.425781 332.503906 320.769531 332.375 C 320.109375 332.242188 319.472656 332.050781 318.851562 331.792969 C 318.230469 331.535156 317.644531 331.222656 317.085938 330.847656 C 316.527344 330.476562 316.011719 330.050781 315.539062 329.578125 C 315.0625 329.101562 314.640625 328.585938 314.265625 328.03125 C 313.894531 327.472656 313.578125 326.882812 313.324219 326.261719 C 313.066406 325.644531 312.871094 325.003906 312.742188 324.347656 C 312.609375 323.6875 312.542969 323.023438 312.542969 322.351562 C 312.542969 321.683594 312.609375 321.019531 312.742188 320.359375 C 312.871094 319.703125 313.066406 319.0625 313.324219 318.441406 C 313.578125 317.824219 313.894531 317.234375 314.265625 316.675781 C 314.640625 316.117188 315.0625 315.601562 315.539062 315.128906 C 316.011719 314.652344 316.527344 314.230469 317.085938 313.859375 C 317.644531 313.484375 318.230469 313.171875 318.851562 312.914062 C 319.472656 312.65625 320.109375 312.464844 320.769531 312.332031 C 321.425781 312.203125 322.089844 312.136719 322.761719 312.136719 C 323.433594 312.136719 324.097656 312.203125 324.753906 312.332031 C 325.414062 312.464844 326.050781 312.65625 326.671875 312.914062 C 327.292969 313.171875 327.878906 313.484375 328.4375 313.859375 C 328.996094 314.230469 329.511719 314.652344 329.988281 315.128906 C 330.460938 315.601562 330.882812 316.117188 331.257812 316.675781 C 331.628906 317.234375 331.945312 317.824219 332.203125 318.441406 C 332.457031 319.0625 332.652344 319.703125 332.78125 320.359375 C 332.914062 321.019531 332.980469 321.683594 332.980469 322.351562 C 332.980469 323.023438 332.914062 323.6875 332.78125 324.347656 C 332.652344 325.003906 332.457031 325.644531 332.203125 326.261719 C 331.945312 326.882812 331.628906 327.472656 331.257812 328.03125 C 330.882812 328.585938 330.460938 329.101562 329.988281 329.578125 C 329.511719 330.050781 328.996094 330.476562 328.4375 330.847656 C 327.878906 331.222656 327.292969 331.535156 326.671875 331.792969 C 326.050781 332.050781 325.414062 332.242188 324.753906 332.375 C 324.097656 332.503906 323.433594 332.570312 322.761719 332.570312 Z M 322.761719 317.859375 C 322.492188 317.859375 322.226562 317.882812 321.964844 317.9375 C 321.703125 317.988281 321.445312 318.066406 321.199219 318.167969 C 320.949219 318.269531 320.714844 318.398438 320.492188 318.546875 C 320.269531 318.695312 320.0625 318.863281 319.871094 319.054688 C 319.683594 319.246094 319.511719 319.449219 319.363281 319.675781 C 319.214844 319.898438 319.089844 320.132812 318.984375 320.378906 C 318.882812 320.628906 318.804688 320.882812 318.753906 321.148438 C 318.699219 321.410156 318.675781 321.675781 318.675781 321.945312 C 318.675781 322.210938 318.699219 322.480469 318.753906 322.742188 C 318.804688 323.003906 318.882812 323.261719 318.984375 323.507812 C 319.089844 323.757812 319.214844 323.992188 319.363281 324.214844 C 319.511719 324.4375 319.683594 324.644531 319.871094 324.835938 C 320.0625 325.023438 320.269531 325.195312 320.492188 325.34375 C 320.714844 325.492188 320.949219 325.617188 321.199219 325.71875 C 321.445312 325.824219 321.703125 325.902344 321.964844 325.953125 C 322.226562 326.003906 322.492188 326.03125 322.761719 326.03125 C 323.03125 326.03125 323.296875 326.003906 323.558594 325.953125 C 323.824219 325.902344 324.078125 325.824219 324.324219 325.71875 C 324.574219 325.617188 324.808594 325.492188 325.03125 325.34375 C 325.253906 325.195312 325.460938 325.023438 325.652344 324.835938 C 325.839844 324.644531 326.011719 324.4375 326.160156 324.214844 C 326.308594 323.992188 326.433594 323.757812 326.539062 323.507812 C 326.640625 323.261719 326.71875 323.003906 326.769531 322.742188 C 326.824219 322.480469 326.847656 322.210938 326.847656 321.945312 C 326.796875 321.4375 326.65625 320.960938 326.429688 320.503906 C 326.199219 320.050781 325.894531 319.65625 325.515625 319.316406 C 325.136719 318.976562 324.710938 318.714844 324.238281 318.535156 C 323.761719 318.351562 323.269531 318.265625 322.761719 318.265625 Z M 322.761719 317.859375 " fill-opacity="1" fill-rule="nonzero"/><path fill="#afbcf3" d="M 171.546875 182.988281 C 171.546875 183.683594 171.582031 184.378906 171.648438 185.074219 C 171.714844 185.765625 171.820312 186.453125 171.953125 187.136719 C 172.089844 187.816406 172.257812 188.492188 172.460938 189.160156 C 172.664062 189.824219 172.898438 190.480469 173.164062 191.121094 C 173.429688 191.765625 173.726562 192.394531 174.054688 193.007812 C 174.382812 193.621094 174.742188 194.21875 175.128906 194.796875 C 175.515625 195.375 175.929688 195.933594 176.371094 196.472656 C 176.8125 197.007812 177.277344 197.523438 177.769531 198.015625 C 178.261719 198.507812 178.777344 198.976562 179.316406 199.417969 C 179.855469 199.859375 180.414062 200.273438 180.992188 200.660156 C 181.570312 201.046875 182.167969 201.402344 182.78125 201.730469 C 183.394531 202.058594 184.023438 202.355469 184.664062 202.625 C 185.308594 202.890625 185.960938 203.125 186.628906 203.328125 C 187.296875 203.527344 187.96875 203.695312 188.652344 203.832031 C 189.335938 203.96875 190.023438 204.070312 190.714844 204.140625 C 191.40625 204.207031 192.101562 204.242188 192.796875 204.242188 C 193.492188 204.242188 194.1875 204.207031 194.882812 204.140625 C 195.574219 204.070312 196.261719 203.96875 196.945312 203.832031 C 197.625 203.695312 198.300781 203.527344 198.96875 203.328125 C 199.632812 203.125 200.289062 202.890625 200.929688 202.625 C 201.574219 202.355469 202.203125 202.058594 202.816406 201.730469 C 203.429688 201.402344 204.027344 201.046875 204.605469 200.660156 C 205.183594 200.273438 205.742188 199.859375 206.28125 199.417969 C 206.816406 198.976562 207.332031 198.507812 207.824219 198.015625 C 208.316406 197.523438 208.785156 197.007812 209.226562 196.472656 C 209.667969 195.933594 210.082031 195.375 210.46875 194.796875 C 210.855469 194.21875 211.210938 193.621094 211.539062 193.007812 C 211.867188 192.394531 212.164062 191.765625 212.433594 191.121094 C 212.699219 190.480469 212.933594 189.824219 213.136719 189.160156 C 213.335938 188.492188 213.503906 187.816406 213.640625 187.136719 C 213.777344 186.453125 213.878906 185.765625 213.949219 185.074219 C 214.015625 184.378906 214.050781 183.683594 214.050781 182.988281 C 214.050781 182.292969 214.015625 181.597656 213.949219 180.90625 C 213.878906 180.214844 213.777344 179.527344 213.640625 178.84375 C 213.503906 178.160156 213.335938 177.484375 213.136719 176.820312 C 212.933594 176.152344 212.699219 175.5 212.433594 174.855469 C 212.164062 174.214844 211.867188 173.585938 211.539062 172.972656 C 211.210938 172.359375 210.855469 171.761719 210.46875 171.183594 C 210.082031 170.605469 209.667969 170.046875 209.226562 169.507812 C 208.785156 168.96875 208.316406 168.453125 207.824219 167.960938 C 207.332031 167.46875 206.816406 167.003906 206.28125 166.5625 C 205.742188 166.121094 205.183594 165.707031 204.605469 165.320312 C 204.027344 164.933594 203.429688 164.574219 202.816406 164.246094 C 202.203125 163.917969 201.574219 163.621094 200.929688 163.355469 C 200.289062 163.089844 199.632812 162.855469 198.96875 162.652344 C 198.300781 162.449219 197.625 162.28125 196.945312 162.144531 C 196.261719 162.011719 195.574219 161.90625 194.882812 161.839844 C 194.1875 161.773438 193.492188 161.738281 192.796875 161.738281 C 192.101562 161.738281 191.40625 161.773438 190.714844 161.839844 C 190.023438 161.90625 189.335938 162.011719 188.652344 162.144531 C 187.96875 162.28125 187.296875 162.449219 186.628906 162.652344 C 185.960938 162.855469 185.308594 163.089844 184.664062 163.355469 C 184.023438 163.621094 183.394531 163.917969 182.78125 164.246094 C 182.167969 164.574219 181.570312 164.933594 180.992188 165.320312 C 180.414062 165.707031 179.855469 166.121094 179.316406 166.5625 C 178.777344 167.003906 178.261719 167.46875 177.769531 167.960938 C 177.277344 168.453125 176.8125 168.96875 176.371094 169.507812 C 175.929688 170.046875 175.515625 170.605469 175.128906 171.183594 C 174.742188 171.761719 174.382812 172.359375 174.054688 172.972656 C 173.726562 173.585938 173.429688 174.214844 173.164062 174.855469 C 172.898438 175.5 172.664062 176.152344 172.460938 176.820312 C 172.257812 177.484375 172.089844 178.160156 171.953125 178.84375 C 171.820312 179.527344 171.714844 180.214844 171.648438 180.90625 C 171.582031 181.597656 171.546875 182.292969 171.546875 182.988281 Z M 171.546875 182.988281 " fill-opacity="1" fill-rule="nonzero"/><path fill="#ff8859" d="M 297.832031 200.5625 C 297.832031 200.292969 297.859375 200.027344 297.910156 199.765625 C 297.960938 199.503906 298.039062 199.246094 298.144531 199 C 298.246094 198.75 298.371094 198.515625 298.519531 198.292969 C 298.667969 198.070312 298.839844 197.863281 299.027344 197.671875 C 299.21875 197.484375 299.425781 197.3125 299.648438 197.164062 C 299.871094 197.015625 300.105469 196.890625 300.355469 196.789062 C 300.601562 196.683594 300.859375 196.605469 301.121094 196.554688 C 301.382812 196.503906 301.648438 196.476562 301.917969 196.476562 L 333.796875 196.476562 C 333.785156 194.164062 333.714844 191.851562 333.589844 189.542969 C 333.460938 187.234375 333.28125 184.925781 333.042969 182.625 C 332.804688 180.324219 332.511719 178.03125 332.164062 175.746094 C 331.8125 173.457031 331.410156 171.183594 330.949219 168.914062 C 330.488281 166.648438 329.972656 164.394531 329.402344 162.152344 C 328.832031 159.910156 328.210938 157.683594 327.53125 155.472656 C 326.851562 153.261719 326.121094 151.066406 325.335938 148.890625 C 324.550781 146.714844 323.714844 144.558594 322.824219 142.425781 C 321.933594 140.289062 320.996094 138.175781 320 136.089844 C 319.007812 134 317.964844 131.933594 316.875 129.894531 C 315.78125 127.859375 314.640625 125.847656 313.449219 123.863281 C 312.257812 121.878906 311.019531 119.929688 309.734375 118.003906 C 308.449219 116.082031 307.117188 114.191406 305.738281 112.332031 C 304.359375 110.476562 302.9375 108.652344 301.472656 106.863281 C 300.007812 105.074219 298.496094 103.324219 296.945312 101.605469 C 295.394531 99.890625 293.800781 98.214844 292.167969 96.578125 C 290.535156 94.9375 288.863281 93.339844 287.152344 91.785156 C 285.441406 90.230469 283.691406 88.714844 281.910156 87.242188 C 280.125 85.769531 278.304688 84.34375 276.449219 82.960938 C 274.597656 81.578125 272.710938 80.242188 270.789062 78.949219 C 268.871094 77.65625 266.921875 76.414062 264.941406 75.21875 C 262.964844 74.019531 260.957031 72.875 258.921875 71.773438 C 256.882812 70.675781 254.824219 69.628906 252.738281 68.628906 C 250.652344 67.628906 248.542969 66.683594 246.410156 65.789062 C 244.277344 64.890625 242.121094 64.046875 239.949219 63.257812 C 237.777344 62.464844 235.585938 61.726562 233.375 61.042969 C 231.164062 60.359375 228.941406 59.730469 226.699219 59.152344 C 224.460938 58.574219 222.207031 58.054688 219.941406 57.589844 C 217.675781 57.121094 215.402344 56.710938 213.117188 56.355469 C 210.828125 56 208.535156 55.699219 206.238281 55.453125 C 203.9375 55.210938 201.632812 55.019531 199.324219 54.886719 C 197.011719 54.757812 194.703125 54.679688 192.390625 54.660156 C 192.820312 54.796875 193.21875 54.996094 193.582031 55.261719 C 193.945312 55.527344 194.257812 55.847656 194.515625 56.214844 C 194.773438 56.585938 194.964844 56.988281 195.09375 57.421875 C 195.21875 57.855469 195.269531 58.296875 195.25 58.746094 L 195.25 91.851562 C 195.25 92.121094 195.222656 92.386719 195.171875 92.648438 C 195.121094 92.910156 195.042969 93.167969 194.9375 93.414062 C 194.835938 93.664062 194.710938 93.898438 194.5625 94.121094 C 194.414062 94.34375 194.242188 94.550781 194.054688 94.742188 C 193.863281 94.929688 193.65625 95.101562 193.433594 95.25 C 193.210938 95.398438 192.976562 95.523438 192.726562 95.628906 C 192.480469 95.730469 192.222656 95.808594 191.960938 95.859375 C 191.699219 95.910156 191.429688 95.9375 191.164062 95.9375 C 190.894531 95.9375 190.628906 95.910156 190.367188 95.859375 C 190.101562 95.808594 189.847656 95.730469 189.597656 95.628906 C 189.351562 95.523438 189.117188 95.398438 188.894531 95.25 C 188.667969 95.101562 188.464844 94.929688 188.273438 94.742188 C 188.082031 94.550781 187.914062 94.34375 187.765625 94.121094 C 187.617188 93.898438 187.488281 93.664062 187.386719 93.414062 C 187.285156 93.167969 187.207031 92.910156 187.15625 92.648438 C 187.101562 92.386719 187.078125 92.121094 187.078125 91.851562 L 187.078125 58.746094 C 187.054688 58.296875 187.109375 57.855469 187.234375 57.421875 C 187.359375 56.988281 187.550781 56.585938 187.8125 56.214844 C 188.070312 55.847656 188.382812 55.527344 188.746094 55.261719 C 189.109375 54.996094 189.507812 54.796875 189.9375 54.660156 C 187.621094 54.679688 185.304688 54.757812 182.992188 54.890625 C 180.675781 55.023438 178.367188 55.210938 176.0625 55.457031 C 173.761719 55.703125 171.464844 56.003906 169.171875 56.359375 C 166.882812 56.71875 164.605469 57.128906 162.335938 57.597656 C 160.066406 58.066406 157.808594 58.589844 155.566406 59.167969 C 153.320312 59.746094 151.09375 60.378906 148.878906 61.066406 C 146.664062 61.753906 144.46875 62.492188 142.292969 63.289062 C 140.117188 64.082031 137.960938 64.929688 135.824219 65.828125 C 133.6875 66.726562 131.574219 67.675781 129.484375 68.679688 C 127.398438 69.679688 125.332031 70.734375 123.292969 71.835938 C 121.257812 72.9375 119.246094 74.089844 117.265625 75.292969 C 115.28125 76.492188 113.332031 77.738281 111.410156 79.035156 C 109.488281 80.332031 107.601562 81.671875 105.742188 83.0625 C 103.886719 84.449219 102.066406 85.878906 100.28125 87.355469 C 98.496094 88.832031 96.746094 90.351562 95.035156 91.914062 C 93.320312 93.476562 91.648438 95.078125 90.015625 96.722656 C 88.382812 98.367188 86.789062 100.046875 85.238281 101.769531 C 83.683594 103.488281 82.175781 105.246094 80.710938 107.042969 C 79.242188 108.835938 77.820312 110.664062 76.445312 112.53125 C 75.066406 114.394531 73.738281 116.289062 72.453125 118.21875 C 71.167969 120.148438 69.929688 122.105469 68.742188 124.09375 C 67.550781 126.082031 66.414062 128.101562 65.320312 130.144531 C 64.230469 132.1875 63.191406 134.257812 62.199219 136.355469 C 61.210938 138.449219 60.273438 140.566406 59.386719 142.707031 C 58.5 144.847656 57.664062 147.011719 56.882812 149.191406 C 56.101562 151.375 55.375 153.574219 54.699219 155.789062 C 54.023438 158.007812 53.40625 160.238281 52.839844 162.488281 C 52.273438 164.734375 51.765625 166.992188 51.308594 169.265625 C 50.855469 171.539062 50.453125 173.820312 50.109375 176.113281 C 49.765625 178.402344 49.476562 180.703125 49.246094 183.007812 C 49.015625 185.3125 48.839844 187.625 48.71875 189.9375 C 48.597656 192.25 48.535156 194.566406 48.53125 196.886719 L 82.859375 196.886719 C 83.128906 196.886719 83.394531 196.910156 83.65625 196.964844 C 83.921875 197.015625 84.175781 197.09375 84.425781 197.195312 C 84.671875 197.296875 84.90625 197.425781 85.128906 197.574219 C 85.355469 197.722656 85.558594 197.890625 85.75 198.082031 C 85.941406 198.273438 86.109375 198.476562 86.257812 198.703125 C 86.40625 198.925781 86.53125 199.160156 86.636719 199.40625 C 86.738281 199.65625 86.816406 199.910156 86.867188 200.175781 C 86.921875 200.4375 86.945312 200.703125 86.945312 200.972656 C 86.945312 201.238281 86.921875 201.507812 86.867188 201.769531 C 86.816406 202.03125 86.738281 202.289062 86.636719 202.535156 C 86.53125 202.785156 86.40625 203.019531 86.257812 203.242188 C 86.109375 203.464844 85.941406 203.671875 85.75 203.863281 C 85.558594 204.050781 85.355469 204.222656 85.128906 204.371094 C 84.90625 204.519531 84.671875 204.644531 84.425781 204.746094 C 84.175781 204.851562 83.921875 204.929688 83.65625 204.980469 C 83.394531 205.03125 83.128906 205.058594 82.859375 205.058594 L 48.53125 205.058594 C 50.164062 240.207031 64.878906 273.308594 90.214844 298.242188 C 93.402344 301.414062 96.734375 304.429688 100.210938 307.285156 C 103.683594 310.140625 107.285156 312.828125 111.015625 315.339844 C 114.746094 317.855469 118.585938 320.183594 122.539062 322.332031 C 126.492188 324.480469 130.535156 326.4375 134.671875 328.203125 C 138.8125 329.964844 143.023438 331.527344 147.308594 332.890625 C 151.597656 334.253906 155.9375 335.410156 160.335938 336.359375 C 164.730469 337.308594 169.164062 338.046875 173.628906 338.574219 C 178.097656 339.101562 182.578125 339.417969 187.078125 339.519531 L 187.078125 308.867188 C 187.078125 308.597656 187.101562 308.332031 187.15625 308.070312 C 187.207031 307.804688 187.285156 307.550781 187.386719 307.300781 C 187.488281 307.054688 187.617188 306.820312 187.765625 306.597656 C 187.914062 306.371094 188.082031 306.167969 188.273438 305.976562 C 188.464844 305.785156 188.667969 305.617188 188.894531 305.46875 C 189.117188 305.320312 189.351562 305.191406 189.597656 305.089844 C 189.847656 304.988281 190.101562 304.910156 190.367188 304.859375 C 190.628906 304.804688 190.894531 304.78125 191.164062 304.78125 C 191.429688 304.78125 191.699219 304.804688 191.960938 304.859375 C 192.222656 304.910156 192.480469 304.988281 192.726562 305.089844 C 192.976562 305.191406 193.210938 305.320312 193.433594 305.46875 C 193.65625 305.617188 193.863281 305.785156 194.054688 305.976562 C 194.242188 306.167969 194.414062 306.371094 194.5625 306.597656 C 194.710938 306.820312 194.835938 307.054688 194.9375 307.300781 C 195.042969 307.550781 195.121094 307.804688 195.171875 308.070312 C 195.222656 308.332031 195.25 308.597656 195.25 308.867188 L 195.25 339.519531 C 199.753906 339.402344 204.242188 339.074219 208.714844 338.53125 C 213.1875 337.988281 217.625 337.234375 222.023438 336.269531 C 226.425781 335.304688 230.769531 334.132812 235.058594 332.753906 C 239.347656 331.375 243.558594 329.792969 247.699219 328.011719 C 251.835938 326.230469 255.882812 324.257812 259.832031 322.089844 C 263.78125 319.925781 267.621094 317.574219 271.347656 315.042969 C 275.070312 312.511719 278.667969 309.808594 282.136719 306.933594 C 285.605469 304.058594 288.929688 301.023438 292.109375 297.832031 C 317.449219 272.902344 331.753906 239.796875 333.796875 204.648438 L 301.917969 204.648438 C 301.648438 204.648438 301.382812 204.625 301.121094 204.570312 C 300.859375 204.519531 300.601562 204.441406 300.355469 204.339844 C 300.105469 204.234375 299.871094 204.109375 299.648438 203.960938 C 299.425781 203.8125 299.21875 203.644531 299.027344 203.453125 C 298.839844 203.261719 298.667969 203.058594 298.519531 202.832031 C 298.371094 202.609375 298.246094 202.375 298.144531 202.128906 C 298.039062 201.878906 297.960938 201.625 297.910156 201.359375 C 297.859375 201.097656 297.832031 200.832031 297.832031 200.5625 Z M 192.390625 292.925781 C 140.894531 292.925781 99.617188 251.242188 99.617188 200.15625 C 99.617188 149.066406 140.894531 106.972656 192.390625 106.972656 C 243.882812 106.972656 285.164062 148.660156 285.164062 200.15625 C 285.164062 251.648438 243.476562 292.925781 192.390625 292.925781 Z M 192.390625 292.925781 " fill-opacity="1" fill-rule="nonzero"/><path fill="#5546cb" d="M 330.117188 138.441406 C 328.921875 135.601562 327.636719 132.800781 326.265625 130.039062 C 324.898438 127.277344 323.445312 124.558594 321.90625 121.886719 C 320.371094 119.214844 318.753906 116.59375 317.058594 114.019531 C 315.359375 111.445312 313.585938 108.925781 311.734375 106.460938 C 309.882812 103.996094 307.957031 101.589844 305.957031 99.246094 C 303.960938 96.898438 301.890625 94.617188 299.75 92.394531 C 297.613281 90.175781 295.40625 88.023438 293.136719 85.941406 C 290.863281 83.855469 288.53125 81.84375 286.136719 79.902344 C 283.742188 77.960938 281.292969 76.09375 278.78125 74.300781 C 276.273438 72.511719 273.710938 70.800781 271.097656 69.164062 C 268.484375 67.53125 265.824219 65.980469 263.113281 64.507812 C 260.402344 63.039062 257.652344 61.652344 254.859375 60.347656 C 252.0625 59.046875 249.234375 57.832031 246.363281 56.703125 C 243.496094 55.574219 240.59375 54.535156 237.664062 53.585938 C 234.730469 52.636719 231.769531 51.773438 228.785156 51.007812 C 225.800781 50.238281 222.792969 49.558594 219.769531 48.976562 C 216.742188 48.390625 213.699219 47.898438 210.644531 47.5 C 207.585938 47.101562 204.519531 46.800781 201.445312 46.589844 C 198.367188 46.378906 195.289062 46.261719 192.207031 46.242188 C 189.125 46.21875 186.042969 46.292969 182.964844 46.460938 C 179.886719 46.628906 176.816406 46.890625 173.757812 47.246094 C 170.695312 47.601562 167.644531 48.050781 164.613281 48.59375 C 161.578125 49.136719 158.5625 49.773438 155.566406 50.5 C 152.570312 51.226562 149.601562 52.046875 146.65625 52.957031 C 143.710938 53.863281 140.796875 54.863281 137.910156 55.953125 C 135.027344 57.042969 132.179688 58.21875 129.367188 59.480469 C 126.554688 60.742188 123.785156 62.089844 121.054688 63.523438 C 118.324219 64.957031 115.644531 66.472656 113.007812 68.070312 C 110.371094 69.667969 107.785156 71.34375 105.253906 73.101562 C 102.71875 74.859375 100.242188 76.691406 97.820312 78.597656 C 95.398438 80.503906 93.039062 82.484375 90.738281 84.539062 C 88.4375 86.589844 86.203125 88.710938 84.035156 90.902344 C 81.863281 93.09375 79.765625 95.347656 77.734375 97.664062 C 75.703125 99.984375 73.742188 102.363281 71.859375 104.800781 C 69.972656 107.238281 68.164062 109.734375 66.429688 112.285156 C 64.699219 114.832031 63.042969 117.433594 61.472656 120.085938 C 59.898438 122.734375 58.40625 125.433594 57 128.175781 C 55.59375 130.917969 54.269531 133.699219 53.03125 136.523438 C 51.796875 139.347656 50.644531 142.207031 49.585938 145.101562 C 48.523438 147.992188 47.550781 150.917969 46.667969 153.871094 C 45.785156 156.824219 44.996094 159.804688 44.292969 162.804688 C 43.59375 165.808594 42.988281 168.828125 42.472656 171.867188 C 41.957031 174.90625 41.535156 177.960938 41.210938 181.023438 C 40.882812 184.089844 40.648438 187.160156 40.511719 190.242188 C 40.371094 193.320312 40.324219 196.402344 40.375 199.484375 C 40.425781 202.566406 40.570312 205.644531 40.808594 208.71875 C 41.046875 211.789062 41.378906 214.855469 41.804688 217.90625 C 42.234375 220.960938 42.753906 223.996094 43.363281 227.019531 C 43.976562 230.039062 44.683594 233.039062 45.480469 236.015625 C 46.277344 238.996094 47.164062 241.945312 48.140625 244.867188 C 49.117188 247.792969 50.183594 250.683594 51.339844 253.542969 C 52.492188 256.398438 53.734375 259.21875 55.0625 262 C 56.390625 264.785156 57.800781 267.523438 59.296875 270.21875 C 60.792969 272.914062 62.371094 275.558594 64.027344 278.160156 C 65.6875 280.757812 67.421875 283.304688 69.238281 285.796875 C 71.050781 288.289062 72.941406 290.722656 74.902344 293.097656 C 76.867188 295.476562 78.902344 297.789062 81.007812 300.042969 C 83.113281 302.292969 85.285156 304.476562 87.523438 306.597656 C 89.761719 308.714844 92.066406 310.761719 94.429688 312.738281 C 96.792969 314.71875 99.21875 316.621094 101.699219 318.449219 C 104.179688 320.277344 106.714844 322.027344 109.304688 323.703125 C 111.894531 325.375 114.53125 326.96875 117.21875 328.480469 C 119.90625 329.992188 122.636719 331.417969 125.410156 332.761719 C 128.183594 334.105469 130.996094 335.363281 133.847656 336.535156 C 136.699219 337.707031 139.585938 338.789062 142.5 339.785156 C 145.417969 340.78125 148.363281 341.683594 151.339844 342.5 C 154.3125 343.3125 157.308594 344.035156 160.324219 344.664062 C 163.34375 345.296875 166.375 345.832031 169.425781 346.277344 C 172.476562 346.722656 175.539062 347.070312 178.609375 347.328125 C 181.683594 347.585938 184.757812 347.746094 187.839844 347.816406 C 190.921875 347.882812 194.003906 347.855469 197.082031 347.734375 C 200.164062 347.613281 203.238281 347.398438 206.304688 347.089844 C 209.371094 346.78125 212.425781 346.378906 215.46875 345.878906 C 218.511719 345.382812 221.535156 344.792969 224.542969 344.113281 C 227.546875 343.429688 230.53125 342.65625 233.488281 341.789062 C 236.449219 340.925781 239.378906 339.96875 242.277344 338.925781 C 245.175781 337.882812 248.042969 336.75 250.875 335.527344 C 253.703125 334.308594 256.496094 333 259.246094 331.609375 C 261.996094 330.21875 264.703125 328.742188 267.363281 327.183594 C 270.023438 325.628906 272.632812 323.992188 275.191406 322.273438 C 277.75 320.554688 280.257812 318.761719 282.707031 316.890625 C 285.15625 315.019531 287.546875 313.074219 289.875 311.054688 C 292.207031 309.039062 294.472656 306.949219 296.675781 304.792969 C 298.878906 302.636719 301.011719 300.414062 303.078125 298.128906 C 305.144531 295.839844 307.140625 293.492188 309.0625 291.082031 C 310.984375 288.671875 312.832031 286.203125 314.601562 283.679688 C 316.371094 281.15625 318.0625 278.582031 319.675781 275.957031 C 321.289062 273.328125 322.820312 270.65625 324.269531 267.933594 C 325.71875 265.214844 327.082031 262.449219 328.363281 259.644531 C 329.644531 256.84375 330.835938 254 331.941406 251.125 C 333.046875 248.246094 334.0625 245.335938 334.988281 242.398438 C 335.917969 239.457031 336.753906 236.492188 337.496094 233.5 C 338.242188 230.507812 338.894531 227.496094 339.457031 224.464844 C 340.015625 221.433594 340.484375 218.390625 340.859375 215.328125 C 341.230469 212.269531 341.511719 209.203125 341.695312 206.125 C 341.882812 203.046875 341.972656 199.96875 341.96875 196.886719 C 341.972656 186.847656 340.972656 176.90625 338.976562 167.070312 C 336.984375 157.230469 334.03125 147.6875 330.117188 138.441406 Z M 292.109375 297.832031 C 288.929688 301.023438 285.605469 304.058594 282.136719 306.933594 C 278.667969 309.808594 275.070312 312.511719 271.347656 315.042969 C 267.621094 317.574219 263.78125 319.925781 259.832031 322.089844 C 255.882812 324.257812 251.835938 326.230469 247.699219 328.011719 C 243.558594 329.792969 239.347656 331.375 235.058594 332.753906 C 230.769531 334.132812 226.425781 335.304688 222.023438 336.269531 C 217.625 337.234375 213.1875 337.988281 208.714844 338.53125 C 204.242188 339.074219 199.753906 339.402344 195.25 339.519531 L 195.25 308.867188 C 195.25 308.597656 195.222656 308.332031 195.171875 308.070312 C 195.121094 307.804688 195.042969 307.550781 194.9375 307.300781 C 194.835938 307.054688 194.710938 306.820312 194.5625 306.597656 C 194.414062 306.371094 194.242188 306.167969 194.054688 305.976562 C 193.863281 305.785156 193.65625 305.617188 193.433594 305.46875 C 193.210938 305.320312 192.976562 305.191406 192.726562 305.089844 C 192.480469 304.988281 192.222656 304.910156 191.960938 304.859375 C 191.699219 304.804688 191.429688 304.78125 191.164062 304.78125 C 190.894531 304.78125 190.628906 304.804688 190.367188 304.859375 C 190.101562 304.910156 189.847656 304.988281 189.597656 305.089844 C 189.351562 305.191406 189.117188 305.320312 188.894531 305.46875 C 188.667969 305.617188 188.464844 305.785156 188.273438 305.976562 C 188.082031 306.167969 187.914062 306.371094 187.765625 306.597656 C 187.617188 306.820312 187.488281 307.054688 187.386719 307.300781 C 187.285156 307.550781 187.207031 307.804688 187.15625 308.070312 C 187.101562 308.332031 187.078125 308.597656 187.078125 308.867188 L 187.078125 339.925781 C 182.566406 339.796875 178.070312 339.457031 173.59375 338.898438 C 169.117188 338.339844 164.675781 337.570312 160.269531 336.589844 C 155.863281 335.609375 151.515625 334.421875 147.226562 333.023438 C 142.933594 331.628906 138.71875 330.03125 134.582031 328.230469 C 130.441406 326.433594 126.398438 324.441406 122.449219 322.257812 C 118.503906 320.074219 114.667969 317.703125 110.945312 315.152344 C 107.222656 312.605469 103.628906 309.882812 100.167969 306.988281 C 96.703125 304.09375 93.386719 301.042969 90.214844 297.832031 C 64.878906 272.492188 50.574219 239.796875 48.53125 204.648438 L 82.453125 204.648438 C 82.71875 204.648438 82.984375 204.625 83.25 204.570312 C 83.511719 204.519531 83.765625 204.441406 84.015625 204.339844 C 84.261719 204.234375 84.5 204.109375 84.722656 203.960938 C 84.945312 203.8125 85.152344 203.644531 85.339844 203.453125 C 85.53125 203.261719 85.699219 203.058594 85.847656 202.832031 C 86 202.609375 86.125 202.375 86.226562 202.128906 C 86.328125 201.878906 86.40625 201.625 86.460938 201.359375 C 86.511719 201.097656 86.539062 200.832031 86.539062 200.5625 C 86.539062 200.292969 86.511719 200.027344 86.460938 199.765625 C 86.40625 199.503906 86.328125 199.246094 86.226562 199 C 86.125 198.75 86 198.515625 85.847656 198.292969 C 85.699219 198.070312 85.53125 197.863281 85.339844 197.671875 C 85.152344 197.484375 84.945312 197.3125 84.722656 197.164062 C 84.5 197.015625 84.261719 196.890625 84.015625 196.789062 C 83.765625 196.683594 83.511719 196.605469 83.25 196.554688 C 82.984375 196.503906 82.71875 196.476562 82.453125 196.476562 L 48.53125 196.476562 C 48.542969 194.164062 48.613281 191.851562 48.738281 189.542969 C 48.863281 187.234375 49.046875 184.925781 49.285156 182.625 C 49.519531 180.324219 49.816406 178.03125 50.164062 175.746094 C 50.511719 173.457031 50.917969 171.183594 51.378906 168.914062 C 51.839844 166.648438 52.351562 164.394531 52.921875 162.152344 C 53.492188 159.910156 54.117188 157.683594 54.796875 155.472656 C 55.472656 153.261719 56.203125 151.066406 56.988281 148.890625 C 57.773438 146.714844 58.613281 144.558594 59.5 142.425781 C 60.390625 140.289062 61.332031 138.175781 62.324219 136.089844 C 63.316406 134 64.359375 131.933594 65.453125 129.894531 C 66.546875 127.859375 67.6875 125.847656 68.878906 123.863281 C 70.070312 121.878906 71.308594 119.929688 72.59375 118.003906 C 73.878906 116.082031 75.210938 114.191406 76.585938 112.332031 C 77.964844 110.476562 79.386719 108.652344 80.855469 106.863281 C 82.320312 105.074219 83.828125 103.324219 85.382812 101.605469 C 86.933594 99.890625 88.523438 98.214844 90.160156 96.578125 C 91.792969 94.9375 93.464844 93.339844 95.175781 91.785156 C 96.886719 90.230469 98.632812 88.714844 100.417969 87.242188 C 102.203125 85.769531 104.023438 84.34375 105.875 82.960938 C 107.730469 81.578125 109.617188 80.242188 111.535156 78.949219 C 113.453125 77.65625 115.402344 76.414062 117.382812 75.21875 C 119.363281 74.019531 121.371094 72.875 123.40625 71.773438 C 125.441406 70.675781 127.503906 69.628906 129.589844 68.628906 C 131.675781 67.628906 133.785156 66.683594 135.917969 65.789062 C 138.050781 64.890625 140.203125 64.046875 142.378906 63.257812 C 144.550781 62.464844 146.742188 61.726562 148.953125 61.042969 C 151.160156 60.359375 153.386719 59.730469 155.625 59.152344 C 157.867188 58.574219 160.117188 58.054688 162.382812 57.589844 C 164.648438 57.121094 166.925781 56.710938 169.210938 56.355469 C 171.496094 56 173.789062 55.699219 176.089844 55.453125 C 178.390625 55.210938 180.695312 55.019531 183.003906 54.886719 C 185.3125 54.757812 187.625 54.679688 189.9375 54.660156 C 189.507812 54.796875 189.109375 54.996094 188.746094 55.261719 C 188.382812 55.527344 188.070312 55.847656 187.8125 56.214844 C 187.550781 56.585938 187.359375 56.988281 187.234375 57.421875 C 187.109375 57.855469 187.054688 58.296875 187.078125 58.746094 L 187.078125 91.851562 C 187.078125 92.121094 187.101562 92.386719 187.15625 92.648438 C 187.207031 92.910156 187.285156 93.167969 187.386719 93.414062 C 187.488281 93.664062 187.617188 93.898438 187.765625 94.121094 C 187.914062 94.34375 188.082031 94.550781 188.273438 94.742188 C 188.464844 94.929688 188.667969 95.101562 188.894531 95.25 C 189.117188 95.398438 189.351562 95.523438 189.597656 95.628906 C 189.847656 95.730469 190.101562 95.808594 190.367188 95.859375 C 190.628906 95.910156 190.894531 95.9375 191.164062 95.9375 C 191.429688 95.9375 191.699219 95.910156 191.960938 95.859375 C 192.222656 95.808594 192.480469 95.730469 192.726562 95.628906 C 192.976562 95.523438 193.210938 95.398438 193.433594 95.25 C 193.65625 95.101562 193.863281 94.929688 194.054688 94.742188 C 194.242188 94.550781 194.414062 94.34375 194.5625 94.121094 C 194.710938 93.898438 194.835938 93.664062 194.9375 93.414062 C 195.042969 93.167969 195.121094 92.910156 195.171875 92.648438 C 195.222656 92.386719 195.25 92.121094 195.25 91.851562 L 195.25 58.746094 C 195.269531 58.296875 195.21875 57.855469 195.09375 57.421875 C 194.964844 56.988281 194.773438 56.585938 194.515625 56.214844 C 194.257812 55.847656 193.945312 55.527344 193.582031 55.261719 C 193.21875 54.996094 192.820312 54.796875 192.390625 54.660156 C 194.703125 54.679688 197.011719 54.757812 199.324219 54.886719 C 201.632812 55.019531 203.9375 55.210938 206.238281 55.453125 C 208.535156 55.699219 210.828125 56 213.117188 56.355469 C 215.402344 56.710938 217.675781 57.121094 219.941406 57.589844 C 222.207031 58.054688 224.460938 58.574219 226.699219 59.152344 C 228.941406 59.730469 231.164062 60.359375 233.375 61.042969 C 235.585938 61.726562 237.777344 62.464844 239.949219 63.257812 C 242.121094 64.046875 244.277344 64.890625 246.410156 65.789062 C 248.542969 66.683594 250.652344 67.628906 252.738281 68.628906 C 254.824219 69.628906 256.882812 70.675781 258.921875 71.773438 C 260.957031 72.875 262.964844 74.019531 264.941406 75.21875 C 266.921875 76.414062 268.871094 77.65625 270.789062 78.949219 C 272.710938 80.242188 274.597656 81.578125 276.449219 82.960938 C 278.304688 84.34375 280.125 85.769531 281.910156 87.242188 C 283.691406 88.714844 285.441406 90.230469 287.152344 91.785156 C 288.863281 93.339844 290.535156 94.9375 292.167969 96.578125 C 293.800781 98.214844 295.394531 99.890625 296.945312 101.605469 C 298.496094 103.324219 300.007812 105.074219 301.472656 106.863281 C 302.9375 108.652344 304.359375 110.476562 305.738281 112.332031 C 307.117188 114.191406 308.449219 116.082031 309.734375 118.003906 C 311.019531 119.929688 312.257812 121.878906 313.449219 123.863281 C 314.640625 125.847656 315.78125 127.859375 316.875 129.894531 C 317.964844 131.933594 319.007812 134 320 136.089844 C 320.996094 138.175781 321.933594 140.289062 322.824219 142.425781 C 323.714844 144.558594 324.550781 146.714844 325.335938 148.890625 C 326.121094 151.066406 326.851562 153.261719 327.53125 155.472656 C 328.210938 157.683594 328.832031 159.910156 329.402344 162.152344 C 329.972656 164.394531 330.488281 166.648438 330.949219 168.914062 C 331.410156 171.183594 331.8125 173.457031 332.164062 175.746094 C 332.511719 178.03125 332.804688 180.324219 333.042969 182.625 C 333.28125 184.925781 333.460938 187.234375 333.589844 189.542969 C 333.714844 191.851562 333.785156 194.164062 333.796875 196.476562 L 301.917969 196.476562 C 301.648438 196.476562 301.382812 196.503906 301.121094 196.554688 C 300.859375 196.605469 300.601562 196.683594 300.355469 196.789062 C 300.105469 196.890625 299.871094 197.015625 299.648438 197.164062 C 299.425781 197.3125 299.21875 197.484375 299.027344 197.671875 C 298.839844 197.863281 298.667969 198.070312 298.519531 198.292969 C 298.371094 198.515625 298.246094 198.75 298.144531 199 C 298.039062 199.246094 297.960938 199.503906 297.910156 199.765625 C 297.859375 200.027344 297.832031 200.292969 297.832031 200.5625 C 297.832031 200.832031 297.859375 201.097656 297.910156 201.359375 C 297.960938 201.625 298.039062 201.878906 298.144531 202.128906 C 298.246094 202.375 298.371094 202.609375 298.519531 202.832031 C 298.667969 203.058594 298.839844 203.261719 299.027344 203.453125 C 299.21875 203.644531 299.425781 203.8125 299.648438 203.960938 C 299.871094 204.109375 300.105469 204.234375 300.355469 204.339844 C 300.601562 204.441406 300.859375 204.519531 301.121094 204.570312 C 301.382812 204.625 301.648438 204.648438 301.917969 204.648438 L 333.386719 204.648438 C 331.753906 239.796875 317.039062 272.902344 292.109375 297.832031 Z M 292.109375 297.832031 " fill-opacity="1" fill-rule="nonzero"/><path fill="#ffffff" d="M 192.390625 106.972656 C 140.894531 106.972656 99.617188 148.660156 99.617188 199.746094 C 99.617188 250.832031 140.894531 292.925781 192.390625 292.925781 C 243.882812 292.925781 285.164062 251.648438 285.164062 200.15625 C 285.164062 148.660156 243.476562 106.972656 192.390625 106.972656 Z M 243.882812 251.648438 C 243.097656 252.449219 242.144531 252.859375 241.023438 252.875 L 238.980469 252.875 L 172.363281 215.683594 L 171.953125 215.683594 C 170.847656 215.351562 170.03125 214.667969 169.503906 213.640625 L 140.078125 153.15625 C 139.886719 152.761719 139.765625 152.347656 139.707031 151.914062 C 139.652344 151.484375 139.664062 151.050781 139.746094 150.625 C 139.824219 150.195312 139.972656 149.789062 140.183594 149.40625 C 140.394531 149.027344 140.660156 148.6875 140.980469 148.390625 C 141.300781 148.09375 141.65625 147.851562 142.054688 147.671875 C 142.449219 147.488281 142.867188 147.371094 143.300781 147.324219 C 143.734375 147.273438 144.164062 147.292969 144.589844 147.382812 C 145.015625 147.472656 145.421875 147.625 145.796875 147.84375 L 205.058594 180.539062 L 206.285156 181.761719 L 207.511719 182.988281 L 244.703125 246.335938 C 244.964844 246.753906 245.148438 247.203125 245.25 247.6875 C 245.351562 248.171875 245.363281 248.65625 245.289062 249.144531 C 245.214844 249.636719 245.054688 250.09375 244.8125 250.523438 C 244.570312 250.957031 244.261719 251.332031 243.882812 251.648438 Z M 243.882812 251.648438 " fill-opacity="1" fill-rule="nonzero"/><path fill="#fdcd60" d="M 153.15625 161.328125 L 174.40625 204.648438 L 195.660156 185.03125 Z M 153.15625 161.328125 " fill-opacity="1" fill-rule="nonzero"/><path fill="#afbcf3" d="M 181.355469 211.1875 L 229.988281 238.164062 L 202.605469 191.570312 Z M 181.355469 211.1875 " fill-opacity="1" fill-rule="nonzero"/><path fill="#5546cb" d="M 207.511719 182.988281 L 206.285156 181.761719 L 205.058594 180.539062 L 145.796875 147.84375 C 145.421875 147.625 145.015625 147.472656 144.589844 147.382812 C 144.164062 147.292969 143.734375 147.273438 143.300781 147.324219 C 142.867188 147.371094 142.449219 147.488281 142.054688 147.671875 C 141.65625 147.851562 141.300781 148.09375 140.980469 148.390625 C 140.660156 148.6875 140.394531 149.027344 140.183594 149.40625 C 139.972656 149.789062 139.824219 150.195312 139.746094 150.625 C 139.664062 151.050781 139.652344 151.484375 139.707031 151.914062 C 139.765625 152.347656 139.886719 152.761719 140.078125 153.15625 L 169.503906 213.234375 C 170.03125 214.261719 170.847656 214.941406 171.953125 215.277344 L 172.363281 215.277344 L 238.980469 252.058594 L 241.023438 252.058594 C 241.765625 252.082031 242.464844 251.917969 243.117188 251.5625 C 243.769531 251.210938 244.285156 250.714844 244.667969 250.078125 C 245.050781 249.441406 245.246094 248.75 245.25 248.007812 C 245.257812 247.265625 245.074219 246.570312 244.703125 245.929688 Z M 153.15625 161.328125 L 196.066406 185.03125 L 174.816406 204.648438 Z M 181.355469 211.1875 L 203.015625 191.570312 L 229.988281 237.753906 Z M 181.355469 211.1875 " fill-opacity="1" fill-rule="nonzero"/></svg>