<svg xmlns="http://www.w3.org/2000/svg" xmlns:xlink="http://www.w3.org/1999/xlink" width="512" zoomAndPan="magnify" viewBox="0 0 384 383.999986" height="512" preserveAspectRatio="xMidYMid meet" version="1.0"><path fill="#f2f2fc" d="M 331.621094 96.894531 L 309.601562 96.894531 L 309.601562 270.089844 C 309.601562 270.457031 309.566406 270.820312 309.496094 271.179688 C 309.425781 271.539062 309.316406 271.890625 309.179688 272.226562 C 309.039062 272.566406 308.863281 272.890625 308.660156 273.195312 C 308.457031 273.5 308.226562 273.78125 307.964844 274.042969 C 307.707031 274.300781 307.425781 274.53125 307.117188 274.738281 C 306.8125 274.941406 306.492188 275.113281 306.152344 275.253906 C 305.8125 275.394531 305.464844 275.5 305.105469 275.570312 C 304.742188 275.644531 304.378906 275.679688 304.011719 275.679688 L 80.417969 275.679688 C 80.050781 275.679688 79.6875 275.644531 79.328125 275.570312 C 78.96875 275.5 78.621094 275.394531 78.28125 275.253906 C 77.941406 275.113281 77.621094 274.941406 77.3125 274.738281 C 77.007812 274.53125 76.726562 274.300781 76.46875 274.042969 C 76.207031 273.78125 75.976562 273.5 75.773438 273.195312 C 75.566406 272.890625 75.394531 272.566406 75.253906 272.226562 C 75.113281 271.890625 75.007812 271.539062 74.9375 271.179688 C 74.867188 270.820312 74.828125 270.457031 74.828125 270.089844 L 74.828125 96.894531 L 52.128906 96.894531 L 52.128906 286.949219 L 331.621094 286.949219 Z M 331.621094 96.894531 " fill-opacity="1" fill-rule="nonzero"/><path fill="#61729b" d="M 219.824219 298.128906 L 219.824219 314.898438 C 219.824219 315.265625 219.789062 315.628906 219.71875 315.988281 C 219.644531 316.347656 219.539062 316.695312 219.398438 317.035156 C 219.257812 317.375 219.085938 317.695312 218.882812 318.003906 C 218.679688 318.308594 218.445312 318.589844 218.1875 318.847656 C 217.929688 319.109375 217.644531 319.339844 217.339844 319.542969 C 217.035156 319.75 216.714844 319.921875 216.375 320.0625 C 216.035156 320.203125 215.683594 320.308594 215.324219 320.378906 C 214.964844 320.449219 214.601562 320.488281 214.234375 320.488281 L 169.515625 320.488281 C 169.148438 320.488281 168.785156 320.449219 168.425781 320.378906 C 168.066406 320.308594 167.714844 320.203125 167.378906 320.0625 C 167.039062 319.921875 166.714844 319.75 166.410156 319.542969 C 166.105469 319.339844 165.824219 319.109375 165.5625 318.847656 C 165.304688 318.589844 165.074219 318.308594 164.867188 318.003906 C 164.664062 317.695312 164.492188 317.375 164.351562 317.035156 C 164.210938 316.695312 164.105469 316.347656 164.035156 315.988281 C 163.960938 315.628906 163.925781 315.265625 163.925781 314.898438 L 163.925781 298.128906 L 41.347656 298.128906 C 41.515625 299.28125 41.730469 300.421875 42 301.554688 C 42.269531 302.6875 42.589844 303.804688 42.957031 304.910156 C 43.328125 306.015625 43.742188 307.101562 44.210938 308.167969 C 44.675781 309.234375 45.1875 310.277344 45.746094 311.300781 C 46.304688 312.320312 46.910156 313.316406 47.554688 314.285156 C 48.203125 315.25 48.894531 316.1875 49.625 317.09375 C 50.355469 318 51.125 318.871094 51.933594 319.710938 C 52.742188 320.546875 53.585938 321.347656 54.46875 322.109375 C 55.347656 322.871094 56.257812 323.59375 57.203125 324.273438 C 58.148438 324.953125 59.121094 325.59375 60.121094 326.1875 C 61.125 326.78125 62.148438 327.328125 63.199219 327.832031 C 64.25 328.332031 65.320312 328.789062 66.410156 329.195312 C 67.503906 329.601562 68.609375 329.960938 69.730469 330.269531 C 70.855469 330.578125 71.988281 330.835938 73.136719 331.042969 C 74.28125 331.25 75.433594 331.40625 76.59375 331.507812 C 77.753906 331.613281 78.914062 331.664062 80.078125 331.667969 L 303.671875 331.667969 C 304.835938 331.667969 306 331.613281 307.160156 331.511719 C 308.320312 331.40625 309.472656 331.253906 310.617188 331.046875 C 311.765625 330.839844 312.898438 330.582031 314.023438 330.273438 C 315.144531 329.964844 316.25 329.609375 317.34375 329.203125 C 318.433594 328.796875 319.503906 328.339844 320.554688 327.839844 C 321.605469 327.335938 322.632812 326.789062 323.632812 326.195312 C 324.636719 325.601562 325.609375 324.964844 326.554688 324.28125 C 327.5 323.601562 328.410156 322.878906 329.292969 322.117188 C 330.171875 321.355469 331.015625 320.554688 331.824219 319.71875 C 332.632812 318.878906 333.402344 318.007812 334.136719 317.101562 C 334.867188 316.195312 335.554688 315.257812 336.203125 314.289062 C 336.851562 313.320312 337.453125 312.328125 338.011719 311.304688 C 338.570312 310.285156 339.082031 309.238281 339.546875 308.171875 C 340.011719 307.105469 340.429688 306.015625 340.796875 304.914062 C 341.164062 303.808594 341.484375 302.6875 341.753906 301.554688 C 342.019531 300.421875 342.238281 299.28125 342.40625 298.128906 Z M 219.824219 298.128906 " fill-opacity="1" fill-rule="nonzero"/><path fill="#2c3b73" d="M 175.105469 298.128906 L 208.644531 298.128906 L 208.644531 309.308594 L 175.105469 309.308594 Z M 175.105469 298.128906 " fill-opacity="1" fill-rule="nonzero"/><path fill="#d8d8fc" d="M 298.421875 84.023438 L 86.007812 84.023438 L 86.007812 264.5 L 298.421875 264.5 Z M 138.402344 101.246094 C 138.769531 101.246094 139.132812 101.285156 139.492188 101.355469 C 139.855469 101.425781 140.203125 101.53125 140.542969 101.671875 C 140.882812 101.8125 141.203125 101.984375 141.507812 102.191406 C 141.8125 102.394531 142.097656 102.625 142.355469 102.882812 C 142.617188 103.144531 142.847656 103.425781 143.050781 103.730469 C 143.253906 104.035156 143.425781 104.359375 143.566406 104.699219 C 143.707031 105.039062 143.8125 105.386719 143.886719 105.746094 C 143.957031 106.105469 143.992188 106.46875 143.992188 106.835938 L 143.992188 142.910156 L 180.0625 142.910156 C 180.429688 142.910156 180.792969 142.945312 181.15625 143.015625 C 181.515625 143.085938 181.863281 143.195312 182.203125 143.335938 C 182.542969 143.472656 182.863281 143.648438 183.167969 143.851562 C 183.476562 144.054688 183.757812 144.285156 184.015625 144.546875 C 184.277344 144.804688 184.507812 145.085938 184.710938 145.394531 C 184.914062 145.699219 185.089844 146.019531 185.230469 146.359375 C 185.367188 146.699219 185.476562 147.046875 185.546875 147.40625 C 185.617188 147.769531 185.652344 148.132812 185.652344 148.5 C 185.652344 150.046875 185.578125 151.589844 185.425781 153.128906 C 185.273438 154.667969 185.046875 156.199219 184.746094 157.714844 C 184.445312 159.234375 184.070312 160.734375 183.621094 162.214844 C 183.171875 163.695312 182.648438 165.152344 182.058594 166.582031 C 181.464844 168.011719 180.804688 169.40625 180.074219 170.773438 C 179.34375 172.136719 178.550781 173.464844 177.691406 174.75 C 176.832031 176.035156 175.910156 177.277344 174.929688 178.472656 C 173.945312 179.671875 172.910156 180.816406 171.816406 181.910156 C 170.71875 183.003906 169.574219 184.042969 168.378906 185.023438 C 167.183594 186.003906 165.941406 186.925781 164.65625 187.785156 C 163.367188 188.644531 162.042969 189.441406 160.675781 190.171875 C 159.3125 190.898438 157.914062 191.558594 156.484375 192.152344 C 155.054688 192.746094 153.601562 193.265625 152.121094 193.714844 C 150.636719 194.164062 149.140625 194.539062 147.621094 194.839844 C 146.105469 195.144531 144.574219 195.371094 143.035156 195.523438 C 141.496094 195.671875 139.949219 195.75 138.402344 195.75 C 136.855469 195.75 135.3125 195.671875 133.773438 195.523438 C 132.230469 195.371094 130.703125 195.144531 129.183594 194.839844 C 127.667969 194.539062 126.167969 194.164062 124.6875 193.714844 C 123.207031 193.265625 121.75 192.746094 120.320312 192.152344 C 118.890625 191.558594 117.492188 190.898438 116.128906 190.171875 C 114.765625 189.441406 113.4375 188.644531 112.152344 187.785156 C 110.863281 186.925781 109.625 186.003906 108.425781 185.023438 C 107.230469 184.042969 106.085938 183.003906 104.992188 181.910156 C 103.898438 180.816406 102.859375 179.671875 101.878906 178.472656 C 100.894531 177.277344 99.976562 176.035156 99.117188 174.75 C 98.253906 173.464844 97.460938 172.136719 96.730469 170.773438 C 96.003906 169.40625 95.339844 168.011719 94.75 166.582031 C 94.15625 165.152344 93.636719 163.695312 93.1875 162.214844 C 92.738281 160.734375 92.363281 159.234375 92.058594 157.714844 C 91.757812 156.199219 91.53125 154.667969 91.378906 153.128906 C 91.226562 151.589844 91.152344 150.046875 91.152344 148.5 C 91.152344 146.949219 91.226562 145.40625 91.378906 143.867188 C 91.53125 142.328125 91.757812 140.796875 92.058594 139.28125 C 92.363281 137.761719 92.738281 136.261719 93.1875 134.78125 C 93.636719 133.300781 94.15625 131.847656 94.75 130.417969 C 95.339844 128.988281 96.003906 127.589844 96.730469 126.222656 C 97.460938 124.859375 98.253906 123.535156 99.117188 122.246094 C 99.976562 120.960938 100.894531 119.71875 101.878906 118.523438 C 102.859375 117.328125 103.898438 116.179688 104.992188 115.085938 C 106.085938 113.992188 107.230469 112.953125 108.425781 111.972656 C 109.625 110.992188 110.863281 110.070312 112.152344 109.210938 C 113.4375 108.351562 114.765625 107.554688 116.128906 106.828125 C 117.492188 106.097656 118.890625 105.4375 120.320312 104.84375 C 121.75 104.253906 123.207031 103.730469 124.6875 103.28125 C 126.167969 102.832031 127.667969 102.457031 129.183594 102.15625 C 130.703125 101.851562 132.230469 101.625 133.773438 101.476562 C 135.3125 101.324219 136.855469 101.246094 138.402344 101.246094 Z M 198.148438 247.703125 C 198.148438 248.070312 198.113281 248.433594 198.039062 248.792969 C 197.96875 249.152344 197.863281 249.5 197.722656 249.839844 C 197.582031 250.179688 197.410156 250.5 197.207031 250.808594 C 197 251.113281 196.769531 251.394531 196.511719 251.652344 C 196.25 251.914062 195.96875 252.144531 195.664062 252.347656 C 195.359375 252.554688 195.035156 252.726562 194.695312 252.867188 C 194.359375 253.007812 194.007812 253.113281 193.648438 253.183594 C 193.289062 253.253906 192.925781 253.292969 192.558594 253.292969 L 103.121094 253.292969 C 102.753906 253.292969 102.390625 253.253906 102.03125 253.183594 C 101.667969 253.113281 101.320312 253.007812 100.980469 252.867188 C 100.640625 252.726562 100.320312 252.554688 100.015625 252.347656 C 99.710938 252.144531 99.425781 251.914062 99.167969 251.652344 C 98.90625 251.394531 98.675781 251.113281 98.472656 250.808594 C 98.269531 250.5 98.097656 250.179688 97.957031 249.839844 C 97.816406 249.5 97.710938 249.152344 97.636719 248.792969 C 97.566406 248.433594 97.53125 248.070312 97.53125 247.703125 L 97.53125 214.164062 C 97.53125 213.796875 97.566406 213.433594 97.636719 213.070312 C 97.710938 212.710938 97.816406 212.363281 97.957031 212.023438 C 98.097656 211.683594 98.269531 211.363281 98.472656 211.058594 C 98.675781 210.75 98.90625 210.46875 99.167969 210.210938 C 99.425781 209.949219 99.710938 209.71875 100.015625 209.515625 C 100.320312 209.3125 100.640625 209.136719 100.980469 208.996094 C 101.320312 208.859375 101.667969 208.75 102.03125 208.679688 C 102.390625 208.609375 102.753906 208.574219 103.121094 208.574219 L 192.558594 208.574219 C 192.925781 208.574219 193.289062 208.609375 193.648438 208.679688 C 194.007812 208.75 194.359375 208.859375 194.695312 208.996094 C 195.035156 209.136719 195.359375 209.3125 195.664062 209.515625 C 195.96875 209.71875 196.25 209.949219 196.511719 210.210938 C 196.769531 210.46875 197 210.75 197.207031 211.058594 C 197.410156 211.363281 197.582031 211.683594 197.722656 212.023438 C 197.863281 212.363281 197.96875 212.710938 198.039062 213.070312 C 198.113281 213.433594 198.148438 213.796875 198.148438 214.164062 Z M 192.5625 141.566406 L 150.902344 141.566406 C 150.535156 141.566406 150.171875 141.53125 149.8125 141.460938 C 149.453125 141.386719 149.101562 141.28125 148.761719 141.140625 C 148.421875 141 148.101562 140.828125 147.796875 140.625 C 147.492188 140.421875 147.207031 140.1875 146.949219 139.929688 C 146.691406 139.671875 146.457031 139.386719 146.253906 139.082031 C 146.050781 138.777344 145.878906 138.457031 145.738281 138.117188 C 145.597656 137.777344 145.492188 137.425781 145.417969 137.066406 C 145.347656 136.707031 145.3125 136.34375 145.3125 135.976562 L 145.3125 94.339844 C 145.3125 93.972656 145.347656 93.609375 145.417969 93.246094 C 145.492188 92.886719 145.597656 92.539062 145.738281 92.199219 C 145.878906 91.859375 146.050781 91.539062 146.253906 91.234375 C 146.457031 90.925781 146.691406 90.644531 146.949219 90.386719 C 147.207031 90.125 147.492188 89.894531 147.796875 89.691406 C 148.101562 89.488281 148.421875 89.316406 148.761719 89.175781 C 149.101562 89.035156 149.453125 88.925781 149.8125 88.855469 C 150.171875 88.785156 150.535156 88.75 150.902344 88.75 C 152.449219 88.75 153.992188 88.824219 155.53125 88.976562 C 157.070312 89.128906 158.597656 89.359375 160.117188 89.660156 C 161.632812 89.960938 163.132812 90.335938 164.613281 90.785156 C 166.09375 91.234375 167.546875 91.757812 168.976562 92.347656 C 170.40625 92.941406 171.800781 93.601562 173.164062 94.332031 C 174.53125 95.058594 175.855469 95.855469 177.140625 96.714844 C 178.425781 97.574219 179.667969 98.492188 180.863281 99.476562 C 182.058594 100.457031 183.203125 101.492188 184.300781 102.585938 C 185.394531 103.679688 186.429688 104.824219 187.414062 106.019531 C 188.394531 107.214844 189.316406 108.457031 190.175781 109.742188 C 191.035156 111.027344 191.828125 112.351562 192.558594 113.714844 C 193.289062 115.082031 193.949219 116.476562 194.542969 117.90625 C 195.136719 119.335938 195.65625 120.789062 196.109375 122.269531 C 196.558594 123.75 196.933594 125.246094 197.238281 126.765625 C 197.539062 128.28125 197.769531 129.808594 197.921875 131.347656 C 198.074219 132.886719 198.152344 134.429688 198.152344 135.976562 C 198.152344 136.34375 198.117188 136.707031 198.046875 137.066406 C 197.972656 137.425781 197.867188 137.777344 197.726562 138.117188 C 197.585938 138.457031 197.414062 138.777344 197.210938 139.082031 C 197.007812 139.386719 196.773438 139.671875 196.515625 139.929688 C 196.257812 140.1875 195.972656 140.421875 195.667969 140.625 C 195.363281 140.828125 195.042969 141 194.703125 141.140625 C 194.363281 141.28125 194.011719 141.386719 193.652344 141.460938 C 193.292969 141.53125 192.929688 141.566406 192.5625 141.566406 Z M 220.613281 247.703125 C 220.613281 248.070312 220.578125 248.433594 220.503906 248.792969 C 220.433594 249.152344 220.328125 249.5 220.1875 249.839844 C 220.046875 250.179688 219.875 250.5 219.671875 250.808594 C 219.46875 251.113281 219.234375 251.394531 218.976562 251.652344 C 218.714844 251.914062 218.433594 252.144531 218.128906 252.347656 C 217.824219 252.554688 217.5 252.726562 217.164062 252.867188 C 216.824219 253.007812 216.472656 253.113281 216.113281 253.183594 C 215.753906 253.253906 215.390625 253.292969 215.023438 253.292969 C 214.65625 253.292969 214.292969 253.253906 213.933594 253.183594 C 213.574219 253.113281 213.222656 253.007812 212.882812 252.867188 C 212.542969 252.726562 212.222656 252.554688 211.917969 252.347656 C 211.613281 252.144531 211.328125 251.914062 211.070312 251.652344 C 210.8125 251.394531 210.578125 251.113281 210.375 250.808594 C 210.171875 250.5 210 250.179688 209.859375 249.839844 C 209.71875 249.5 209.613281 249.152344 209.539062 248.792969 C 209.46875 248.433594 209.433594 248.070312 209.433594 247.703125 L 209.433594 214.164062 C 209.433594 213.796875 209.46875 213.433594 209.539062 213.070312 C 209.613281 212.710938 209.71875 212.363281 209.859375 212.023438 C 210 211.683594 210.171875 211.363281 210.375 211.058594 C 210.578125 210.75 210.8125 210.46875 211.070312 210.210938 C 211.328125 209.949219 211.613281 209.71875 211.917969 209.515625 C 212.222656 209.3125 212.542969 209.136719 212.882812 208.996094 C 213.222656 208.859375 213.574219 208.75 213.933594 208.679688 C 214.292969 208.609375 214.65625 208.574219 215.023438 208.574219 C 215.390625 208.574219 215.753906 208.609375 216.113281 208.679688 C 216.472656 208.75 216.824219 208.859375 217.164062 208.996094 C 217.5 209.136719 217.824219 209.3125 218.128906 209.515625 C 218.433594 209.71875 218.714844 209.949219 218.976562 210.210938 C 219.234375 210.46875 219.46875 210.75 219.671875 211.058594 C 219.875 211.363281 220.046875 211.683594 220.1875 212.023438 C 220.328125 212.363281 220.433594 212.710938 220.503906 213.070312 C 220.578125 213.433594 220.613281 213.796875 220.613281 214.164062 Z M 242.972656 247.703125 C 242.972656 248.070312 242.9375 248.433594 242.863281 248.792969 C 242.792969 249.152344 242.6875 249.5 242.546875 249.839844 C 242.40625 250.179688 242.234375 250.5 242.03125 250.808594 C 241.828125 251.113281 241.59375 251.394531 241.335938 251.652344 C 241.074219 251.914062 240.792969 252.144531 240.488281 252.347656 C 240.183594 252.554688 239.859375 252.726562 239.523438 252.867188 C 239.183594 253.007812 238.832031 253.113281 238.472656 253.183594 C 238.113281 253.253906 237.75 253.292969 237.382812 253.292969 C 237.015625 253.292969 236.652344 253.253906 236.292969 253.183594 C 235.933594 253.113281 235.582031 253.007812 235.242188 252.867188 C 234.902344 252.726562 234.582031 252.554688 234.277344 252.347656 C 233.972656 252.144531 233.691406 251.914062 233.429688 251.652344 C 233.171875 251.394531 232.9375 251.113281 232.734375 250.808594 C 232.53125 250.5 232.359375 250.179688 232.21875 249.839844 C 232.078125 249.5 231.972656 249.152344 231.898438 248.792969 C 231.828125 248.433594 231.792969 248.070312 231.792969 247.703125 L 231.792969 202.984375 C 231.792969 202.617188 231.828125 202.253906 231.898438 201.890625 C 231.972656 201.53125 232.078125 201.183594 232.21875 200.84375 C 232.359375 200.503906 232.53125 200.183594 232.734375 199.878906 C 232.9375 199.570312 233.171875 199.289062 233.429688 199.03125 C 233.691406 198.769531 233.972656 198.539062 234.277344 198.335938 C 234.582031 198.132812 234.902344 197.957031 235.242188 197.816406 C 235.582031 197.679688 235.933594 197.570312 236.292969 197.5 C 236.652344 197.429688 237.015625 197.394531 237.382812 197.394531 C 237.75 197.394531 238.113281 197.429688 238.472656 197.5 C 238.832031 197.570312 239.183594 197.679688 239.523438 197.816406 C 239.859375 197.957031 240.183594 198.132812 240.488281 198.335938 C 240.792969 198.539062 241.074219 198.769531 241.335938 199.03125 C 241.59375 199.289062 241.828125 199.570312 242.03125 199.878906 C 242.234375 200.183594 242.40625 200.503906 242.546875 200.84375 C 242.6875 201.183594 242.792969 201.53125 242.863281 201.890625 C 242.9375 202.253906 242.972656 202.617188 242.972656 202.984375 Z M 265.332031 247.703125 C 265.332031 248.070312 265.296875 248.433594 265.222656 248.792969 C 265.152344 249.152344 265.046875 249.5 264.90625 249.839844 C 264.765625 250.179688 264.59375 250.5 264.390625 250.808594 C 264.1875 251.113281 263.953125 251.394531 263.695312 251.652344 C 263.433594 251.914062 263.152344 252.144531 262.847656 252.347656 C 262.542969 252.554688 262.21875 252.726562 261.882812 252.867188 C 261.542969 253.007812 261.191406 253.113281 260.832031 253.183594 C 260.472656 253.253906 260.109375 253.292969 259.742188 253.292969 C 259.375 253.292969 259.011719 253.253906 258.652344 253.183594 C 258.292969 253.113281 257.941406 253.007812 257.601562 252.867188 C 257.261719 252.726562 256.941406 252.554688 256.636719 252.347656 C 256.332031 252.144531 256.050781 251.914062 255.789062 251.652344 C 255.53125 251.394531 255.296875 251.113281 255.09375 250.808594 C 254.890625 250.5 254.71875 250.179688 254.578125 249.839844 C 254.4375 249.5 254.332031 249.152344 254.257812 248.792969 C 254.1875 248.433594 254.152344 248.070312 254.152344 247.703125 L 254.152344 194.597656 C 254.152344 194.230469 254.1875 193.867188 254.257812 193.507812 C 254.332031 193.148438 254.4375 192.796875 254.578125 192.457031 C 254.71875 192.121094 254.890625 191.796875 255.09375 191.492188 C 255.296875 191.1875 255.53125 190.90625 255.789062 190.644531 C 256.050781 190.386719 256.332031 190.152344 256.636719 189.949219 C 256.941406 189.746094 257.261719 189.574219 257.601562 189.433594 C 257.941406 189.292969 258.292969 189.1875 258.652344 189.117188 C 259.011719 189.042969 259.375 189.007812 259.742188 189.007812 C 260.109375 189.007812 260.472656 189.042969 260.832031 189.117188 C 261.191406 189.1875 261.542969 189.292969 261.882812 189.433594 C 262.21875 189.574219 262.542969 189.746094 262.847656 189.949219 C 263.152344 190.152344 263.433594 190.386719 263.695312 190.644531 C 263.953125 190.90625 264.1875 191.1875 264.390625 191.492188 C 264.59375 191.796875 264.765625 192.121094 264.90625 192.457031 C 265.046875 192.796875 265.152344 193.148438 265.222656 193.507812 C 265.296875 193.867188 265.332031 194.230469 265.332031 194.597656 Z M 287.585938 247.703125 C 287.585938 248.070312 287.550781 248.433594 287.476562 248.792969 C 287.40625 249.152344 287.300781 249.5 287.160156 249.839844 C 287.019531 250.179688 286.847656 250.5 286.644531 250.808594 C 286.4375 251.113281 286.207031 251.394531 285.949219 251.652344 C 285.6875 251.914062 285.40625 252.144531 285.101562 252.347656 C 284.796875 252.554688 284.472656 252.726562 284.132812 252.867188 C 283.796875 253.007812 283.445312 253.113281 283.085938 253.183594 C 282.726562 253.253906 282.363281 253.292969 281.996094 253.292969 C 281.628906 253.292969 281.265625 253.253906 280.90625 253.183594 C 280.542969 253.113281 280.195312 253.007812 279.855469 252.867188 C 279.515625 252.726562 279.195312 252.554688 278.890625 252.347656 C 278.585938 252.144531 278.300781 251.914062 278.042969 251.652344 C 277.78125 251.394531 277.550781 251.113281 277.347656 250.808594 C 277.144531 250.5 276.972656 250.179688 276.832031 249.839844 C 276.691406 249.5 276.585938 249.152344 276.511719 248.792969 C 276.441406 248.433594 276.40625 248.070312 276.40625 247.703125 L 276.40625 180.625 C 276.40625 180.257812 276.441406 179.894531 276.511719 179.53125 C 276.585938 179.171875 276.691406 178.824219 276.832031 178.484375 C 276.972656 178.144531 277.144531 177.824219 277.347656 177.519531 C 277.550781 177.210938 277.78125 176.929688 278.042969 176.671875 C 278.300781 176.410156 278.585938 176.179688 278.890625 175.976562 C 279.195312 175.773438 279.515625 175.597656 279.855469 175.457031 C 280.195312 175.320312 280.542969 175.210938 280.90625 175.140625 C 281.265625 175.070312 281.628906 175.035156 281.996094 175.035156 C 282.363281 175.035156 282.726562 175.070312 283.085938 175.140625 C 283.445312 175.210938 283.796875 175.320312 284.132812 175.457031 C 284.472656 175.597656 284.796875 175.773438 285.101562 175.976562 C 285.40625 176.179688 285.6875 176.410156 285.949219 176.671875 C 286.207031 176.929688 286.4375 177.210938 286.644531 177.519531 C 286.847656 177.824219 287.019531 178.144531 287.160156 178.484375 C 287.300781 178.824219 287.40625 179.171875 287.476562 179.53125 C 287.550781 179.894531 287.585938 180.257812 287.585938 180.625 Z M 288.285156 163.855469 L 208.1875 163.855469 C 207.820312 163.855469 207.457031 163.816406 207.097656 163.746094 C 206.734375 163.675781 206.386719 163.570312 206.046875 163.429688 C 205.707031 163.289062 205.386719 163.117188 205.082031 162.910156 C 204.777344 162.707031 204.492188 162.476562 204.234375 162.214844 C 203.976562 161.957031 203.742188 161.675781 203.539062 161.371094 C 203.335938 161.0625 203.164062 160.742188 203.023438 160.402344 C 202.882812 160.0625 202.777344 159.714844 202.703125 159.355469 C 202.632812 158.996094 202.597656 158.632812 202.597656 158.265625 C 202.597656 157.898438 202.632812 157.535156 202.703125 157.171875 C 202.777344 156.8125 202.882812 156.464844 203.023438 156.125 C 203.164062 155.785156 203.335938 155.464844 203.539062 155.160156 C 203.742188 154.851562 203.976562 154.570312 204.234375 154.3125 C 204.492188 154.050781 204.777344 153.820312 205.082031 153.617188 C 205.386719 153.414062 205.707031 153.238281 206.046875 153.097656 C 206.386719 152.960938 206.734375 152.851562 207.097656 152.78125 C 207.457031 152.710938 207.820312 152.675781 208.1875 152.675781 L 288.285156 152.675781 C 288.652344 152.675781 289.015625 152.710938 289.375 152.78125 C 289.734375 152.851562 290.082031 152.960938 290.421875 153.097656 C 290.761719 153.238281 291.085938 153.414062 291.390625 153.617188 C 291.695312 153.820312 291.976562 154.050781 292.234375 154.3125 C 292.496094 154.570312 292.726562 154.851562 292.929688 155.160156 C 293.136719 155.464844 293.308594 155.785156 293.449219 156.125 C 293.589844 156.464844 293.695312 156.8125 293.765625 157.171875 C 293.835938 157.535156 293.875 157.898438 293.875 158.265625 C 293.875 158.632812 293.835938 158.996094 293.765625 159.355469 C 293.695312 159.714844 293.589844 160.0625 293.449219 160.402344 C 293.308594 160.742188 293.136719 161.0625 292.929688 161.371094 C 292.726562 161.675781 292.496094 161.957031 292.234375 162.214844 C 291.976562 162.476562 291.695312 162.707031 291.390625 162.910156 C 291.085938 163.117188 290.761719 163.289062 290.421875 163.429688 C 290.082031 163.570312 289.734375 163.675781 289.375 163.746094 C 289.015625 163.816406 288.652344 163.855469 288.285156 163.855469 Z M 288.285156 147.882812 L 208.1875 147.882812 C 207.820312 147.882812 207.457031 147.847656 207.097656 147.777344 C 206.734375 147.703125 206.386719 147.597656 206.046875 147.457031 C 205.707031 147.316406 205.386719 147.144531 205.082031 146.941406 C 204.777344 146.738281 204.492188 146.503906 204.234375 146.246094 C 203.976562 145.988281 203.742188 145.703125 203.539062 145.398438 C 203.335938 145.09375 203.164062 144.773438 203.023438 144.433594 C 202.882812 144.09375 202.777344 143.746094 202.703125 143.382812 C 202.632812 143.023438 202.597656 142.660156 202.597656 142.292969 C 202.597656 141.925781 202.632812 141.5625 202.703125 141.203125 C 202.777344 140.84375 202.882812 140.492188 203.023438 140.15625 C 203.164062 139.816406 203.335938 139.492188 203.539062 139.1875 C 203.742188 138.882812 203.976562 138.601562 204.234375 138.339844 C 204.492188 138.082031 204.777344 137.851562 205.082031 137.644531 C 205.386719 137.441406 205.707031 137.269531 206.046875 137.128906 C 206.386719 136.988281 206.734375 136.882812 207.097656 136.8125 C 207.457031 136.738281 207.820312 136.703125 208.1875 136.703125 L 288.285156 136.703125 C 288.652344 136.703125 289.015625 136.738281 289.375 136.8125 C 289.734375 136.882812 290.082031 136.988281 290.421875 137.128906 C 290.761719 137.269531 291.085938 137.441406 291.390625 137.644531 C 291.695312 137.851562 291.976562 138.082031 292.234375 138.339844 C 292.496094 138.601562 292.726562 138.882812 292.929688 139.1875 C 293.136719 139.492188 293.308594 139.816406 293.449219 140.15625 C 293.589844 140.492188 293.695312 140.84375 293.765625 141.203125 C 293.835938 141.5625 293.875 141.925781 293.875 142.292969 C 293.875 142.660156 293.835938 143.023438 293.765625 143.382812 C 293.695312 143.746094 293.589844 144.09375 293.449219 144.433594 C 293.308594 144.773438 293.136719 145.09375 292.929688 145.398438 C 292.726562 145.703125 292.496094 145.988281 292.234375 146.246094 C 291.976562 146.503906 291.695312 146.738281 291.390625 146.941406 C 291.085938 147.144531 290.761719 147.316406 290.421875 147.457031 C 290.082031 147.597656 289.734375 147.703125 289.375 147.777344 C 289.015625 147.847656 288.652344 147.882812 288.285156 147.882812 Z M 288.285156 131.914062 L 208.1875 131.914062 C 207.820312 131.914062 207.457031 131.878906 207.097656 131.804688 C 206.734375 131.734375 206.386719 131.628906 206.046875 131.488281 C 205.707031 131.347656 205.386719 131.175781 205.082031 130.972656 C 204.777344 130.765625 204.492188 130.535156 204.234375 130.277344 C 203.976562 130.015625 203.742188 129.734375 203.539062 129.429688 C 203.335938 129.125 203.164062 128.800781 203.023438 128.460938 C 202.882812 128.125 202.777344 127.773438 202.703125 127.414062 C 202.632812 127.054688 202.597656 126.691406 202.597656 126.324219 C 202.597656 125.957031 202.632812 125.59375 202.703125 125.234375 C 202.777344 124.871094 202.882812 124.523438 203.023438 124.183594 C 203.164062 123.84375 203.335938 123.523438 203.539062 123.21875 C 203.742188 122.914062 203.976562 122.628906 204.234375 122.371094 C 204.492188 122.113281 204.777344 121.878906 205.082031 121.675781 C 205.386719 121.472656 205.707031 121.300781 206.046875 121.160156 C 206.386719 121.019531 206.734375 120.914062 207.097656 120.839844 C 207.457031 120.769531 207.820312 120.734375 208.1875 120.734375 L 288.285156 120.734375 C 288.652344 120.734375 289.015625 120.769531 289.375 120.839844 C 289.734375 120.914062 290.082031 121.019531 290.421875 121.160156 C 290.761719 121.300781 291.085938 121.472656 291.390625 121.675781 C 291.695312 121.878906 291.976562 122.113281 292.234375 122.371094 C 292.496094 122.628906 292.726562 122.914062 292.929688 123.21875 C 293.136719 123.523438 293.308594 123.84375 293.449219 124.183594 C 293.589844 124.523438 293.695312 124.871094 293.765625 125.234375 C 293.835938 125.59375 293.875 125.957031 293.875 126.324219 C 293.875 126.691406 293.835938 127.054688 293.765625 127.414062 C 293.695312 127.773438 293.589844 128.125 293.449219 128.460938 C 293.308594 128.800781 293.136719 129.125 292.929688 129.429688 C 292.726562 129.734375 292.496094 130.015625 292.234375 130.277344 C 291.976562 130.535156 291.695312 130.765625 291.390625 130.972656 C 291.085938 131.175781 290.761719 131.347656 290.421875 131.488281 C 290.082031 131.628906 289.734375 131.734375 289.375 131.804688 C 289.015625 131.878906 288.652344 131.914062 288.285156 131.914062 Z M 288.285156 115.941406 L 208.1875 115.941406 C 207.820312 115.941406 207.457031 115.90625 207.097656 115.835938 C 206.734375 115.765625 206.386719 115.65625 206.046875 115.519531 C 205.707031 115.378906 205.386719 115.203125 205.082031 115 C 204.777344 114.796875 204.492188 114.566406 204.234375 114.304688 C 203.976562 114.046875 203.742188 113.765625 203.539062 113.457031 C 203.335938 113.152344 203.164062 112.832031 203.023438 112.492188 C 202.882812 112.152344 202.777344 111.804688 202.703125 111.445312 C 202.632812 111.082031 202.597656 110.71875 202.597656 110.351562 C 202.597656 109.984375 202.632812 109.621094 202.703125 109.261719 C 202.777344 108.902344 202.882812 108.554688 203.023438 108.214844 C 203.164062 107.875 203.335938 107.554688 203.539062 107.246094 C 203.742188 106.941406 203.976562 106.660156 204.234375 106.402344 C 204.492188 106.140625 204.777344 105.910156 205.082031 105.707031 C 205.386719 105.5 205.707031 105.328125 206.046875 105.1875 C 206.386719 105.046875 206.734375 104.941406 207.097656 104.871094 C 207.457031 104.800781 207.820312 104.761719 208.1875 104.761719 L 288.285156 104.761719 C 288.652344 104.761719 289.015625 104.800781 289.375 104.871094 C 289.734375 104.941406 290.082031 105.046875 290.421875 105.1875 C 290.761719 105.328125 291.085938 105.5 291.390625 105.707031 C 291.695312 105.910156 291.976562 106.140625 292.234375 106.402344 C 292.496094 106.660156 292.726562 106.941406 292.929688 107.246094 C 293.136719 107.554688 293.308594 107.875 293.449219 108.214844 C 293.589844 108.554688 293.695312 108.902344 293.765625 109.261719 C 293.835938 109.621094 293.875 109.984375 293.875 110.351562 C 293.875 110.71875 293.835938 111.082031 293.765625 111.445312 C 293.695312 111.804688 293.589844 112.152344 293.449219 112.492188 C 293.308594 112.832031 293.136719 113.152344 292.929688 113.457031 C 292.726562 113.765625 292.496094 114.046875 292.234375 114.304688 C 291.976562 114.566406 291.695312 114.796875 291.390625 115 C 291.085938 115.203125 290.761719 115.378906 290.421875 115.519531 C 290.082031 115.65625 289.734375 115.765625 289.375 115.835938 C 289.015625 115.90625 288.652344 115.941406 288.285156 115.941406 Z M 288.285156 115.941406 " fill-opacity="1" fill-rule="nonzero"/><path fill="#2c3b73" d="M 298.421875 52.085938 L 86.007812 52.085938 L 86.007812 72.84375 L 298.421875 72.84375 Z M 112.359375 68.054688 L 96.390625 68.054688 C 96.023438 68.054688 95.660156 68.019531 95.300781 67.949219 C 94.9375 67.875 94.589844 67.769531 94.25 67.628906 C 93.910156 67.488281 93.589844 67.316406 93.285156 67.113281 C 92.980469 66.910156 92.695312 66.675781 92.4375 66.417969 C 92.179688 66.160156 91.945312 65.875 91.742188 65.570312 C 91.539062 65.265625 91.367188 64.945312 91.226562 64.605469 C 91.085938 64.265625 90.980469 63.914062 90.90625 63.554688 C 90.835938 63.195312 90.800781 62.832031 90.800781 62.464844 C 90.800781 62.097656 90.835938 61.734375 90.90625 61.375 C 90.980469 61.015625 91.085938 60.664062 91.226562 60.324219 C 91.367188 59.988281 91.539062 59.664062 91.742188 59.359375 C 91.945312 59.054688 92.179688 58.773438 92.4375 58.511719 C 92.695312 58.253906 92.980469 58.019531 93.285156 57.816406 C 93.589844 57.613281 93.910156 57.441406 94.25 57.300781 C 94.589844 57.160156 94.9375 57.054688 95.300781 56.984375 C 95.660156 56.910156 96.023438 56.875 96.390625 56.875 L 112.359375 56.875 C 112.726562 56.875 113.089844 56.910156 113.449219 56.984375 C 113.8125 57.054688 114.160156 57.160156 114.5 57.300781 C 114.839844 57.441406 115.160156 57.613281 115.464844 57.816406 C 115.769531 58.019531 116.054688 58.253906 116.3125 58.511719 C 116.570312 58.773438 116.804688 59.054688 117.007812 59.359375 C 117.210938 59.664062 117.382812 59.988281 117.523438 60.324219 C 117.664062 60.664062 117.769531 61.015625 117.84375 61.375 C 117.914062 61.734375 117.949219 62.097656 117.949219 62.464844 C 117.949219 62.832031 117.914062 63.195312 117.84375 63.554688 C 117.769531 63.914062 117.664062 64.265625 117.523438 64.605469 C 117.382812 64.945312 117.210938 65.265625 117.007812 65.570312 C 116.804688 65.875 116.570312 66.160156 116.3125 66.417969 C 116.054688 66.675781 115.769531 66.910156 115.464844 67.113281 C 115.160156 67.316406 114.839844 67.488281 114.5 67.628906 C 114.160156 67.769531 113.8125 67.875 113.449219 67.949219 C 113.089844 68.019531 112.726562 68.054688 112.359375 68.054688 Z M 144.304688 68.054688 L 128.332031 68.054688 C 127.964844 68.054688 127.601562 68.019531 127.238281 67.949219 C 126.878906 67.875 126.53125 67.769531 126.191406 67.628906 C 125.851562 67.488281 125.53125 67.316406 125.226562 67.113281 C 124.917969 66.910156 124.636719 66.675781 124.378906 66.417969 C 124.117188 66.160156 123.886719 65.875 123.683594 65.570312 C 123.480469 65.265625 123.304688 64.945312 123.164062 64.605469 C 123.027344 64.265625 122.917969 63.914062 122.847656 63.554688 C 122.777344 63.195312 122.742188 62.832031 122.742188 62.464844 C 122.742188 62.097656 122.777344 61.734375 122.847656 61.375 C 122.917969 61.015625 123.027344 60.664062 123.164062 60.324219 C 123.304688 59.988281 123.480469 59.664062 123.683594 59.359375 C 123.886719 59.054688 124.117188 58.773438 124.378906 58.511719 C 124.636719 58.253906 124.917969 58.019531 125.226562 57.816406 C 125.53125 57.613281 125.851562 57.441406 126.191406 57.300781 C 126.53125 57.160156 126.878906 57.054688 127.238281 56.984375 C 127.601562 56.910156 127.964844 56.875 128.332031 56.875 L 144.304688 56.875 C 144.671875 56.875 145.035156 56.910156 145.398438 56.984375 C 145.757812 57.054688 146.105469 57.160156 146.445312 57.300781 C 146.785156 57.441406 147.105469 57.613281 147.410156 57.816406 C 147.714844 58.019531 148 58.253906 148.257812 58.511719 C 148.519531 58.773438 148.75 59.054688 148.953125 59.359375 C 149.15625 59.664062 149.328125 59.988281 149.46875 60.324219 C 149.609375 60.664062 149.71875 61.015625 149.789062 61.375 C 149.859375 61.734375 149.894531 62.097656 149.894531 62.464844 C 149.894531 62.832031 149.859375 63.195312 149.789062 63.554688 C 149.71875 63.914062 149.609375 64.265625 149.46875 64.605469 C 149.328125 64.945312 149.15625 65.265625 148.953125 65.570312 C 148.75 65.875 148.519531 66.160156 148.257812 66.417969 C 148 66.675781 147.714844 66.910156 147.410156 67.113281 C 147.105469 67.316406 146.785156 67.488281 146.445312 67.628906 C 146.105469 67.769531 145.757812 67.875 145.398438 67.949219 C 145.035156 68.019531 144.671875 68.054688 144.304688 68.054688 Z M 176.246094 68.054688 L 160.277344 68.054688 C 159.910156 68.054688 159.546875 68.019531 159.1875 67.949219 C 158.824219 67.875 158.476562 67.769531 158.136719 67.628906 C 157.796875 67.488281 157.476562 67.316406 157.171875 67.113281 C 156.867188 66.910156 156.582031 66.675781 156.324219 66.417969 C 156.0625 66.160156 155.832031 65.875 155.628906 65.570312 C 155.425781 65.265625 155.253906 64.945312 155.113281 64.605469 C 154.972656 64.265625 154.867188 63.914062 154.792969 63.554688 C 154.722656 63.195312 154.6875 62.832031 154.6875 62.464844 C 154.6875 62.097656 154.722656 61.734375 154.792969 61.375 C 154.867188 61.015625 154.972656 60.664062 155.113281 60.324219 C 155.253906 59.988281 155.425781 59.664062 155.628906 59.359375 C 155.832031 59.054688 156.0625 58.773438 156.324219 58.511719 C 156.582031 58.253906 156.867188 58.019531 157.171875 57.816406 C 157.476562 57.613281 157.796875 57.441406 158.136719 57.300781 C 158.476562 57.160156 158.824219 57.054688 159.1875 56.984375 C 159.546875 56.910156 159.910156 56.875 160.277344 56.875 L 176.222656 56.875 C 176.589844 56.875 176.953125 56.910156 177.316406 56.984375 C 177.675781 57.054688 178.023438 57.160156 178.363281 57.300781 C 178.703125 57.441406 179.023438 57.613281 179.328125 57.816406 C 179.636719 58.019531 179.917969 58.253906 180.175781 58.511719 C 180.4375 58.773438 180.667969 59.054688 180.871094 59.359375 C 181.074219 59.664062 181.246094 59.988281 181.386719 60.324219 C 181.527344 60.664062 181.636719 61.015625 181.707031 61.375 C 181.777344 61.734375 181.8125 62.097656 181.8125 62.464844 C 181.8125 62.832031 181.777344 63.195312 181.707031 63.554688 C 181.636719 63.914062 181.527344 64.265625 181.386719 64.605469 C 181.246094 64.945312 181.074219 65.265625 180.871094 65.570312 C 180.667969 65.875 180.4375 66.160156 180.175781 66.417969 C 179.917969 66.675781 179.636719 66.910156 179.328125 67.113281 C 179.023438 67.316406 178.703125 67.488281 178.363281 67.628906 C 178.023438 67.769531 177.675781 67.875 177.316406 67.949219 C 176.953125 68.019531 176.589844 68.054688 176.222656 68.054688 Z M 176.246094 68.054688 " fill-opacity="1" fill-rule="nonzero"/><path fill="#000000" d="M 348.390625 286.949219 L 342.800781 286.949219 L 342.800781 91.304688 C 342.800781 90.9375 342.765625 90.574219 342.695312 90.210938 C 342.621094 89.851562 342.515625 89.503906 342.375 89.164062 C 342.234375 88.824219 342.0625 88.503906 341.859375 88.199219 C 341.65625 87.890625 341.421875 87.609375 341.164062 87.351562 C 340.90625 87.089844 340.621094 86.859375 340.316406 86.65625 C 340.011719 86.453125 339.691406 86.277344 339.351562 86.140625 C 339.011719 86 338.660156 85.890625 338.300781 85.820312 C 337.941406 85.75 337.578125 85.714844 337.210938 85.714844 L 309.601562 85.714844 L 309.601562 46.496094 C 309.601562 46.128906 309.566406 45.765625 309.496094 45.40625 C 309.425781 45.042969 309.316406 44.695312 309.179688 44.355469 C 309.039062 44.015625 308.863281 43.695312 308.660156 43.390625 C 308.457031 43.085938 308.226562 42.800781 307.964844 42.542969 C 307.707031 42.28125 307.425781 42.050781 307.117188 41.847656 C 306.8125 41.644531 306.492188 41.472656 306.152344 41.332031 C 305.8125 41.191406 305.464844 41.085938 305.105469 41.011719 C 304.742188 40.941406 304.378906 40.90625 304.011719 40.90625 L 80.417969 40.90625 C 80.050781 40.90625 79.6875 40.941406 79.328125 41.011719 C 78.96875 41.085938 78.621094 41.191406 78.28125 41.332031 C 77.941406 41.472656 77.621094 41.644531 77.3125 41.847656 C 77.007812 42.050781 76.726562 42.28125 76.46875 42.542969 C 76.207031 42.800781 75.976562 43.085938 75.773438 43.390625 C 75.566406 43.695312 75.394531 44.015625 75.253906 44.355469 C 75.113281 44.695312 75.007812 45.042969 74.9375 45.40625 C 74.867188 45.765625 74.828125 46.128906 74.828125 46.496094 L 74.828125 85.714844 L 46.539062 85.714844 C 46.171875 85.714844 45.808594 85.75 45.449219 85.820312 C 45.089844 85.890625 44.738281 86 44.402344 86.140625 C 44.0625 86.277344 43.738281 86.453125 43.433594 86.65625 C 43.128906 86.859375 42.847656 87.089844 42.585938 87.351562 C 42.328125 87.609375 42.097656 87.890625 41.890625 88.199219 C 41.6875 88.503906 41.515625 88.824219 41.375 89.164062 C 41.234375 89.503906 41.128906 89.851562 41.058594 90.210938 C 40.984375 90.574219 40.949219 90.9375 40.949219 91.304688 L 40.949219 286.949219 L 35.359375 286.949219 C 34.992188 286.949219 34.628906 286.984375 34.269531 287.054688 C 33.910156 287.125 33.558594 287.234375 33.222656 287.375 C 32.882812 287.511719 32.558594 287.6875 32.253906 287.890625 C 31.949219 288.09375 31.667969 288.324219 31.40625 288.585938 C 31.148438 288.84375 30.917969 289.125 30.710938 289.433594 C 30.507812 289.738281 30.335938 290.058594 30.195312 290.398438 C 30.054688 290.738281 29.949219 291.085938 29.878906 291.445312 C 29.804688 291.808594 29.769531 292.171875 29.769531 292.539062 C 29.769531 294.183594 29.851562 295.828125 30.011719 297.46875 C 30.175781 299.109375 30.414062 300.734375 30.738281 302.351562 C 31.058594 303.96875 31.457031 305.566406 31.9375 307.140625 C 32.414062 308.71875 32.96875 310.265625 33.601562 311.789062 C 34.230469 313.3125 34.933594 314.800781 35.710938 316.253906 C 36.488281 317.707031 37.332031 319.117188 38.25 320.488281 C 39.164062 321.859375 40.144531 323.179688 41.191406 324.453125 C 42.234375 325.726562 43.339844 326.945312 44.503906 328.109375 C 45.671875 329.277344 46.890625 330.382812 48.164062 331.425781 C 49.4375 332.472656 50.757812 333.453125 52.128906 334.367188 C 53.5 335.28125 54.910156 336.128906 56.363281 336.90625 C 57.816406 337.683594 59.304688 338.386719 60.828125 339.015625 C 62.347656 339.648438 63.898438 340.203125 65.476562 340.679688 C 67.050781 341.15625 68.648438 341.558594 70.265625 341.878906 C 71.878906 342.199219 73.507812 342.441406 75.148438 342.605469 C 76.789062 342.765625 78.429688 342.847656 80.078125 342.847656 L 303.671875 342.847656 C 305.320312 342.847656 306.964844 342.765625 308.605469 342.605469 C 310.242188 342.441406 311.871094 342.199219 313.488281 341.878906 C 315.101562 341.558594 316.699219 341.15625 318.277344 340.679688 C 319.851562 340.203125 321.402344 339.648438 322.925781 339.015625 C 324.445312 338.386719 325.933594 337.683594 327.386719 336.90625 C 328.839844 336.128906 330.253906 335.28125 331.621094 334.367188 C 332.992188 333.453125 334.3125 332.472656 335.589844 331.425781 C 336.863281 330.382812 338.082031 329.277344 339.246094 328.109375 C 340.410156 326.945312 341.515625 325.726562 342.5625 324.453125 C 343.605469 323.179688 344.585938 321.859375 345.503906 320.488281 C 346.417969 319.117188 347.265625 317.707031 348.039062 316.253906 C 348.816406 314.800781 349.519531 313.3125 350.152344 311.789062 C 350.78125 310.265625 351.335938 308.71875 351.816406 307.140625 C 352.292969 305.566406 352.691406 303.96875 353.015625 302.351562 C 353.335938 300.734375 353.578125 299.109375 353.738281 297.46875 C 353.898438 295.828125 353.980469 294.183594 353.980469 292.539062 C 353.980469 292.171875 353.945312 291.808594 353.875 291.445312 C 353.800781 291.085938 353.695312 290.738281 353.554688 290.398438 C 353.414062 290.058594 353.242188 289.738281 353.039062 289.433594 C 352.835938 289.125 352.601562 288.84375 352.34375 288.585938 C 352.085938 288.324219 351.800781 288.09375 351.496094 287.890625 C 351.191406 287.6875 350.871094 287.511719 350.53125 287.375 C 350.191406 287.234375 349.839844 287.125 349.480469 287.054688 C 349.121094 286.984375 348.757812 286.949219 348.390625 286.949219 Z M 303.671875 331.667969 L 80.078125 331.667969 C 78.914062 331.664062 77.753906 331.613281 76.59375 331.507812 C 75.433594 331.40625 74.28125 331.25 73.136719 331.042969 C 71.988281 330.835938 70.855469 330.578125 69.730469 330.269531 C 68.609375 329.960938 67.503906 329.601562 66.410156 329.195312 C 65.320312 328.789062 64.25 328.332031 63.199219 327.832031 C 62.148438 327.328125 61.125 326.78125 60.121094 326.1875 C 59.121094 325.59375 58.148438 324.953125 57.203125 324.273438 C 56.257812 323.59375 55.347656 322.871094 54.46875 322.109375 C 53.585938 321.347656 52.742188 320.546875 51.933594 319.710938 C 51.125 318.871094 50.355469 318 49.625 317.09375 C 48.894531 316.1875 48.203125 315.25 47.554688 314.285156 C 46.910156 313.316406 46.304688 312.320312 45.746094 311.300781 C 45.1875 310.277344 44.675781 309.234375 44.210938 308.167969 C 43.742188 307.101562 43.328125 306.015625 42.957031 304.910156 C 42.589844 303.804688 42.269531 302.6875 42 301.554688 C 41.730469 300.421875 41.515625 299.28125 41.347656 298.128906 L 163.925781 298.128906 L 163.925781 314.898438 C 163.925781 315.265625 163.960938 315.628906 164.035156 315.988281 C 164.105469 316.347656 164.210938 316.695312 164.351562 317.035156 C 164.492188 317.375 164.664062 317.695312 164.867188 318.003906 C 165.074219 318.308594 165.304688 318.589844 165.5625 318.847656 C 165.824219 319.109375 166.105469 319.339844 166.410156 319.542969 C 166.714844 319.75 167.039062 319.921875 167.378906 320.0625 C 167.714844 320.203125 168.066406 320.308594 168.425781 320.378906 C 168.785156 320.449219 169.148438 320.488281 169.515625 320.488281 L 214.234375 320.488281 C 214.601562 320.488281 214.964844 320.449219 215.324219 320.378906 C 215.683594 320.308594 216.035156 320.203125 216.375 320.0625 C 216.714844 319.921875 217.035156 319.75 217.339844 319.542969 C 217.644531 319.339844 217.929688 319.109375 218.1875 318.847656 C 218.445312 318.589844 218.679688 318.308594 218.882812 318.003906 C 219.085938 317.695312 219.257812 317.375 219.398438 317.035156 C 219.539062 316.695312 219.644531 316.347656 219.71875 315.988281 C 219.789062 315.628906 219.824219 315.265625 219.824219 314.898438 L 219.824219 298.128906 L 342.40625 298.128906 C 342.238281 299.28125 342.019531 300.421875 341.753906 301.554688 C 341.484375 302.6875 341.164062 303.808594 340.796875 304.914062 C 340.429688 306.015625 340.011719 307.105469 339.546875 308.171875 C 339.082031 309.238281 338.570312 310.285156 338.011719 311.304688 C 337.453125 312.328125 336.851562 313.320312 336.203125 314.289062 C 335.554688 315.257812 334.867188 316.195312 334.136719 317.101562 C 333.402344 318.007812 332.632812 318.878906 331.824219 319.71875 C 331.015625 320.554688 330.171875 321.355469 329.292969 322.117188 C 328.410156 322.878906 327.5 323.601562 326.554688 324.28125 C 325.609375 324.964844 324.636719 325.601562 323.632812 326.195312 C 322.632812 326.789062 321.605469 327.335938 320.554688 327.839844 C 319.503906 328.339844 318.433594 328.796875 317.34375 329.203125 C 316.25 329.609375 315.144531 329.964844 314.023438 330.273438 C 312.898438 330.582031 311.765625 330.839844 310.617188 331.046875 C 309.472656 331.253906 308.320312 331.40625 307.160156 331.511719 C 306 331.613281 304.835938 331.667969 303.671875 331.667969 Z M 86.007812 84.035156 L 298.421875 84.035156 L 298.421875 264.5 L 86.007812 264.5 Z M 86.007812 52.097656 L 298.421875 52.097656 L 298.421875 72.855469 L 86.007812 72.855469 Z M 52.128906 96.894531 L 74.828125 96.894531 L 74.828125 270.089844 C 74.828125 270.457031 74.867188 270.820312 74.9375 271.179688 C 75.007812 271.539062 75.113281 271.890625 75.253906 272.226562 C 75.394531 272.566406 75.566406 272.890625 75.773438 273.195312 C 75.976562 273.5 76.207031 273.78125 76.46875 274.042969 C 76.726562 274.300781 77.007812 274.53125 77.3125 274.738281 C 77.621094 274.941406 77.941406 275.113281 78.28125 275.253906 C 78.621094 275.394531 78.96875 275.5 79.328125 275.570312 C 79.6875 275.644531 80.050781 275.679688 80.417969 275.679688 L 304.011719 275.679688 C 304.378906 275.679688 304.742188 275.644531 305.105469 275.570312 C 305.464844 275.5 305.8125 275.394531 306.152344 275.253906 C 306.492188 275.113281 306.8125 274.941406 307.117188 274.738281 C 307.425781 274.53125 307.707031 274.300781 307.964844 274.042969 C 308.226562 273.78125 308.457031 273.5 308.660156 273.195312 C 308.863281 272.890625 309.039062 272.566406 309.179688 272.226562 C 309.316406 271.890625 309.425781 271.539062 309.496094 271.179688 C 309.566406 270.820312 309.601562 270.457031 309.601562 270.089844 L 309.601562 96.894531 L 331.621094 96.894531 L 331.621094 286.949219 L 52.128906 286.949219 Z M 175.105469 298.128906 L 208.644531 298.128906 L 208.644531 309.308594 L 175.105469 309.308594 Z M 175.105469 298.128906 " fill-opacity="1" fill-rule="nonzero"/><path fill="#d8d8fc" d="M 112.359375 56.875 L 96.390625 56.875 C 96.023438 56.875 95.660156 56.910156 95.300781 56.984375 C 94.9375 57.054688 94.589844 57.160156 94.25 57.300781 C 93.910156 57.441406 93.589844 57.613281 93.285156 57.816406 C 92.980469 58.019531 92.695312 58.253906 92.4375 58.511719 C 92.179688 58.773438 91.945312 59.054688 91.742188 59.359375 C 91.539062 59.664062 91.367188 59.988281 91.226562 60.324219 C 91.085938 60.664062 90.980469 61.015625 90.90625 61.375 C 90.835938 61.734375 90.800781 62.097656 90.800781 62.464844 C 90.800781 62.832031 90.835938 63.195312 90.90625 63.554688 C 90.980469 63.914062 91.085938 64.265625 91.226562 64.605469 C 91.367188 64.945312 91.539062 65.265625 91.742188 65.570312 C 91.945312 65.875 92.179688 66.160156 92.4375 66.417969 C 92.695312 66.675781 92.980469 66.910156 93.285156 67.113281 C 93.589844 67.316406 93.910156 67.488281 94.25 67.628906 C 94.589844 67.769531 94.9375 67.875 95.300781 67.949219 C 95.660156 68.019531 96.023438 68.054688 96.390625 68.054688 L 112.359375 68.054688 C 112.726562 68.054688 113.089844 68.019531 113.449219 67.949219 C 113.8125 67.875 114.160156 67.769531 114.5 67.628906 C 114.839844 67.488281 115.160156 67.316406 115.464844 67.113281 C 115.769531 66.910156 116.054688 66.675781 116.3125 66.417969 C 116.570312 66.160156 116.804688 65.875 117.007812 65.570312 C 117.210938 65.265625 117.382812 64.945312 117.523438 64.605469 C 117.664062 64.265625 117.769531 63.914062 117.84375 63.554688 C 117.914062 63.195312 117.949219 62.832031 117.949219 62.464844 C 117.949219 62.097656 117.914062 61.734375 117.84375 61.375 C 117.769531 61.015625 117.664062 60.664062 117.523438 60.324219 C 117.382812 59.988281 117.210938 59.664062 117.007812 59.359375 C 116.804688 59.054688 116.570312 58.773438 116.3125 58.511719 C 116.054688 58.253906 115.769531 58.019531 115.464844 57.816406 C 115.160156 57.613281 114.839844 57.441406 114.5 57.300781 C 114.160156 57.160156 113.8125 57.054688 113.449219 56.984375 C 113.089844 56.910156 112.726562 56.875 112.359375 56.875 Z M 112.359375 56.875 " fill-opacity="1" fill-rule="nonzero"/><path fill="#d8d8fc" d="M 144.304688 56.875 L 128.332031 56.875 C 127.964844 56.875 127.601562 56.910156 127.238281 56.984375 C 126.878906 57.054688 126.53125 57.160156 126.191406 57.300781 C 125.851562 57.441406 125.53125 57.613281 125.226562 57.816406 C 124.917969 58.019531 124.636719 58.253906 124.378906 58.511719 C 124.117188 58.773438 123.886719 59.054688 123.683594 59.359375 C 123.480469 59.664062 123.304688 59.988281 123.164062 60.324219 C 123.027344 60.664062 122.917969 61.015625 122.847656 61.375 C 122.777344 61.734375 122.742188 62.097656 122.742188 62.464844 C 122.742188 62.832031 122.777344 63.195312 122.847656 63.554688 C 122.917969 63.914062 123.027344 64.265625 123.164062 64.605469 C 123.304688 64.945312 123.480469 65.265625 123.683594 65.570312 C 123.886719 65.875 124.117188 66.160156 124.378906 66.417969 C 124.636719 66.675781 124.917969 66.910156 125.226562 67.113281 C 125.53125 67.316406 125.851562 67.488281 126.191406 67.628906 C 126.53125 67.769531 126.878906 67.875 127.238281 67.949219 C 127.601562 68.019531 127.964844 68.054688 128.332031 68.054688 L 144.304688 68.054688 C 144.671875 68.054688 145.035156 68.019531 145.398438 67.949219 C 145.757812 67.875 146.105469 67.769531 146.445312 67.628906 C 146.785156 67.488281 147.105469 67.316406 147.410156 67.113281 C 147.714844 66.910156 148 66.675781 148.257812 66.417969 C 148.519531 66.160156 148.75 65.875 148.953125 65.570312 C 149.15625 65.265625 149.328125 64.945312 149.46875 64.605469 C 149.609375 64.265625 149.71875 63.914062 149.789062 63.554688 C 149.859375 63.195312 149.894531 62.832031 149.894531 62.464844 C 149.894531 62.097656 149.859375 61.734375 149.789062 61.375 C 149.71875 61.015625 149.609375 60.664062 149.46875 60.324219 C 149.328125 59.988281 149.15625 59.664062 148.953125 59.359375 C 148.75 59.054688 148.519531 58.773438 148.257812 58.511719 C 148 58.253906 147.714844 58.019531 147.410156 57.816406 C 147.105469 57.613281 146.785156 57.441406 146.445312 57.300781 C 146.105469 57.160156 145.757812 57.054688 145.398438 56.984375 C 145.035156 56.910156 144.671875 56.875 144.304688 56.875 Z M 144.304688 56.875 " fill-opacity="1" fill-rule="nonzero"/><path fill="#d8d8fc" d="M 176.222656 56.875 L 160.277344 56.875 C 159.910156 56.875 159.546875 56.910156 159.1875 56.984375 C 158.824219 57.054688 158.476562 57.160156 158.136719 57.300781 C 157.796875 57.441406 157.476562 57.613281 157.171875 57.816406 C 156.867188 58.019531 156.582031 58.253906 156.324219 58.511719 C 156.0625 58.773438 155.832031 59.054688 155.628906 59.359375 C 155.425781 59.664062 155.253906 59.988281 155.113281 60.324219 C 154.972656 60.664062 154.867188 61.015625 154.792969 61.375 C 154.722656 61.734375 154.6875 62.097656 154.6875 62.464844 C 154.6875 62.832031 154.722656 63.195312 154.792969 63.554688 C 154.867188 63.914062 154.972656 64.265625 155.113281 64.605469 C 155.253906 64.945312 155.425781 65.265625 155.628906 65.570312 C 155.832031 65.875 156.0625 66.160156 156.324219 66.417969 C 156.582031 66.675781 156.867188 66.910156 157.171875 67.113281 C 157.476562 67.316406 157.796875 67.488281 158.136719 67.628906 C 158.476562 67.769531 158.824219 67.875 159.1875 67.949219 C 159.546875 68.019531 159.910156 68.054688 160.277344 68.054688 L 176.222656 68.054688 C 176.589844 68.054688 176.953125 68.019531 177.316406 67.949219 C 177.675781 67.875 178.023438 67.769531 178.363281 67.628906 C 178.703125 67.488281 179.023438 67.316406 179.328125 67.113281 C 179.636719 66.910156 179.917969 66.675781 180.175781 66.417969 C 180.4375 66.160156 180.667969 65.875 180.871094 65.570312 C 181.074219 65.265625 181.246094 64.945312 181.386719 64.605469 C 181.527344 64.265625 181.636719 63.914062 181.707031 63.554688 C 181.777344 63.195312 181.8125 62.832031 181.8125 62.464844 C 181.8125 62.097656 181.777344 61.734375 181.707031 61.375 C 181.636719 61.015625 181.527344 60.664062 181.386719 60.324219 C 181.246094 59.988281 181.074219 59.664062 180.871094 59.359375 C 180.667969 59.054688 180.4375 58.773438 180.175781 58.511719 C 179.917969 58.253906 179.636719 58.019531 179.328125 57.816406 C 179.023438 57.613281 178.703125 57.441406 178.363281 57.300781 C 178.023438 57.160156 177.675781 57.054688 177.316406 56.984375 C 176.953125 56.910156 176.589844 56.875 176.222656 56.875 Z M 176.222656 56.875 " fill-opacity="1" fill-rule="nonzero"/><path fill="#fdbf00" d="M 138.402344 184.574219 C 139.46875 184.574219 140.53125 184.527344 141.589844 184.433594 C 142.648438 184.335938 143.703125 184.195312 144.75 184.007812 C 145.796875 183.820312 146.835938 183.585938 147.863281 183.308594 C 148.890625 183.027344 149.902344 182.703125 150.898438 182.335938 C 151.898438 181.964844 152.878906 181.554688 153.839844 181.097656 C 154.800781 180.640625 155.742188 180.144531 156.660156 179.605469 C 157.578125 179.066406 158.46875 178.488281 159.335938 177.871094 C 160.203125 177.253906 161.039062 176.597656 161.847656 175.90625 C 162.65625 175.214844 163.433594 174.488281 164.179688 173.730469 C 164.921875 172.96875 165.632812 172.175781 166.304688 171.351562 C 166.980469 170.53125 167.617188 169.679688 168.214844 168.800781 C 168.816406 167.917969 169.375 167.015625 169.894531 166.085938 C 170.414062 165.15625 170.890625 164.207031 171.324219 163.238281 C 171.761719 162.265625 172.152344 161.277344 172.5 160.269531 C 172.847656 159.265625 173.152344 158.246094 173.410156 157.214844 C 173.667969 156.179688 173.878906 155.140625 174.042969 154.089844 L 138.402344 154.089844 C 138.035156 154.089844 137.671875 154.050781 137.3125 153.980469 C 136.953125 153.910156 136.601562 153.804688 136.265625 153.664062 C 135.925781 153.523438 135.601562 153.351562 135.296875 153.144531 C 134.992188 152.941406 134.710938 152.710938 134.449219 152.449219 C 134.191406 152.191406 133.960938 151.910156 133.753906 151.605469 C 133.550781 151.296875 133.378906 150.976562 133.238281 150.636719 C 133.097656 150.296875 132.992188 149.949219 132.921875 149.589844 C 132.847656 149.230469 132.8125 148.867188 132.8125 148.5 L 132.8125 112.859375 C 131.703125 113.03125 130.605469 113.257812 129.515625 113.535156 C 128.429688 113.808594 127.355469 114.136719 126.296875 114.515625 C 125.238281 114.890625 124.203125 115.316406 123.183594 115.789062 C 122.164062 116.261719 121.171875 116.785156 120.203125 117.351562 C 119.234375 117.917969 118.292969 118.527344 117.378906 119.183594 C 116.46875 119.835938 115.585938 120.53125 114.738281 121.269531 C 113.890625 122.003906 113.082031 122.78125 112.304688 123.59375 C 111.53125 124.40625 110.792969 125.25 110.097656 126.132812 C 109.402344 127.011719 108.75 127.925781 108.136719 128.867188 C 107.527344 129.808594 106.960938 130.777344 106.441406 131.773438 C 105.917969 132.765625 105.445312 133.785156 105.019531 134.824219 C 104.59375 135.863281 104.21875 136.917969 103.890625 137.992188 C 103.566406 139.066406 103.289062 140.15625 103.0625 141.253906 C 102.835938 142.355469 102.664062 143.464844 102.542969 144.578125 C 102.417969 145.695312 102.351562 146.816406 102.332031 147.9375 C 102.316406 149.0625 102.351562 150.183594 102.4375 151.300781 C 102.523438 152.421875 102.664062 153.535156 102.855469 154.640625 C 103.046875 155.746094 103.289062 156.84375 103.582031 157.925781 C 103.875 159.011719 104.21875 160.078125 104.613281 161.128906 C 105.003906 162.183594 105.445312 163.214844 105.9375 164.222656 C 106.425781 165.234375 106.960938 166.21875 107.542969 167.179688 C 108.125 168.140625 108.75 169.074219 109.417969 169.976562 C 110.085938 170.878906 110.796875 171.746094 111.542969 172.582031 C 112.292969 173.417969 113.082031 174.21875 113.90625 174.980469 C 114.730469 175.742188 115.585938 176.464844 116.480469 177.148438 C 117.371094 177.832031 118.292969 178.46875 119.246094 179.066406 C 120.195312 179.664062 121.171875 180.214844 122.175781 180.71875 C 123.179688 181.222656 124.203125 181.679688 125.25 182.089844 C 126.292969 182.5 127.355469 182.859375 128.4375 183.171875 C 129.515625 183.480469 130.605469 183.738281 131.710938 183.949219 C 132.8125 184.15625 133.921875 184.3125 135.042969 184.417969 C 136.160156 184.523438 137.28125 184.574219 138.402344 184.574219 Z M 138.402344 184.574219 " fill-opacity="1" fill-rule="nonzero"/><path fill="#000000" d="M 138.402344 195.753906 C 139.949219 195.753906 141.492188 195.675781 143.035156 195.527344 C 144.574219 195.375 146.101562 195.144531 147.621094 194.84375 C 149.136719 194.539062 150.636719 194.164062 152.117188 193.714844 C 153.597656 193.265625 155.050781 192.746094 156.480469 192.152344 C 157.910156 191.558594 159.308594 190.898438 160.671875 190.167969 C 162.039062 189.4375 163.363281 188.644531 164.648438 187.785156 C 165.9375 186.925781 167.175781 186.003906 168.371094 185.023438 C 169.570312 184.039062 170.714844 183.003906 171.808594 181.910156 C 172.902344 180.816406 173.941406 179.667969 174.921875 178.472656 C 175.902344 177.277344 176.824219 176.035156 177.683594 174.75 C 178.542969 173.464844 179.339844 172.136719 180.066406 170.773438 C 180.796875 169.410156 181.457031 168.011719 182.050781 166.582031 C 182.644531 165.152344 183.164062 163.699219 183.613281 162.21875 C 184.0625 160.738281 184.441406 159.238281 184.742188 157.71875 C 185.046875 156.203125 185.273438 154.675781 185.425781 153.132812 C 185.578125 151.59375 185.652344 150.050781 185.652344 148.503906 C 185.652344 148.136719 185.617188 147.773438 185.546875 147.414062 C 185.476562 147.054688 185.367188 146.703125 185.230469 146.363281 C 185.089844 146.027344 184.914062 145.703125 184.710938 145.398438 C 184.507812 145.09375 184.277344 144.8125 184.015625 144.550781 C 183.757812 144.292969 183.476562 144.058594 183.167969 143.855469 C 182.863281 143.652344 182.542969 143.480469 182.203125 143.339844 C 181.863281 143.199219 181.515625 143.09375 181.15625 143.023438 C 180.792969 142.949219 180.429688 142.914062 180.0625 142.914062 L 143.992188 142.914062 L 143.992188 106.835938 C 143.992188 106.46875 143.957031 106.105469 143.886719 105.746094 C 143.8125 105.386719 143.707031 105.039062 143.566406 104.699219 C 143.425781 104.359375 143.253906 104.035156 143.050781 103.730469 C 142.847656 103.425781 142.617188 103.144531 142.355469 102.882812 C 142.097656 102.625 141.8125 102.394531 141.507812 102.191406 C 141.203125 101.984375 140.882812 101.8125 140.542969 101.671875 C 140.203125 101.53125 139.855469 101.425781 139.492188 101.355469 C 139.132812 101.285156 138.769531 101.246094 138.402344 101.246094 C 136.855469 101.246094 135.3125 101.324219 133.769531 101.472656 C 132.230469 101.625 130.699219 101.851562 129.183594 102.152344 C 127.664062 102.453125 126.164062 102.828125 124.683594 103.277344 C 123.199219 103.726562 121.746094 104.246094 120.316406 104.839844 C 118.882812 105.433594 117.488281 106.09375 116.121094 106.820312 C 114.757812 107.550781 113.429688 108.347656 112.140625 109.207031 C 110.855469 110.066406 109.613281 110.984375 108.417969 111.96875 C 107.21875 112.949219 106.074219 113.988281 104.980469 115.082031 C 103.882812 116.175781 102.847656 117.320312 101.863281 118.519531 C 100.882812 119.714844 99.960938 120.957031 99.101562 122.242188 C 98.238281 123.53125 97.445312 124.855469 96.714844 126.222656 C 95.984375 127.585938 95.324219 128.984375 94.730469 130.414062 C 94.140625 131.84375 93.617188 133.300781 93.167969 134.78125 C 92.71875 136.261719 92.34375 137.761719 92.042969 139.28125 C 91.738281 140.796875 91.511719 142.328125 91.359375 143.867188 C 91.210938 145.410156 91.132812 146.953125 91.132812 148.5 C 91.132812 150.050781 91.210938 151.59375 91.359375 153.132812 C 91.511719 154.675781 91.738281 156.203125 92.042969 157.722656 C 92.34375 159.238281 92.71875 160.738281 93.167969 162.222656 C 93.617188 163.703125 94.140625 165.15625 94.730469 166.589844 C 95.324219 168.019531 95.984375 169.414062 96.714844 170.78125 C 97.445312 172.144531 98.238281 173.472656 99.101562 174.757812 C 99.960938 176.046875 100.882812 177.289062 101.863281 178.484375 C 102.847656 179.679688 103.882812 180.824219 104.980469 181.921875 C 106.074219 183.015625 107.21875 184.054688 108.417969 185.035156 C 109.613281 186.015625 110.855469 186.9375 112.140625 187.796875 C 113.429688 188.65625 114.757812 189.453125 116.121094 190.179688 C 117.488281 190.910156 118.882812 191.570312 120.316406 192.164062 C 121.746094 192.753906 123.199219 193.273438 124.683594 193.722656 C 126.164062 194.171875 127.664062 194.546875 129.183594 194.851562 C 130.699219 195.152344 132.230469 195.378906 133.769531 195.527344 C 135.3125 195.679688 136.855469 195.753906 138.402344 195.753906 Z M 132.8125 112.859375 L 132.8125 148.5 C 132.8125 148.867188 132.847656 149.230469 132.921875 149.589844 C 132.992188 149.949219 133.097656 150.296875 133.238281 150.636719 C 133.378906 150.976562 133.550781 151.296875 133.753906 151.605469 C 133.960938 151.910156 134.191406 152.191406 134.449219 152.449219 C 134.710938 152.710938 134.992188 152.941406 135.296875 153.144531 C 135.601562 153.351562 135.925781 153.523438 136.265625 153.664062 C 136.601562 153.804688 136.953125 153.910156 137.3125 153.980469 C 137.671875 154.050781 138.035156 154.089844 138.402344 154.089844 L 174.042969 154.089844 C 173.875 155.179688 173.652344 156.257812 173.382812 157.328125 C 173.113281 158.398438 172.792969 159.453125 172.425781 160.492188 C 172.058594 161.535156 171.644531 162.554688 171.1875 163.558594 C 170.726562 164.5625 170.21875 165.542969 169.667969 166.496094 C 169.117188 167.453125 168.527344 168.382812 167.890625 169.285156 C 167.253906 170.1875 166.578125 171.058594 165.863281 171.898438 C 165.148438 172.738281 164.394531 173.542969 163.605469 174.3125 C 162.816406 175.085938 161.992188 175.816406 161.136719 176.511719 C 160.277344 177.207031 159.390625 177.863281 158.472656 178.476562 C 157.558594 179.089844 156.613281 179.660156 155.644531 180.1875 C 154.675781 180.714844 153.683594 181.199219 152.671875 181.632812 C 151.65625 182.070312 150.625 182.460938 149.578125 182.800781 C 148.527344 183.144531 147.464844 183.4375 146.390625 183.679688 C 145.3125 183.925781 144.226562 184.121094 143.132812 184.265625 C 142.039062 184.410156 140.941406 184.503906 139.839844 184.546875 C 138.738281 184.589844 137.636719 184.585938 136.53125 184.527344 C 135.429688 184.46875 134.332031 184.363281 133.242188 184.203125 C 132.148438 184.046875 131.066406 183.839844 129.996094 183.582031 C 128.921875 183.324219 127.863281 183.019531 126.816406 182.664062 C 125.773438 182.308594 124.746094 181.910156 123.738281 181.460938 C 122.730469 181.011719 121.742188 180.519531 120.78125 179.980469 C 119.816406 179.441406 118.882812 178.859375 117.972656 178.234375 C 117.0625 177.609375 116.183594 176.941406 115.335938 176.238281 C 114.488281 175.53125 113.671875 174.789062 112.894531 174.007812 C 112.113281 173.230469 111.371094 172.414062 110.664062 171.566406 C 109.957031 170.71875 109.292969 169.839844 108.667969 168.929688 C 108.042969 168.019531 107.460938 167.082031 106.921875 166.121094 C 106.382812 165.15625 105.890625 164.171875 105.441406 163.164062 C 104.992188 162.15625 104.589844 161.128906 104.238281 160.085938 C 103.882812 159.039062 103.578125 157.980469 103.320312 156.90625 C 103.0625 155.835938 102.855469 154.75 102.695312 153.660156 C 102.539062 152.566406 102.429688 151.46875 102.375 150.367188 C 102.316406 149.265625 102.3125 148.164062 102.355469 147.0625 C 102.398438 145.960938 102.492188 144.859375 102.636719 143.765625 C 102.78125 142.671875 102.976562 141.589844 103.222656 140.511719 C 103.464844 139.4375 103.757812 138.375 104.101562 137.324219 C 104.441406 136.273438 104.832031 135.242188 105.265625 134.230469 C 105.703125 133.21875 106.1875 132.226562 106.714844 131.257812 C 107.242188 130.285156 107.8125 129.34375 108.425781 128.425781 C 109.039062 127.511719 109.695312 126.625 110.390625 125.765625 C 111.085938 124.910156 111.816406 124.085938 112.589844 123.296875 C 113.359375 122.507812 114.164062 121.753906 115.003906 121.039062 C 115.84375 120.324219 116.714844 119.648438 117.617188 119.011719 C 118.519531 118.375 119.449219 117.78125 120.402344 117.234375 C 121.359375 116.683594 122.339844 116.175781 123.34375 115.714844 C 124.34375 115.253906 125.367188 114.839844 126.40625 114.472656 C 127.449219 114.109375 128.503906 113.789062 129.574219 113.519531 C 130.644531 113.25 131.722656 113.027344 132.8125 112.859375 Z M 132.8125 112.859375 " fill-opacity="1" fill-rule="nonzero"/><path fill="#4bb9ec" d="M 156.488281 100.359375 L 156.488281 130.386719 L 186.539062 130.386719 C 186.238281 128.515625 185.796875 126.675781 185.210938 124.875 C 184.625 123.070312 183.902344 121.324219 183.039062 119.636719 C 182.179688 117.945312 181.191406 116.335938 180.074219 114.800781 C 178.960938 113.265625 177.730469 111.832031 176.390625 110.488281 C 175.050781 109.148438 173.613281 107.921875 172.078125 106.808594 C 170.542969 105.695312 168.929688 104.707031 167.242188 103.847656 C 165.550781 102.988281 163.804688 102.265625 162 101.679688 C 160.199219 101.09375 158.359375 100.65625 156.488281 100.359375 Z M 156.488281 100.359375 " fill-opacity="1" fill-rule="nonzero"/><path fill="#000000" d="M 150.902344 88.75 C 150.535156 88.75 150.171875 88.785156 149.8125 88.855469 C 149.453125 88.925781 149.101562 89.035156 148.761719 89.175781 C 148.421875 89.316406 148.101562 89.488281 147.796875 89.691406 C 147.492188 89.894531 147.207031 90.125 146.949219 90.386719 C 146.691406 90.644531 146.457031 90.925781 146.253906 91.234375 C 146.050781 91.539062 145.878906 91.859375 145.738281 92.199219 C 145.597656 92.539062 145.492188 92.886719 145.417969 93.246094 C 145.347656 93.609375 145.3125 93.972656 145.3125 94.339844 L 145.3125 135.976562 C 145.3125 136.34375 145.347656 136.707031 145.417969 137.066406 C 145.492188 137.425781 145.597656 137.777344 145.738281 138.117188 C 145.878906 138.457031 146.050781 138.777344 146.253906 139.082031 C 146.457031 139.386719 146.691406 139.671875 146.949219 139.929688 C 147.207031 140.1875 147.492188 140.421875 147.796875 140.625 C 148.101562 140.828125 148.421875 141 148.761719 141.140625 C 149.101562 141.28125 149.453125 141.386719 149.8125 141.460938 C 150.171875 141.53125 150.535156 141.566406 150.902344 141.566406 L 192.5625 141.566406 C 192.929688 141.566406 193.292969 141.53125 193.652344 141.460938 C 194.011719 141.386719 194.363281 141.28125 194.703125 141.140625 C 195.042969 141 195.363281 140.828125 195.667969 140.625 C 195.972656 140.421875 196.257812 140.1875 196.515625 139.929688 C 196.773438 139.671875 197.007812 139.386719 197.210938 139.082031 C 197.414062 138.777344 197.585938 138.457031 197.726562 138.117188 C 197.867188 137.777344 197.972656 137.425781 198.046875 137.066406 C 198.117188 136.707031 198.152344 136.34375 198.152344 135.976562 C 198.152344 134.429688 198.074219 132.886719 197.921875 131.347656 C 197.769531 129.808594 197.539062 128.28125 197.238281 126.765625 C 196.933594 125.246094 196.558594 123.75 196.109375 122.269531 C 195.65625 120.789062 195.136719 119.335938 194.542969 117.90625 C 193.949219 116.476562 193.289062 115.082031 192.558594 113.714844 C 191.828125 112.351562 191.035156 111.027344 190.175781 109.742188 C 189.316406 108.457031 188.394531 107.214844 187.414062 106.019531 C 186.429688 104.824219 185.394531 103.679688 184.300781 102.585938 C 183.203125 101.492188 182.058594 100.457031 180.863281 99.476562 C 179.667969 98.492188 178.425781 97.574219 177.140625 96.714844 C 175.855469 95.855469 174.53125 95.058594 173.164062 94.332031 C 171.800781 93.601562 170.40625 92.941406 168.976562 92.347656 C 167.546875 91.757812 166.09375 91.234375 164.613281 90.785156 C 163.132812 90.335938 161.632812 89.960938 160.117188 89.660156 C 158.597656 89.359375 157.070312 89.128906 155.53125 88.976562 C 153.992188 88.824219 152.449219 88.75 150.902344 88.75 Z M 156.492188 130.410156 L 156.492188 100.359375 C 158.363281 100.65625 160.203125 101.09375 162.007812 101.679688 C 163.808594 102.265625 165.558594 102.988281 167.246094 103.847656 C 168.9375 104.707031 170.546875 105.695312 172.082031 106.808594 C 173.617188 107.921875 175.054688 109.148438 176.398438 110.488281 C 177.738281 111.832031 178.964844 113.265625 180.082031 114.800781 C 181.195312 116.335938 182.183594 117.945312 183.046875 119.636719 C 183.90625 121.324219 184.632812 123.070312 185.21875 124.875 C 185.804688 126.675781 186.246094 128.515625 186.542969 130.386719 Z M 156.492188 130.410156 " fill-opacity="1" fill-rule="nonzero"/><path fill="#000000" d="M 215.023438 208.601562 C 214.65625 208.601562 214.292969 208.636719 213.933594 208.707031 C 213.574219 208.78125 213.222656 208.886719 212.882812 209.027344 C 212.542969 209.167969 212.222656 209.339844 211.917969 209.542969 C 211.613281 209.746094 211.332031 209.976562 211.070312 210.238281 C 210.8125 210.496094 210.578125 210.78125 210.375 211.085938 C 210.171875 211.390625 210 211.710938 209.859375 212.050781 C 209.71875 212.390625 209.613281 212.738281 209.539062 213.101562 C 209.46875 213.460938 209.433594 213.824219 209.433594 214.191406 L 209.433594 247.730469 C 209.433594 248.097656 209.46875 248.460938 209.539062 248.820312 C 209.613281 249.179688 209.71875 249.53125 209.859375 249.867188 C 210 250.207031 210.171875 250.53125 210.375 250.835938 C 210.578125 251.140625 210.8125 251.421875 211.070312 251.683594 C 211.328125 251.941406 211.613281 252.171875 211.917969 252.378906 C 212.222656 252.582031 212.542969 252.753906 212.882812 252.894531 C 213.222656 253.035156 213.574219 253.140625 213.933594 253.210938 C 214.292969 253.285156 214.65625 253.320312 215.023438 253.320312 C 215.390625 253.320312 215.753906 253.285156 216.113281 253.210938 C 216.472656 253.140625 216.824219 253.035156 217.164062 252.894531 C 217.5 252.753906 217.824219 252.582031 218.128906 252.378906 C 218.433594 252.171875 218.714844 251.941406 218.976562 251.683594 C 219.234375 251.421875 219.46875 251.140625 219.671875 250.835938 C 219.875 250.53125 220.046875 250.207031 220.1875 249.867188 C 220.328125 249.53125 220.433594 249.179688 220.503906 248.820312 C 220.578125 248.460938 220.613281 248.097656 220.613281 247.730469 L 220.613281 214.191406 C 220.613281 213.824219 220.578125 213.460938 220.503906 213.101562 C 220.433594 212.738281 220.328125 212.390625 220.1875 212.050781 C 220.046875 211.710938 219.875 211.390625 219.671875 211.085938 C 219.46875 210.78125 219.234375 210.496094 218.976562 210.238281 C 218.714844 209.976562 218.433594 209.746094 218.128906 209.542969 C 217.824219 209.339844 217.5 209.167969 217.164062 209.027344 C 216.824219 208.886719 216.472656 208.78125 216.113281 208.707031 C 215.753906 208.636719 215.390625 208.601562 215.023438 208.601562 Z M 215.023438 208.601562 " fill-opacity="1" fill-rule="nonzero"/><path fill="#000000" d="M 237.382812 197.421875 C 237.015625 197.421875 236.652344 197.457031 236.292969 197.527344 C 235.933594 197.601562 235.582031 197.707031 235.242188 197.847656 C 234.902344 197.988281 234.582031 198.160156 234.277344 198.363281 C 233.972656 198.566406 233.6875 198.796875 233.429688 199.058594 C 233.171875 199.316406 232.9375 199.601562 232.734375 199.90625 C 232.53125 200.210938 232.359375 200.53125 232.21875 200.871094 C 232.078125 201.210938 231.972656 201.558594 231.898438 201.921875 C 231.828125 202.28125 231.792969 202.644531 231.792969 203.011719 L 231.792969 247.730469 C 231.792969 248.097656 231.828125 248.460938 231.898438 248.820312 C 231.972656 249.179688 232.078125 249.53125 232.21875 249.867188 C 232.359375 250.207031 232.53125 250.53125 232.734375 250.835938 C 232.9375 251.140625 233.171875 251.421875 233.429688 251.683594 C 233.6875 251.941406 233.972656 252.171875 234.277344 252.378906 C 234.582031 252.582031 234.902344 252.753906 235.242188 252.894531 C 235.582031 253.035156 235.933594 253.140625 236.292969 253.210938 C 236.652344 253.285156 237.015625 253.320312 237.382812 253.320312 C 237.75 253.320312 238.113281 253.285156 238.472656 253.210938 C 238.832031 253.140625 239.183594 253.035156 239.523438 252.894531 C 239.859375 252.753906 240.183594 252.582031 240.488281 252.378906 C 240.792969 252.171875 241.074219 251.941406 241.335938 251.683594 C 241.59375 251.421875 241.828125 251.140625 242.03125 250.835938 C 242.234375 250.53125 242.40625 250.207031 242.546875 249.867188 C 242.6875 249.53125 242.792969 249.179688 242.863281 248.820312 C 242.9375 248.460938 242.972656 248.097656 242.972656 247.730469 L 242.972656 203.011719 C 242.972656 202.644531 242.9375 202.28125 242.863281 201.921875 C 242.792969 201.558594 242.6875 201.210938 242.546875 200.871094 C 242.40625 200.53125 242.234375 200.210938 242.03125 199.90625 C 241.828125 199.601562 241.59375 199.316406 241.335938 199.058594 C 241.074219 198.796875 240.792969 198.566406 240.488281 198.363281 C 240.183594 198.160156 239.859375 197.988281 239.523438 197.847656 C 239.183594 197.707031 238.832031 197.601562 238.472656 197.527344 C 238.113281 197.457031 237.75 197.421875 237.382812 197.421875 Z M 237.382812 197.421875 " fill-opacity="1" fill-rule="nonzero"/><path fill="#000000" d="M 259.742188 189.035156 C 259.375 189.035156 259.011719 189.070312 258.652344 189.144531 C 258.292969 189.214844 257.941406 189.320312 257.601562 189.460938 C 257.265625 189.601562 256.941406 189.773438 256.636719 189.976562 C 256.332031 190.183594 256.046875 190.414062 255.789062 190.671875 C 255.53125 190.933594 255.296875 191.214844 255.09375 191.519531 C 254.890625 191.824219 254.71875 192.148438 254.578125 192.488281 C 254.4375 192.824219 254.332031 193.175781 254.257812 193.535156 C 254.1875 193.894531 254.152344 194.257812 254.152344 194.625 L 254.152344 247.730469 C 254.152344 248.097656 254.1875 248.460938 254.257812 248.820312 C 254.332031 249.179688 254.4375 249.53125 254.578125 249.867188 C 254.71875 250.207031 254.890625 250.53125 255.09375 250.835938 C 255.296875 251.140625 255.53125 251.421875 255.789062 251.683594 C 256.046875 251.941406 256.332031 252.171875 256.636719 252.378906 C 256.941406 252.582031 257.261719 252.753906 257.601562 252.894531 C 257.941406 253.035156 258.292969 253.140625 258.652344 253.210938 C 259.011719 253.285156 259.375 253.320312 259.742188 253.320312 C 260.109375 253.320312 260.472656 253.285156 260.832031 253.210938 C 261.191406 253.140625 261.542969 253.035156 261.882812 252.894531 C 262.21875 252.753906 262.542969 252.582031 262.847656 252.378906 C 263.152344 252.171875 263.433594 251.941406 263.695312 251.683594 C 263.953125 251.421875 264.1875 251.140625 264.390625 250.835938 C 264.59375 250.53125 264.765625 250.207031 264.90625 249.867188 C 265.046875 249.53125 265.152344 249.179688 265.222656 248.820312 C 265.296875 248.460938 265.332031 248.097656 265.332031 247.730469 L 265.332031 194.625 C 265.332031 194.257812 265.296875 193.894531 265.222656 193.535156 C 265.152344 193.175781 265.046875 192.824219 264.90625 192.488281 C 264.765625 192.148438 264.59375 191.824219 264.390625 191.519531 C 264.1875 191.214844 263.953125 190.933594 263.695312 190.671875 C 263.433594 190.414062 263.152344 190.183594 262.847656 189.976562 C 262.542969 189.773438 262.21875 189.601562 261.882812 189.460938 C 261.542969 189.320312 261.191406 189.214844 260.832031 189.144531 C 260.472656 189.070312 260.109375 189.035156 259.742188 189.035156 Z M 259.742188 189.035156 " fill-opacity="1" fill-rule="nonzero"/><path fill="#000000" d="M 281.996094 175.0625 C 281.628906 175.0625 281.265625 175.097656 280.90625 175.167969 C 280.542969 175.242188 280.195312 175.347656 279.855469 175.488281 C 279.515625 175.628906 279.195312 175.800781 278.890625 176.003906 C 278.585938 176.207031 278.300781 176.4375 278.042969 176.699219 C 277.78125 176.957031 277.550781 177.242188 277.347656 177.546875 C 277.144531 177.851562 276.972656 178.171875 276.832031 178.511719 C 276.691406 178.851562 276.585938 179.199219 276.511719 179.5625 C 276.441406 179.921875 276.40625 180.285156 276.40625 180.652344 L 276.40625 247.730469 C 276.40625 248.097656 276.441406 248.460938 276.511719 248.820312 C 276.585938 249.179688 276.691406 249.53125 276.832031 249.867188 C 276.972656 250.207031 277.144531 250.53125 277.347656 250.835938 C 277.550781 251.140625 277.78125 251.421875 278.042969 251.683594 C 278.300781 251.941406 278.585938 252.171875 278.890625 252.378906 C 279.195312 252.582031 279.515625 252.753906 279.855469 252.894531 C 280.195312 253.035156 280.542969 253.140625 280.90625 253.210938 C 281.265625 253.285156 281.628906 253.320312 281.996094 253.320312 C 282.363281 253.320312 282.726562 253.285156 283.085938 253.210938 C 283.445312 253.140625 283.796875 253.035156 284.132812 252.894531 C 284.472656 252.753906 284.796875 252.582031 285.101562 252.378906 C 285.40625 252.171875 285.6875 251.941406 285.949219 251.683594 C 286.207031 251.421875 286.4375 251.140625 286.644531 250.835938 C 286.847656 250.53125 287.019531 250.207031 287.160156 249.867188 C 287.300781 249.53125 287.40625 249.179688 287.476562 248.820312 C 287.550781 248.460938 287.585938 248.097656 287.585938 247.730469 L 287.585938 180.652344 C 287.585938 180.285156 287.550781 179.921875 287.476562 179.5625 C 287.40625 179.199219 287.300781 178.851562 287.160156 178.511719 C 287.019531 178.171875 286.847656 177.851562 286.644531 177.546875 C 286.4375 177.242188 286.207031 176.957031 285.949219 176.699219 C 285.6875 176.4375 285.40625 176.207031 285.101562 176.003906 C 284.796875 175.800781 284.472656 175.628906 284.132812 175.488281 C 283.796875 175.347656 283.445312 175.242188 283.085938 175.167969 C 282.726562 175.097656 282.363281 175.0625 281.996094 175.0625 Z M 281.996094 175.0625 " fill-opacity="1" fill-rule="nonzero"/><path fill="#000000" d="M 288.285156 104.792969 L 208.1875 104.792969 C 207.820312 104.792969 207.457031 104.828125 207.097656 104.898438 C 206.734375 104.96875 206.386719 105.078125 206.046875 105.21875 C 205.707031 105.355469 205.386719 105.53125 205.082031 105.734375 C 204.777344 105.9375 204.492188 106.167969 204.234375 106.429688 C 203.976562 106.6875 203.742188 106.96875 203.539062 107.277344 C 203.335938 107.582031 203.164062 107.902344 203.023438 108.242188 C 202.882812 108.582031 202.777344 108.929688 202.703125 109.289062 C 202.632812 109.652344 202.597656 110.015625 202.597656 110.382812 C 202.597656 110.75 202.632812 111.113281 202.703125 111.472656 C 202.777344 111.832031 202.882812 112.179688 203.023438 112.519531 C 203.164062 112.859375 203.335938 113.183594 203.539062 113.488281 C 203.742188 113.792969 203.976562 114.074219 204.234375 114.332031 C 204.492188 114.59375 204.777344 114.824219 205.082031 115.027344 C 205.386719 115.234375 205.707031 115.40625 206.046875 115.546875 C 206.386719 115.6875 206.734375 115.792969 207.097656 115.863281 C 207.457031 115.933594 207.820312 115.972656 208.1875 115.972656 L 288.285156 115.972656 C 288.652344 115.972656 289.015625 115.933594 289.375 115.863281 C 289.734375 115.792969 290.082031 115.6875 290.421875 115.546875 C 290.761719 115.40625 291.085938 115.234375 291.390625 115.027344 C 291.695312 114.824219 291.976562 114.59375 292.234375 114.332031 C 292.496094 114.074219 292.726562 113.792969 292.929688 113.488281 C 293.136719 113.183594 293.308594 112.859375 293.449219 112.519531 C 293.589844 112.179688 293.695312 111.832031 293.765625 111.472656 C 293.835938 111.113281 293.875 110.75 293.875 110.382812 C 293.875 110.015625 293.835938 109.652344 293.765625 109.289062 C 293.695312 108.929688 293.589844 108.582031 293.449219 108.242188 C 293.308594 107.902344 293.136719 107.582031 292.929688 107.277344 C 292.726562 106.96875 292.496094 106.6875 292.234375 106.429688 C 291.976562 106.167969 291.695312 105.9375 291.390625 105.734375 C 291.085938 105.53125 290.761719 105.355469 290.421875 105.21875 C 290.082031 105.078125 289.734375 104.96875 289.375 104.898438 C 289.015625 104.828125 288.652344 104.792969 288.285156 104.792969 Z M 288.285156 104.792969 " fill-opacity="1" fill-rule="nonzero"/><path fill="#000000" d="M 288.285156 120.761719 L 208.1875 120.761719 C 207.820312 120.761719 207.457031 120.796875 207.097656 120.867188 C 206.734375 120.941406 206.386719 121.046875 206.046875 121.1875 C 205.707031 121.328125 205.386719 121.5 205.082031 121.703125 C 204.777344 121.90625 204.492188 122.140625 204.234375 122.398438 C 203.976562 122.660156 203.742188 122.941406 203.539062 123.246094 C 203.335938 123.550781 203.164062 123.875 203.023438 124.210938 C 202.882812 124.550781 202.777344 124.902344 202.703125 125.261719 C 202.632812 125.621094 202.597656 125.984375 202.597656 126.351562 C 202.597656 126.71875 202.632812 127.082031 202.703125 127.441406 C 202.777344 127.800781 202.882812 128.152344 203.023438 128.492188 C 203.164062 128.828125 203.335938 129.152344 203.539062 129.457031 C 203.742188 129.761719 203.976562 130.042969 204.234375 130.304688 C 204.492188 130.5625 204.777344 130.796875 205.082031 131 C 205.386719 131.203125 205.707031 131.375 206.046875 131.515625 C 206.386719 131.65625 206.734375 131.761719 207.097656 131.832031 C 207.457031 131.90625 207.820312 131.941406 208.1875 131.941406 L 288.285156 131.941406 C 288.652344 131.941406 289.015625 131.90625 289.375 131.832031 C 289.734375 131.761719 290.082031 131.65625 290.421875 131.515625 C 290.761719 131.375 291.085938 131.203125 291.390625 131 C 291.695312 130.796875 291.976562 130.5625 292.234375 130.304688 C 292.496094 130.042969 292.726562 129.761719 292.929688 129.457031 C 293.136719 129.152344 293.308594 128.828125 293.449219 128.492188 C 293.589844 128.152344 293.695312 127.800781 293.765625 127.441406 C 293.835938 127.082031 293.875 126.71875 293.875 126.351562 C 293.875 125.984375 293.835938 125.621094 293.765625 125.261719 C 293.695312 124.902344 293.589844 124.550781 293.449219 124.210938 C 293.308594 123.875 293.136719 123.550781 292.929688 123.246094 C 292.726562 122.941406 292.496094 122.660156 292.234375 122.398438 C 291.976562 122.140625 291.695312 121.90625 291.390625 121.703125 C 291.085938 121.5 290.761719 121.328125 290.421875 121.1875 C 290.082031 121.046875 289.734375 120.941406 289.375 120.867188 C 289.015625 120.796875 288.652344 120.761719 288.285156 120.761719 Z M 288.285156 120.761719 " fill-opacity="1" fill-rule="nonzero"/><path fill="#000000" d="M 288.285156 136.730469 L 208.1875 136.730469 C 207.820312 136.730469 207.457031 136.769531 207.097656 136.839844 C 206.734375 136.910156 206.386719 137.015625 206.046875 137.15625 C 205.707031 137.296875 205.386719 137.46875 205.082031 137.675781 C 204.777344 137.878906 204.492188 138.109375 204.234375 138.367188 C 203.976562 138.628906 203.742188 138.910156 203.539062 139.214844 C 203.335938 139.519531 203.164062 139.84375 203.023438 140.183594 C 202.882812 140.523438 202.777344 140.871094 202.703125 141.230469 C 202.632812 141.589844 202.597656 141.953125 202.597656 142.320312 C 202.597656 142.6875 202.632812 143.050781 202.703125 143.414062 C 202.777344 143.773438 202.882812 144.121094 203.023438 144.460938 C 203.164062 144.800781 203.335938 145.121094 203.539062 145.425781 C 203.742188 145.730469 203.976562 146.015625 204.234375 146.273438 C 204.492188 146.535156 204.777344 146.765625 205.082031 146.96875 C 205.386719 147.171875 205.707031 147.34375 206.046875 147.484375 C 206.386719 147.625 206.734375 147.734375 207.097656 147.804688 C 207.457031 147.875 207.820312 147.910156 208.1875 147.910156 L 288.285156 147.910156 C 288.652344 147.910156 289.015625 147.875 289.375 147.804688 C 289.734375 147.734375 290.082031 147.625 290.421875 147.484375 C 290.761719 147.34375 291.085938 147.171875 291.390625 146.96875 C 291.695312 146.765625 291.976562 146.535156 292.234375 146.273438 C 292.496094 146.015625 292.726562 145.730469 292.929688 145.425781 C 293.136719 145.121094 293.308594 144.800781 293.449219 144.460938 C 293.589844 144.121094 293.695312 143.773438 293.765625 143.414062 C 293.835938 143.050781 293.875 142.6875 293.875 142.320312 C 293.875 141.953125 293.835938 141.589844 293.765625 141.230469 C 293.695312 140.871094 293.589844 140.523438 293.449219 140.183594 C 293.308594 139.84375 293.136719 139.519531 292.929688 139.214844 C 292.726562 138.910156 292.496094 138.628906 292.234375 138.367188 C 291.976562 138.109375 291.695312 137.878906 291.390625 137.675781 C 291.085938 137.46875 290.761719 137.296875 290.421875 137.15625 C 290.082031 137.015625 289.734375 136.910156 289.375 136.839844 C 289.015625 136.769531 288.652344 136.730469 288.285156 136.730469 Z M 288.285156 136.730469 " fill-opacity="1" fill-rule="nonzero"/><path fill="#000000" d="M 288.285156 152.703125 L 208.1875 152.703125 C 207.820312 152.703125 207.457031 152.738281 207.097656 152.808594 C 206.734375 152.882812 206.386719 152.988281 206.046875 153.128906 C 205.707031 153.269531 205.386719 153.441406 205.082031 153.644531 C 204.777344 153.847656 204.492188 154.078125 204.234375 154.339844 C 203.976562 154.597656 203.742188 154.882812 203.539062 155.1875 C 203.335938 155.492188 203.164062 155.8125 203.023438 156.152344 C 202.882812 156.492188 202.777344 156.839844 202.703125 157.203125 C 202.632812 157.5625 202.597656 157.925781 202.597656 158.292969 C 202.597656 158.660156 202.632812 159.023438 202.703125 159.382812 C 202.777344 159.742188 202.882812 160.09375 203.023438 160.429688 C 203.164062 160.769531 203.335938 161.09375 203.539062 161.398438 C 203.742188 161.703125 203.976562 161.984375 204.234375 162.246094 C 204.492188 162.503906 204.777344 162.734375 205.082031 162.941406 C 205.386719 163.144531 205.707031 163.316406 206.046875 163.457031 C 206.386719 163.597656 206.734375 163.703125 207.097656 163.773438 C 207.457031 163.847656 207.820312 163.882812 208.1875 163.882812 L 288.285156 163.882812 C 288.652344 163.882812 289.015625 163.847656 289.375 163.773438 C 289.734375 163.703125 290.082031 163.597656 290.421875 163.457031 C 290.761719 163.316406 291.085938 163.144531 291.390625 162.941406 C 291.695312 162.734375 291.976562 162.503906 292.234375 162.246094 C 292.496094 161.984375 292.726562 161.703125 292.929688 161.398438 C 293.136719 161.09375 293.308594 160.769531 293.449219 160.429688 C 293.589844 160.09375 293.695312 159.742188 293.765625 159.382812 C 293.835938 159.023438 293.875 158.660156 293.875 158.292969 C 293.875 157.925781 293.835938 157.5625 293.765625 157.203125 C 293.695312 156.839844 293.589844 156.492188 293.449219 156.152344 C 293.308594 155.8125 293.136719 155.492188 292.929688 155.1875 C 292.726562 154.882812 292.496094 154.597656 292.234375 154.339844 C 291.976562 154.078125 291.695312 153.847656 291.390625 153.644531 C 291.085938 153.441406 290.761719 153.269531 290.421875 153.128906 C 290.082031 152.988281 289.734375 152.882812 289.375 152.808594 C 289.015625 152.738281 288.652344 152.703125 288.285156 152.703125 Z M 288.285156 152.703125 " fill-opacity="1" fill-rule="nonzero"/><path fill="#f03800" d="M 108.710938 219.78125 L 186.96875 219.78125 L 186.96875 242.140625 L 108.710938 242.140625 Z M 108.710938 219.78125 " fill-opacity="1" fill-rule="nonzero"/><path fill="#000000" d="M 192.558594 208.601562 L 103.121094 208.601562 C 102.753906 208.601562 102.390625 208.636719 102.03125 208.707031 C 101.667969 208.78125 101.320312 208.886719 100.980469 209.027344 C 100.640625 209.167969 100.320312 209.339844 100.015625 209.542969 C 99.710938 209.746094 99.425781 209.976562 99.167969 210.238281 C 98.90625 210.496094 98.675781 210.78125 98.472656 211.085938 C 98.269531 211.390625 98.097656 211.710938 97.957031 212.050781 C 97.816406 212.390625 97.710938 212.738281 97.636719 213.101562 C 97.566406 213.460938 97.53125 213.824219 97.53125 214.191406 L 97.53125 247.730469 C 97.53125 248.097656 97.566406 248.460938 97.636719 248.820312 C 97.710938 249.179688 97.816406 249.53125 97.957031 249.867188 C 98.097656 250.207031 98.269531 250.53125 98.472656 250.835938 C 98.675781 251.140625 98.90625 251.421875 99.167969 251.683594 C 99.425781 251.941406 99.710938 252.171875 100.015625 252.378906 C 100.320312 252.582031 100.640625 252.753906 100.980469 252.894531 C 101.320312 253.035156 101.667969 253.140625 102.03125 253.210938 C 102.390625 253.285156 102.753906 253.320312 103.121094 253.320312 L 192.558594 253.320312 C 192.925781 253.320312 193.289062 253.285156 193.648438 253.210938 C 194.007812 253.140625 194.359375 253.035156 194.695312 252.894531 C 195.035156 252.753906 195.359375 252.582031 195.664062 252.378906 C 195.96875 252.171875 196.25 251.941406 196.511719 251.683594 C 196.769531 251.421875 197 251.140625 197.207031 250.835938 C 197.410156 250.53125 197.582031 250.207031 197.722656 249.867188 C 197.863281 249.53125 197.96875 249.179688 198.039062 248.820312 C 198.113281 248.460938 198.148438 248.097656 198.148438 247.730469 L 198.148438 214.191406 C 198.148438 213.824219 198.113281 213.460938 198.039062 213.101562 C 197.96875 212.738281 197.863281 212.390625 197.722656 212.050781 C 197.582031 211.710938 197.410156 211.390625 197.207031 211.085938 C 197 210.78125 196.769531 210.496094 196.511719 210.238281 C 196.25 209.976562 195.96875 209.746094 195.664062 209.542969 C 195.359375 209.339844 195.035156 209.167969 194.695312 209.027344 C 194.359375 208.886719 194.007812 208.78125 193.648438 208.707031 C 193.289062 208.636719 192.925781 208.601562 192.558594 208.601562 Z M 186.96875 242.140625 L 108.710938 242.140625 L 108.710938 219.78125 L 186.96875 219.78125 Z M 186.96875 242.140625 " fill-opacity="1" fill-rule="nonzero"/></svg>