<svg xmlns="http://www.w3.org/2000/svg" xmlns:xlink="http://www.w3.org/1999/xlink" width="512" zoomAndPan="magnify" viewBox="0 0 384 383.999986" height="512" preserveAspectRatio="xMidYMid meet" version="1.0"><path fill="#31373d" d="M 39.296875 161.785156 L 39.261719 161.765625 C 39.261719 161.765625 19.519531 281.28125 19.519531 298.507812 C 19.519531 316.066406 32.445312 330.292969 48.394531 330.292969 C 54.9375 330.292969 60.90625 327.808594 65.75 323.765625 L 163.597656 237.738281 Z M 344.316406 161.785156 L 344.351562 161.765625 C 344.351562 161.765625 364.09375 281.28125 364.09375 298.507812 C 364.09375 316.066406 351.167969 330.292969 335.21875 330.292969 C 328.675781 330.292969 322.707031 327.808594 317.867188 323.765625 L 220.019531 237.738281 Z M 344.316406 161.785156 " fill-opacity="1" fill-rule="nonzero"/><path fill="#14171a" d="M 350.621094 168.476562 C 350.621094 169.816406 350.585938 171.152344 350.519531 172.488281 C 350.453125 173.828125 350.355469 175.164062 350.226562 176.496094 C 350.09375 177.828125 349.929688 179.15625 349.734375 180.480469 C 349.539062 181.804688 349.308594 183.125 349.046875 184.4375 C 348.785156 185.75 348.492188 187.054688 348.167969 188.355469 C 347.84375 189.652344 347.484375 190.945312 347.097656 192.226562 C 346.707031 193.507812 346.289062 194.777344 345.835938 196.039062 C 345.386719 197.296875 344.902344 198.546875 344.390625 199.785156 C 343.878906 201.019531 343.335938 202.246094 342.765625 203.457031 C 342.191406 204.664062 341.589844 205.859375 340.960938 207.042969 C 340.328125 208.222656 339.667969 209.386719 338.980469 210.535156 C 338.292969 211.683594 337.574219 212.816406 336.832031 213.929688 C 336.085938 215.042969 335.316406 216.136719 334.519531 217.210938 C 333.722656 218.285156 332.898438 219.34375 332.046875 220.378906 C 331.199219 221.410156 330.324219 222.425781 329.425781 223.417969 C 328.527344 224.410156 327.605469 225.378906 326.65625 226.324219 C 325.710938 227.273438 324.742188 228.195312 323.75 229.09375 C 322.757812 229.992188 321.742188 230.867188 320.707031 231.71875 C 319.671875 232.566406 318.617188 233.390625 317.542969 234.1875 C 316.46875 234.984375 315.371094 235.757812 314.257812 236.5 C 313.144531 237.246094 312.015625 237.960938 310.867188 238.648438 C 309.71875 239.335938 308.554688 239.996094 307.371094 240.628906 C 306.191406 241.257812 304.996094 241.859375 303.785156 242.433594 C 302.574219 243.003906 301.351562 243.546875 300.113281 244.0625 C 298.878906 244.574219 297.628906 245.054688 296.367188 245.503906 C 295.109375 245.957031 293.835938 246.375 292.554688 246.765625 C 291.273438 247.152344 289.984375 247.511719 288.6875 247.835938 C 287.386719 248.160156 286.082031 248.453125 284.769531 248.714844 C 283.453125 248.976562 282.136719 249.207031 280.8125 249.402344 C 279.488281 249.597656 278.160156 249.761719 276.824219 249.894531 C 275.492188 250.027344 274.160156 250.125 272.820312 250.191406 C 271.484375 250.253906 270.144531 250.289062 268.808594 250.289062 C 267.46875 250.289062 266.128906 250.253906 264.792969 250.191406 C 263.457031 250.125 262.121094 250.027344 260.789062 249.894531 C 259.457031 249.761719 258.125 249.597656 256.800781 249.402344 C 255.476562 249.207031 254.160156 248.976562 252.847656 248.714844 C 251.53125 248.453125 250.226562 248.160156 248.929688 247.835938 C 247.628906 247.511719 246.339844 247.152344 245.058594 246.765625 C 243.777344 246.375 242.503906 245.957031 241.246094 245.503906 C 239.984375 245.054688 238.734375 244.574219 237.5 244.0625 C 236.261719 243.546875 235.039062 243.003906 233.828125 242.433594 C 232.617188 241.859375 231.421875 241.257812 230.242188 240.628906 C 229.058594 239.996094 227.894531 239.335938 226.746094 238.648438 C 225.597656 237.960938 224.46875 237.246094 223.355469 236.5 C 222.242188 235.757812 221.148438 234.984375 220.070312 234.1875 C 218.996094 233.390625 217.941406 232.566406 216.90625 231.71875 C 215.871094 230.867188 214.855469 229.992188 213.863281 229.09375 C 212.871094 228.195312 211.902344 227.273438 210.957031 226.324219 C 210.011719 225.378906 209.085938 224.410156 208.1875 223.417969 C 207.289062 222.425781 206.414062 221.410156 205.566406 220.378906 C 204.714844 219.34375 203.890625 218.285156 203.09375 217.210938 C 202.296875 216.136719 201.527344 215.042969 200.78125 213.929688 C 200.039062 212.816406 199.320312 211.683594 198.632812 210.535156 C 197.945312 209.386719 197.285156 208.222656 196.65625 207.042969 C 196.023438 205.859375 195.421875 204.664062 194.847656 203.457031 C 194.277344 202.246094 193.734375 201.019531 193.222656 199.785156 C 192.710938 198.546875 192.226562 197.296875 191.777344 196.039062 C 191.324219 194.777344 190.90625 193.507812 190.515625 192.226562 C 190.128906 190.945312 189.769531 189.652344 189.445312 188.355469 C 189.121094 187.054688 188.828125 185.75 188.566406 184.4375 C 188.304688 183.125 188.078125 181.804688 187.878906 180.480469 C 187.683594 179.15625 187.519531 177.828125 187.386719 176.496094 C 187.257812 175.164062 187.160156 173.828125 187.09375 172.488281 C 187.027344 171.152344 186.996094 169.816406 186.996094 168.476562 C 186.996094 167.136719 187.027344 165.796875 187.09375 164.460938 C 187.160156 163.125 187.257812 161.789062 187.386719 160.457031 C 187.519531 159.125 187.683594 157.796875 187.878906 156.472656 C 188.078125 155.148438 188.304688 153.828125 188.566406 152.515625 C 188.828125 151.203125 189.121094 149.894531 189.445312 148.597656 C 189.769531 147.296875 190.128906 146.007812 190.515625 144.726562 C 190.90625 143.445312 191.324219 142.175781 191.777344 140.914062 C 192.226562 139.652344 192.710938 138.40625 193.222656 137.167969 C 193.734375 135.929688 194.277344 134.707031 194.847656 133.496094 C 195.421875 132.285156 196.023438 131.089844 196.65625 129.910156 C 197.285156 128.730469 197.945312 127.5625 198.632812 126.414062 C 199.320312 125.265625 200.039062 124.136719 200.78125 123.023438 C 201.527344 121.910156 202.296875 120.816406 203.09375 119.738281 C 203.890625 118.664062 204.714844 117.609375 205.566406 116.574219 C 206.414062 115.539062 207.289062 114.527344 208.1875 113.535156 C 209.085938 112.542969 210.011719 111.574219 210.957031 110.625 C 211.902344 109.679688 212.871094 108.757812 213.863281 107.855469 C 214.855469 106.957031 215.871094 106.082031 216.90625 105.234375 C 217.941406 104.382812 218.996094 103.5625 220.070312 102.761719 C 221.148438 101.964844 222.242188 101.195312 223.355469 100.453125 C 224.46875 99.707031 225.597656 98.992188 226.746094 98.304688 C 227.894531 97.613281 229.058594 96.953125 230.242188 96.324219 C 231.421875 95.691406 232.617188 95.089844 233.828125 94.519531 C 235.039062 93.945312 236.261719 93.402344 237.5 92.890625 C 238.734375 92.378906 239.984375 91.898438 241.246094 91.445312 C 242.503906 90.996094 243.777344 90.574219 245.058594 90.1875 C 246.339844 89.796875 247.628906 89.441406 248.929688 89.113281 C 250.226562 88.789062 251.53125 88.496094 252.847656 88.234375 C 254.160156 87.972656 255.476562 87.746094 256.800781 87.546875 C 258.125 87.351562 259.457031 87.1875 260.789062 87.058594 C 262.121094 86.925781 263.457031 86.828125 264.792969 86.761719 C 266.128906 86.695312 267.46875 86.664062 268.808594 86.664062 C 270.144531 86.664062 271.484375 86.695312 272.820312 86.761719 C 274.160156 86.828125 275.492188 86.925781 276.824219 87.058594 C 278.160156 87.1875 279.488281 87.351562 280.8125 87.546875 C 282.136719 87.746094 283.453125 87.972656 284.769531 88.234375 C 286.082031 88.496094 287.386719 88.789062 288.6875 89.113281 C 289.984375 89.441406 291.273438 89.796875 292.554688 90.1875 C 293.835938 90.574219 295.109375 90.996094 296.367188 91.445312 C 297.628906 91.898438 298.878906 92.378906 300.113281 92.890625 C 301.351562 93.402344 302.574219 93.945312 303.785156 94.519531 C 304.996094 95.089844 306.191406 95.691406 307.371094 96.324219 C 308.554688 96.953125 309.71875 97.613281 310.867188 98.304688 C 312.015625 98.992188 313.144531 99.707031 314.257812 100.453125 C 315.371094 101.195312 316.46875 101.964844 317.542969 102.761719 C 318.617188 103.5625 319.671875 104.382812 320.707031 105.234375 C 321.742188 106.082031 322.757812 106.957031 323.75 107.855469 C 324.742188 108.757812 325.710938 109.679688 326.65625 110.625 C 327.605469 111.574219 328.527344 112.542969 329.425781 113.535156 C 330.324219 114.527344 331.199219 115.539062 332.046875 116.574219 C 332.898438 117.609375 333.722656 118.664062 334.519531 119.738281 C 335.316406 120.816406 336.085938 121.910156 336.832031 123.023438 C 337.574219 124.136719 338.292969 125.265625 338.980469 126.414062 C 339.667969 127.5625 340.328125 128.730469 340.960938 129.910156 C 341.589844 131.089844 342.191406 132.285156 342.765625 133.496094 C 343.335938 134.707031 343.878906 135.929688 344.390625 137.167969 C 344.902344 138.40625 345.386719 139.652344 345.835938 140.914062 C 346.289062 142.175781 346.707031 143.445312 347.097656 144.726562 C 347.484375 146.007812 347.84375 147.296875 348.167969 148.597656 C 348.492188 149.894531 348.785156 151.203125 349.046875 152.515625 C 349.308594 153.828125 349.539062 155.148438 349.734375 156.472656 C 349.929688 157.796875 350.09375 159.125 350.226562 160.457031 C 350.355469 161.789062 350.453125 163.125 350.519531 164.460938 C 350.585938 165.796875 350.621094 167.136719 350.621094 168.476562 Z M 350.621094 168.476562 " fill-opacity="1" fill-rule="nonzero"/><path fill="#14171a" d="M 196.621094 168.476562 C 196.621094 169.816406 196.585938 171.152344 196.519531 172.488281 C 196.457031 173.828125 196.355469 175.164062 196.226562 176.496094 C 196.09375 177.828125 195.929688 179.15625 195.734375 180.480469 C 195.539062 181.804688 195.308594 183.125 195.046875 184.4375 C 194.785156 185.75 194.492188 187.054688 194.167969 188.355469 C 193.84375 189.652344 193.484375 190.945312 193.097656 192.226562 C 192.707031 193.507812 192.289062 194.777344 191.835938 196.039062 C 191.386719 197.296875 190.902344 198.546875 190.390625 199.785156 C 189.878906 201.019531 189.335938 202.246094 188.765625 203.457031 C 188.191406 204.664062 187.589844 205.859375 186.960938 207.042969 C 186.328125 208.222656 185.667969 209.386719 184.980469 210.535156 C 184.292969 211.683594 183.574219 212.816406 182.832031 213.929688 C 182.085938 215.042969 181.316406 216.136719 180.519531 217.210938 C 179.722656 218.285156 178.898438 219.34375 178.046875 220.378906 C 177.199219 221.410156 176.324219 222.425781 175.425781 223.417969 C 174.527344 224.410156 173.605469 225.378906 172.65625 226.324219 C 171.710938 227.273438 170.742188 228.195312 169.75 229.09375 C 168.757812 229.992188 167.742188 230.867188 166.707031 231.71875 C 165.671875 232.566406 164.617188 233.390625 163.542969 234.1875 C 162.46875 234.984375 161.371094 235.757812 160.257812 236.5 C 159.144531 237.246094 158.015625 237.960938 156.867188 238.648438 C 155.71875 239.335938 154.554688 239.996094 153.371094 240.628906 C 152.191406 241.257812 150.996094 241.859375 149.785156 242.433594 C 148.574219 243.003906 147.351562 243.546875 146.113281 244.0625 C 144.878906 244.574219 143.628906 245.054688 142.367188 245.503906 C 141.109375 245.957031 139.835938 246.375 138.554688 246.765625 C 137.273438 247.152344 135.984375 247.511719 134.6875 247.835938 C 133.386719 248.160156 132.082031 248.453125 130.769531 248.714844 C 129.453125 248.976562 128.136719 249.207031 126.8125 249.402344 C 125.488281 249.597656 124.160156 249.761719 122.824219 249.894531 C 121.492188 250.027344 120.160156 250.125 118.820312 250.191406 C 117.484375 250.253906 116.144531 250.289062 114.808594 250.289062 C 113.46875 250.289062 112.128906 250.253906 110.792969 250.191406 C 109.457031 250.125 108.121094 250.027344 106.789062 249.894531 C 105.457031 249.761719 104.125 249.597656 102.800781 249.402344 C 101.476562 249.207031 100.160156 248.976562 98.847656 248.714844 C 97.53125 248.453125 96.226562 248.160156 94.929688 247.835938 C 93.628906 247.511719 92.339844 247.152344 91.058594 246.765625 C 89.777344 246.375 88.503906 245.957031 87.246094 245.503906 C 85.984375 245.054688 84.734375 244.574219 83.5 244.0625 C 82.261719 243.546875 81.039062 243.003906 79.828125 242.433594 C 78.617188 241.859375 77.421875 241.257812 76.242188 240.628906 C 75.058594 239.996094 73.894531 239.335938 72.746094 238.648438 C 71.597656 237.960938 70.46875 237.246094 69.355469 236.5 C 68.242188 235.757812 67.148438 234.984375 66.070312 234.1875 C 64.996094 233.390625 63.941406 232.566406 62.90625 231.71875 C 61.871094 230.867188 60.855469 229.992188 59.863281 229.09375 C 58.871094 228.195312 57.902344 227.273438 56.957031 226.324219 C 56.011719 225.378906 55.085938 224.410156 54.1875 223.417969 C 53.289062 222.425781 52.414062 221.410156 51.566406 220.378906 C 50.714844 219.34375 49.890625 218.285156 49.09375 217.210938 C 48.296875 216.136719 47.527344 215.042969 46.78125 213.929688 C 46.039062 212.816406 45.324219 211.683594 44.632812 210.535156 C 43.945312 209.386719 43.285156 208.222656 42.65625 207.042969 C 42.023438 205.859375 41.421875 204.664062 40.847656 203.457031 C 40.277344 202.246094 39.734375 201.019531 39.222656 199.785156 C 38.710938 198.546875 38.226562 197.296875 37.777344 196.039062 C 37.324219 194.777344 36.90625 193.507812 36.515625 192.226562 C 36.128906 190.945312 35.773438 189.652344 35.445312 188.355469 C 35.121094 187.054688 34.828125 185.75 34.566406 184.4375 C 34.304688 183.125 34.078125 181.804688 33.878906 180.480469 C 33.683594 179.15625 33.519531 177.828125 33.386719 176.496094 C 33.257812 175.164062 33.160156 173.828125 33.09375 172.488281 C 33.027344 171.152344 32.996094 169.816406 32.996094 168.476562 C 32.996094 167.136719 33.027344 165.796875 33.09375 164.460938 C 33.160156 163.125 33.257812 161.789062 33.386719 160.457031 C 33.519531 159.125 33.683594 157.796875 33.878906 156.472656 C 34.078125 155.148438 34.304688 153.828125 34.566406 152.515625 C 34.828125 151.203125 35.121094 149.894531 35.445312 148.597656 C 35.773438 147.296875 36.128906 146.007812 36.515625 144.726562 C 36.90625 143.445312 37.324219 142.175781 37.777344 140.914062 C 38.226562 139.652344 38.710938 138.40625 39.222656 137.167969 C 39.734375 135.929688 40.277344 134.707031 40.847656 133.496094 C 41.421875 132.285156 42.023438 131.089844 42.65625 129.910156 C 43.285156 128.730469 43.945312 127.5625 44.632812 126.414062 C 45.324219 125.265625 46.039062 124.136719 46.78125 123.023438 C 47.527344 121.910156 48.296875 120.816406 49.09375 119.738281 C 49.890625 118.664062 50.714844 117.609375 51.566406 116.574219 C 52.414062 115.539062 53.289062 114.527344 54.1875 113.535156 C 55.085938 112.542969 56.011719 111.574219 56.957031 110.625 C 57.902344 109.679688 58.871094 108.757812 59.863281 107.855469 C 60.855469 106.957031 61.871094 106.082031 62.90625 105.234375 C 63.941406 104.382812 64.996094 103.5625 66.070312 102.761719 C 67.148438 101.964844 68.242188 101.195312 69.355469 100.453125 C 70.46875 99.707031 71.597656 98.992188 72.746094 98.304688 C 73.894531 97.613281 75.058594 96.953125 76.242188 96.324219 C 77.421875 95.691406 78.617188 95.089844 79.828125 94.519531 C 81.039062 93.945312 82.261719 93.402344 83.5 92.890625 C 84.734375 92.378906 85.984375 91.898438 87.246094 91.445312 C 88.503906 90.996094 89.777344 90.574219 91.058594 90.1875 C 92.339844 89.796875 93.628906 89.441406 94.929688 89.113281 C 96.226562 88.789062 97.53125 88.496094 98.847656 88.234375 C 100.160156 87.972656 101.476562 87.746094 102.800781 87.546875 C 104.125 87.351562 105.457031 87.1875 106.789062 87.058594 C 108.121094 86.925781 109.457031 86.828125 110.792969 86.761719 C 112.128906 86.695312 113.46875 86.664062 114.808594 86.664062 C 116.144531 86.664062 117.484375 86.695312 118.820312 86.761719 C 120.160156 86.828125 121.492188 86.925781 122.824219 87.058594 C 124.160156 87.1875 125.488281 87.351562 126.8125 87.546875 C 128.136719 87.746094 129.453125 87.972656 130.769531 88.234375 C 132.082031 88.496094 133.386719 88.789062 134.6875 89.113281 C 135.984375 89.441406 137.273438 89.796875 138.554688 90.1875 C 139.835938 90.574219 141.109375 90.996094 142.367188 91.445312 C 143.628906 91.898438 144.878906 92.378906 146.113281 92.890625 C 147.351562 93.402344 148.574219 93.945312 149.785156 94.519531 C 150.996094 95.089844 152.191406 95.691406 153.371094 96.324219 C 154.554688 96.953125 155.71875 97.613281 156.867188 98.304688 C 158.015625 98.992188 159.144531 99.707031 160.257812 100.453125 C 161.371094 101.195312 162.46875 101.964844 163.542969 102.761719 C 164.617188 103.5625 165.671875 104.382812 166.707031 105.234375 C 167.742188 106.082031 168.757812 106.957031 169.75 107.855469 C 170.742188 108.757812 171.710938 109.679688 172.65625 110.625 C 173.605469 111.574219 174.527344 112.542969 175.425781 113.535156 C 176.324219 114.527344 177.199219 115.539062 178.046875 116.574219 C 178.898438 117.609375 179.722656 118.664062 180.519531 119.738281 C 181.316406 120.816406 182.085938 121.910156 182.832031 123.023438 C 183.574219 124.136719 184.292969 125.265625 184.980469 126.414062 C 185.667969 127.5625 186.328125 128.730469 186.960938 129.910156 C 187.589844 131.089844 188.191406 132.285156 188.765625 133.496094 C 189.335938 134.707031 189.878906 135.929688 190.390625 137.167969 C 190.902344 138.40625 191.386719 139.652344 191.835938 140.914062 C 192.289062 142.175781 192.707031 143.445312 193.097656 144.726562 C 193.484375 146.007812 193.84375 147.296875 194.167969 148.597656 C 194.492188 149.894531 194.785156 151.203125 195.046875 152.515625 C 195.308594 153.828125 195.539062 155.148438 195.734375 156.472656 C 195.929688 157.796875 196.09375 159.125 196.226562 160.457031 C 196.355469 161.789062 196.457031 163.125 196.519531 164.460938 C 196.585938 165.796875 196.621094 167.136719 196.621094 168.476562 Z M 196.621094 168.476562 " fill-opacity="1" fill-rule="nonzero"/><path fill="#14171a" d="M 114.808594 86.664062 L 268.808594 86.664062 L 268.808594 249.035156 L 114.808594 249.035156 Z M 114.808594 86.664062 " fill-opacity="1" fill-rule="nonzero"/><path fill="#14171a" d="M 192.769531 243.070312 C 192.769531 244.644531 192.691406 246.21875 192.539062 247.785156 C 192.382812 249.355469 192.152344 250.914062 191.84375 252.457031 C 191.539062 254.003906 191.15625 255.53125 190.695312 257.039062 C 190.238281 258.546875 189.710938 260.03125 189.105469 261.484375 C 188.503906 262.941406 187.828125 264.367188 187.085938 265.753906 C 186.34375 267.144531 185.535156 268.496094 184.660156 269.804688 C 183.78125 271.117188 182.84375 272.382812 181.84375 273.601562 C 180.84375 274.816406 179.789062 275.984375 178.675781 277.097656 C 177.558594 278.214844 176.394531 279.269531 175.175781 280.269531 C 173.957031 281.269531 172.691406 282.207031 171.382812 283.085938 C 170.070312 283.960938 168.71875 284.769531 167.332031 285.511719 C 165.941406 286.253906 164.515625 286.929688 163.0625 287.53125 C 161.605469 288.132812 160.121094 288.664062 158.613281 289.121094 C 157.105469 289.578125 155.578125 289.960938 154.03125 290.269531 C 152.488281 290.578125 150.929688 290.808594 149.363281 290.960938 C 147.792969 291.117188 146.21875 291.195312 144.644531 291.195312 C 143.066406 291.195312 141.496094 291.117188 139.925781 290.960938 C 138.359375 290.808594 136.800781 290.578125 135.253906 290.269531 C 133.710938 289.960938 132.183594 289.578125 130.675781 289.121094 C 129.167969 288.664062 127.683594 288.132812 126.226562 287.53125 C 124.773438 286.929688 123.347656 286.253906 121.957031 285.511719 C 120.566406 284.769531 119.21875 283.960938 117.90625 283.082031 C 116.597656 282.207031 115.332031 281.269531 114.113281 280.269531 C 112.894531 279.269531 111.730469 278.214844 110.613281 277.097656 C 109.5 275.984375 108.441406 274.816406 107.441406 273.601562 C 106.441406 272.382812 105.503906 271.117188 104.628906 269.804688 C 103.753906 268.496094 102.945312 267.144531 102.203125 265.753906 C 101.457031 264.367188 100.785156 262.941406 100.183594 261.484375 C 99.578125 260.03125 99.050781 258.546875 98.589844 257.039062 C 98.132812 255.53125 97.75 254.003906 97.445312 252.457031 C 97.136719 250.914062 96.90625 249.355469 96.75 247.785156 C 96.597656 246.21875 96.519531 244.644531 96.519531 243.070312 C 96.519531 241.492188 96.597656 239.921875 96.75 238.351562 C 96.90625 236.785156 97.136719 235.226562 97.445312 233.679688 C 97.75 232.136719 98.132812 230.609375 98.589844 229.097656 C 99.050781 227.589844 99.578125 226.109375 100.183594 224.652344 C 100.785156 223.195312 101.457031 221.773438 102.203125 220.382812 C 102.945312 218.992188 103.753906 217.644531 104.628906 216.332031 C 105.503906 215.023438 106.441406 213.757812 107.441406 212.539062 C 108.441406 211.320312 109.5 210.15625 110.613281 209.039062 C 111.730469 207.925781 112.894531 206.867188 114.113281 205.867188 C 115.332031 204.867188 116.597656 203.929688 117.90625 203.054688 C 119.21875 202.179688 120.566406 201.371094 121.957031 200.628906 C 123.347656 199.882812 124.773438 199.210938 126.226562 198.609375 C 127.683594 198.003906 129.167969 197.472656 130.675781 197.015625 C 132.183594 196.558594 133.710938 196.175781 135.253906 195.871094 C 136.800781 195.5625 138.359375 195.332031 139.925781 195.175781 C 141.496094 195.023438 143.066406 194.945312 144.644531 194.945312 C 146.21875 194.945312 147.792969 195.023438 149.363281 195.175781 C 150.929688 195.332031 152.488281 195.5625 154.03125 195.871094 C 155.578125 196.175781 157.105469 196.558594 158.613281 197.015625 C 160.121094 197.472656 161.605469 198.003906 163.0625 198.609375 C 164.515625 199.210938 165.941406 199.882812 167.332031 200.628906 C 168.71875 201.371094 170.070312 202.179688 171.382812 203.054688 C 172.691406 203.929688 173.957031 204.867188 175.175781 205.867188 C 176.394531 206.867188 177.558594 207.925781 178.675781 209.039062 C 179.789062 210.15625 180.84375 211.320312 181.84375 212.539062 C 182.84375 213.757812 183.78125 215.023438 184.660156 216.332031 C 185.535156 217.644531 186.34375 218.992188 187.085938 220.382812 C 187.828125 221.773438 188.503906 223.195312 189.105469 224.652344 C 189.710938 226.109375 190.238281 227.589844 190.695312 229.097656 C 191.15625 230.609375 191.539062 232.136719 191.84375 233.679688 C 192.152344 235.226562 192.382812 236.785156 192.539062 238.351562 C 192.691406 239.921875 192.769531 241.492188 192.769531 243.070312 Z M 192.769531 243.070312 " fill-opacity="1" fill-rule="nonzero"/><path fill="#14171a" d="M 287.09375 243.070312 C 287.09375 244.644531 287.015625 246.21875 286.863281 247.785156 C 286.707031 249.355469 286.476562 250.914062 286.167969 252.457031 C 285.863281 254.003906 285.480469 255.53125 285.023438 257.039062 C 284.566406 258.546875 284.035156 260.03125 283.429688 261.484375 C 282.828125 262.941406 282.15625 264.367188 281.410156 265.753906 C 280.667969 267.144531 279.859375 268.496094 278.984375 269.804688 C 278.109375 271.117188 277.171875 272.382812 276.171875 273.601562 C 275.171875 274.816406 274.113281 275.984375 273 277.097656 C 271.882812 278.214844 270.71875 279.269531 269.5 280.269531 C 268.28125 281.269531 267.015625 282.207031 265.707031 283.085938 C 264.394531 283.960938 263.046875 284.769531 261.65625 285.511719 C 260.265625 286.253906 258.84375 286.929688 257.386719 287.53125 C 255.929688 288.132812 254.449219 288.664062 252.9375 289.121094 C 251.429688 289.578125 249.902344 289.960938 248.359375 290.269531 C 246.8125 290.578125 245.253906 290.808594 243.6875 290.960938 C 242.117188 291.117188 240.546875 291.195312 238.96875 291.195312 C 237.394531 291.195312 235.820312 291.117188 234.253906 290.960938 C 232.683594 290.808594 231.125 290.578125 229.582031 290.269531 C 228.035156 289.960938 226.507812 289.578125 225 289.121094 C 223.492188 288.664062 222.007812 288.132812 220.550781 287.53125 C 219.097656 286.929688 217.671875 286.253906 216.285156 285.511719 C 214.894531 284.769531 213.542969 283.960938 212.234375 283.082031 C 210.921875 282.207031 209.65625 281.269531 208.4375 280.269531 C 207.222656 279.269531 206.054688 278.214844 204.941406 277.097656 C 203.824219 275.984375 202.769531 274.816406 201.769531 273.601562 C 200.769531 272.382812 199.832031 271.117188 198.953125 269.804688 C 198.078125 268.496094 197.269531 267.144531 196.527344 265.753906 C 195.785156 264.367188 195.109375 262.941406 194.507812 261.484375 C 193.90625 260.03125 193.375 258.546875 192.917969 257.039062 C 192.460938 255.53125 192.078125 254.003906 191.769531 252.457031 C 191.460938 250.914062 191.230469 249.355469 191.074219 247.785156 C 190.921875 246.21875 190.84375 244.644531 190.84375 243.070312 C 190.84375 241.492188 190.921875 239.921875 191.074219 238.351562 C 191.230469 236.785156 191.460938 235.226562 191.769531 233.679688 C 192.078125 232.136719 192.460938 230.609375 192.917969 229.097656 C 193.375 227.589844 193.90625 226.109375 194.507812 224.652344 C 195.109375 223.195312 195.785156 221.773438 196.527344 220.382812 C 197.269531 218.992188 198.078125 217.644531 198.953125 216.332031 C 199.832031 215.023438 200.769531 213.757812 201.769531 212.539062 C 202.769531 211.320312 203.824219 210.15625 204.941406 209.039062 C 206.054688 207.925781 207.222656 206.867188 208.4375 205.867188 C 209.65625 204.867188 210.921875 203.929688 212.234375 203.054688 C 213.542969 202.179688 214.894531 201.371094 216.285156 200.628906 C 217.671875 199.882812 219.097656 199.210938 220.550781 198.609375 C 222.007812 198.003906 223.492188 197.472656 225 197.015625 C 226.507812 196.558594 228.035156 196.175781 229.582031 195.871094 C 231.125 195.5625 232.683594 195.332031 234.253906 195.175781 C 235.820312 195.023438 237.394531 194.945312 238.96875 194.945312 C 240.546875 194.945312 242.117188 195.023438 243.6875 195.175781 C 245.253906 195.332031 246.8125 195.5625 248.359375 195.871094 C 249.902344 196.175781 251.429688 196.558594 252.9375 197.015625 C 254.449219 197.472656 255.929688 198.003906 257.386719 198.609375 C 258.84375 199.210938 260.265625 199.882812 261.65625 200.628906 C 263.046875 201.371094 264.394531 202.179688 265.707031 203.054688 C 267.015625 203.929688 268.28125 204.867188 269.5 205.867188 C 270.71875 206.867188 271.882812 207.925781 273 209.039062 C 274.113281 210.15625 275.171875 211.320312 276.171875 212.539062 C 277.171875 213.757812 278.109375 215.023438 278.984375 216.332031 C 279.859375 217.644531 280.667969 218.992188 281.410156 220.382812 C 282.15625 221.773438 282.828125 223.195312 283.429688 224.652344 C 284.035156 226.109375 284.566406 227.589844 285.023438 229.097656 C 285.480469 230.609375 285.863281 232.136719 286.167969 233.679688 C 286.476562 235.226562 286.707031 236.785156 286.863281 238.351562 C 287.015625 239.921875 287.09375 241.492188 287.09375 243.070312 Z M 287.09375 243.070312 " fill-opacity="1" fill-rule="nonzero"/><path fill="#67757f" d="M 267.84375 243.070312 C 267.84375 244.015625 267.796875 244.957031 267.707031 245.898438 C 267.613281 246.839844 267.472656 247.773438 267.289062 248.703125 C 267.105469 249.628906 266.875 250.546875 266.601562 251.453125 C 266.328125 252.355469 266.007812 253.246094 265.644531 254.121094 C 265.285156 254.992188 264.878906 255.847656 264.433594 256.679688 C 263.988281 257.515625 263.503906 258.324219 262.976562 259.113281 C 262.453125 259.898438 261.890625 260.65625 261.289062 261.386719 C 260.691406 262.117188 260.054688 262.820312 259.386719 263.488281 C 258.71875 264.15625 258.019531 264.789062 257.289062 265.390625 C 256.554688 265.988281 255.796875 266.554688 255.011719 267.078125 C 254.226562 267.605469 253.414062 268.089844 252.582031 268.535156 C 251.746094 268.980469 250.894531 269.382812 250.019531 269.746094 C 249.144531 270.109375 248.257812 270.425781 247.351562 270.703125 C 246.445312 270.976562 245.53125 271.207031 244.601562 271.390625 C 243.675781 271.574219 242.742188 271.710938 241.800781 271.804688 C 240.859375 271.898438 239.914062 271.945312 238.96875 271.945312 C 238.023438 271.945312 237.082031 271.898438 236.140625 271.804688 C 235.199219 271.710938 234.261719 271.574219 233.335938 271.390625 C 232.410156 271.207031 231.492188 270.976562 230.585938 270.703125 C 229.683594 270.425781 228.792969 270.109375 227.917969 269.746094 C 227.046875 269.382812 226.191406 268.980469 225.359375 268.535156 C 224.523438 268.089844 223.714844 267.605469 222.925781 267.078125 C 222.140625 266.554688 221.382812 265.988281 220.652344 265.390625 C 219.921875 264.789062 219.21875 264.15625 218.550781 263.488281 C 217.882812 262.820312 217.25 262.117188 216.648438 261.386719 C 216.046875 260.65625 215.484375 259.898438 214.960938 259.113281 C 214.433594 258.324219 213.949219 257.515625 213.503906 256.679688 C 213.058594 255.847656 212.652344 254.992188 212.292969 254.121094 C 211.929688 253.246094 211.613281 252.355469 211.335938 251.453125 C 211.0625 250.546875 210.832031 249.628906 210.648438 248.703125 C 210.464844 247.773438 210.324219 246.839844 210.234375 245.898438 C 210.140625 244.957031 210.09375 244.015625 210.09375 243.070312 C 210.09375 242.125 210.140625 241.179688 210.234375 240.238281 C 210.324219 239.296875 210.464844 238.363281 210.648438 237.4375 C 210.832031 236.507812 211.0625 235.59375 211.335938 234.6875 C 211.613281 233.78125 211.929688 232.894531 212.292969 232.019531 C 212.652344 231.144531 213.058594 230.292969 213.503906 229.457031 C 213.949219 228.625 214.433594 227.8125 214.960938 227.027344 C 215.484375 226.242188 216.046875 225.484375 216.648438 224.75 C 217.25 224.019531 217.882812 223.320312 218.550781 222.652344 C 219.21875 221.984375 219.921875 221.347656 220.652344 220.75 C 221.382812 220.148438 222.140625 219.585938 222.925781 219.0625 C 223.714844 218.535156 224.523438 218.050781 225.359375 217.605469 C 226.191406 217.160156 227.046875 216.753906 227.917969 216.390625 C 228.792969 216.03125 229.683594 215.710938 230.585938 215.4375 C 231.492188 215.164062 232.410156 214.933594 233.335938 214.75 C 234.261719 214.566406 235.199219 214.425781 236.140625 214.332031 C 237.082031 214.242188 238.023438 214.195312 238.96875 214.195312 C 239.914062 214.195312 240.859375 214.242188 241.800781 214.332031 C 242.742188 214.425781 243.675781 214.566406 244.601562 214.75 C 245.53125 214.933594 246.445312 215.164062 247.351562 215.4375 C 248.257812 215.710938 249.144531 216.03125 250.019531 216.390625 C 250.894531 216.753906 251.746094 217.160156 252.582031 217.605469 C 253.414062 218.050781 254.226562 218.535156 255.011719 219.0625 C 255.796875 219.585938 256.554688 220.148438 257.289062 220.75 C 258.019531 221.347656 258.71875 221.984375 259.386719 222.652344 C 260.054688 223.320312 260.691406 224.019531 261.289062 224.75 C 261.890625 225.484375 262.453125 226.242188 262.976562 227.027344 C 263.503906 227.8125 263.988281 228.625 264.433594 229.457031 C 264.878906 230.292969 265.285156 231.144531 265.644531 232.019531 C 266.007812 232.894531 266.328125 233.78125 266.601562 234.6875 C 266.875 235.59375 267.105469 236.507812 267.289062 237.4375 C 267.472656 238.363281 267.613281 239.296875 267.707031 240.238281 C 267.796875 241.179688 267.84375 242.125 267.84375 243.070312 Z M 267.84375 243.070312 " fill-opacity="1" fill-rule="nonzero"/><path fill="#67757f" d="M 173.519531 243.070312 C 173.519531 244.015625 173.472656 244.957031 173.378906 245.898438 C 173.289062 246.839844 173.148438 247.773438 172.964844 248.703125 C 172.78125 249.628906 172.550781 250.546875 172.277344 251.453125 C 172 252.355469 171.683594 253.246094 171.320312 254.121094 C 170.960938 254.992188 170.554688 255.847656 170.109375 256.679688 C 169.664062 257.515625 169.179688 258.324219 168.652344 259.113281 C 168.128906 259.898438 167.566406 260.65625 166.964844 261.386719 C 166.363281 262.117188 165.730469 262.820312 165.0625 263.488281 C 164.394531 264.15625 163.695312 264.789062 162.960938 265.390625 C 162.230469 265.988281 161.472656 266.554688 160.6875 267.078125 C 159.898438 267.605469 159.089844 268.089844 158.257812 268.535156 C 157.421875 268.980469 156.566406 269.382812 155.695312 269.746094 C 154.820312 270.109375 153.929688 270.425781 153.027344 270.703125 C 152.121094 270.976562 151.207031 271.207031 150.277344 271.390625 C 149.351562 271.574219 148.414062 271.710938 147.472656 271.804688 C 146.535156 271.898438 145.589844 271.945312 144.644531 271.945312 C 143.699219 271.945312 142.753906 271.898438 141.8125 271.804688 C 140.871094 271.710938 139.9375 271.574219 139.011719 271.390625 C 138.082031 271.207031 137.167969 270.976562 136.261719 270.703125 C 135.355469 270.425781 134.46875 270.109375 133.59375 269.746094 C 132.71875 269.382812 131.867188 268.980469 131.03125 268.535156 C 130.199219 268.089844 129.386719 267.605469 128.601562 267.078125 C 127.816406 266.554688 127.058594 265.988281 126.328125 265.390625 C 125.59375 264.789062 124.894531 264.15625 124.226562 263.488281 C 123.558594 262.820312 122.921875 262.117188 122.324219 261.386719 C 121.722656 260.65625 121.160156 259.898438 120.636719 259.113281 C 120.109375 258.324219 119.625 257.515625 119.179688 256.679688 C 118.734375 255.847656 118.328125 254.992188 117.96875 254.121094 C 117.605469 253.246094 117.289062 252.355469 117.011719 251.453125 C 116.738281 250.546875 116.507812 249.628906 116.324219 248.703125 C 116.140625 247.773438 116 246.839844 115.910156 245.898438 C 115.816406 244.957031 115.769531 244.015625 115.769531 243.070312 C 115.769531 242.125 115.816406 241.179688 115.910156 240.238281 C 116 239.296875 116.140625 238.363281 116.324219 237.4375 C 116.507812 236.507812 116.738281 235.59375 117.011719 234.6875 C 117.289062 233.78125 117.605469 232.894531 117.96875 232.019531 C 118.328125 231.144531 118.734375 230.292969 119.179688 229.457031 C 119.625 228.625 120.109375 227.8125 120.636719 227.027344 C 121.160156 226.242188 121.722656 225.484375 122.324219 224.75 C 122.921875 224.019531 123.558594 223.320312 124.226562 222.652344 C 124.894531 221.984375 125.59375 221.347656 126.328125 220.75 C 127.058594 220.148438 127.816406 219.585938 128.601562 219.0625 C 129.386719 218.535156 130.199219 218.050781 131.03125 217.605469 C 131.867188 217.160156 132.71875 216.753906 133.59375 216.390625 C 134.46875 216.03125 135.355469 215.710938 136.261719 215.4375 C 137.167969 215.164062 138.082031 214.933594 139.011719 214.75 C 139.9375 214.566406 140.871094 214.425781 141.8125 214.332031 C 142.753906 214.242188 143.699219 214.195312 144.644531 214.195312 C 145.589844 214.195312 146.535156 214.242188 147.472656 214.332031 C 148.414062 214.425781 149.351562 214.566406 150.277344 214.75 C 151.207031 214.933594 152.121094 215.164062 153.027344 215.4375 C 153.929688 215.710938 154.820312 216.03125 155.695312 216.390625 C 156.566406 216.753906 157.421875 217.160156 158.257812 217.605469 C 159.089844 218.050781 159.898438 218.535156 160.6875 219.0625 C 161.472656 219.585938 162.230469 220.148438 162.960938 220.75 C 163.695312 221.347656 164.394531 221.984375 165.0625 222.652344 C 165.730469 223.320312 166.363281 224.019531 166.964844 224.75 C 167.566406 225.484375 168.128906 226.242188 168.652344 227.027344 C 169.179688 227.8125 169.664062 228.625 170.109375 229.457031 C 170.554688 230.292969 170.960938 231.144531 171.320312 232.019531 C 171.683594 232.894531 172 233.78125 172.277344 234.6875 C 172.550781 235.59375 172.78125 236.507812 172.964844 237.4375 C 173.148438 238.363281 173.289062 239.296875 173.378906 240.238281 C 173.472656 241.179688 173.519531 242.125 173.519531 243.070312 Z M 173.519531 243.070312 " fill-opacity="1" fill-rule="nonzero"/><path fill="#ffcc4d" d="M 281.925781 125.953125 C 281.925781 126.964844 281.828125 127.96875 281.628906 128.960938 C 281.429688 129.957031 281.140625 130.921875 280.75 131.855469 C 280.363281 132.792969 279.886719 133.683594 279.324219 134.523438 C 278.761719 135.367188 278.121094 136.144531 277.40625 136.863281 C 276.691406 137.578125 275.910156 138.21875 275.070312 138.78125 C 274.226562 139.34375 273.335938 139.820312 272.402344 140.207031 C 271.464844 140.59375 270.5 140.886719 269.507812 141.085938 C 268.511719 141.28125 267.511719 141.382812 266.496094 141.382812 C 265.484375 141.382812 264.480469 141.28125 263.488281 141.085938 C 262.492188 140.886719 261.527344 140.59375 260.59375 140.207031 C 259.65625 139.820312 258.765625 139.34375 257.925781 138.78125 C 257.082031 138.21875 256.304688 137.578125 255.585938 136.863281 C 254.871094 136.144531 254.230469 135.367188 253.667969 134.523438 C 253.105469 133.683594 252.628906 132.792969 252.242188 131.855469 C 251.855469 130.921875 251.5625 129.957031 251.363281 128.960938 C 251.167969 127.96875 251.066406 126.964844 251.066406 125.953125 C 251.066406 124.941406 251.167969 123.9375 251.363281 122.941406 C 251.5625 121.949219 251.855469 120.984375 252.242188 120.046875 C 252.628906 119.113281 253.105469 118.222656 253.667969 117.378906 C 254.230469 116.539062 254.871094 115.757812 255.585938 115.042969 C 256.304688 114.328125 257.082031 113.6875 257.925781 113.125 C 258.765625 112.5625 259.65625 112.085938 260.59375 111.699219 C 261.527344 111.308594 262.492188 111.019531 263.488281 110.820312 C 264.480469 110.621094 265.484375 110.523438 266.496094 110.523438 C 267.511719 110.523438 268.511719 110.621094 269.507812 110.820312 C 270.5 111.019531 271.464844 111.308594 272.402344 111.699219 C 273.335938 112.085938 274.226562 112.5625 275.070312 113.125 C 275.910156 113.6875 276.691406 114.328125 277.40625 115.042969 C 278.121094 115.757812 278.761719 116.539062 279.324219 117.378906 C 279.886719 118.222656 280.363281 119.113281 280.75 120.046875 C 281.140625 120.984375 281.429688 121.949219 281.628906 122.941406 C 281.828125 123.9375 281.925781 124.941406 281.925781 125.953125 Z M 281.925781 125.953125 " fill-opacity="1" fill-rule="nonzero"/><path fill="#77b255" d="M 281.925781 188.265625 C 281.925781 189.277344 281.828125 190.28125 281.628906 191.273438 C 281.429688 192.269531 281.140625 193.234375 280.75 194.167969 C 280.363281 195.105469 279.886719 195.996094 279.324219 196.835938 C 278.761719 197.679688 278.121094 198.457031 277.40625 199.175781 C 276.691406 199.890625 275.910156 200.53125 275.070312 201.09375 C 274.226562 201.65625 273.335938 202.132812 272.402344 202.519531 C 271.464844 202.90625 270.5 203.199219 269.507812 203.398438 C 268.511719 203.59375 267.511719 203.695312 266.496094 203.695312 C 265.484375 203.695312 264.480469 203.59375 263.488281 203.398438 C 262.492188 203.199219 261.527344 202.90625 260.59375 202.519531 C 259.65625 202.132812 258.765625 201.65625 257.925781 201.09375 C 257.082031 200.53125 256.304688 199.890625 255.585938 199.175781 C 254.871094 198.457031 254.230469 197.679688 253.667969 196.835938 C 253.105469 195.996094 252.628906 195.105469 252.242188 194.167969 C 251.855469 193.234375 251.5625 192.269531 251.363281 191.273438 C 251.167969 190.28125 251.066406 189.277344 251.066406 188.265625 C 251.066406 187.25 251.167969 186.25 251.363281 185.253906 C 251.5625 184.261719 251.855469 183.296875 252.242188 182.359375 C 252.628906 181.425781 253.105469 180.535156 253.667969 179.691406 C 254.230469 178.851562 254.871094 178.070312 255.585938 177.355469 C 256.304688 176.636719 257.082031 176 257.925781 175.4375 C 258.765625 174.875 259.65625 174.398438 260.59375 174.011719 C 261.527344 173.621094 262.492188 173.328125 263.488281 173.132812 C 264.480469 172.933594 265.484375 172.835938 266.496094 172.835938 C 267.511719 172.835938 268.511719 172.933594 269.507812 173.132812 C 270.5 173.328125 271.464844 173.621094 272.402344 174.011719 C 273.335938 174.398438 274.226562 174.875 275.070312 175.4375 C 275.910156 176 276.691406 176.636719 277.40625 177.355469 C 278.121094 178.070312 278.761719 178.851562 279.324219 179.691406 C 279.886719 180.535156 280.363281 181.425781 280.75 182.359375 C 281.140625 183.296875 281.429688 184.261719 281.628906 185.253906 C 281.828125 186.25 281.925781 187.25 281.925781 188.265625 Z M 281.925781 188.265625 " fill-opacity="1" fill-rule="nonzero"/><path fill="#50a5e6" d="M 250.769531 157.109375 C 250.769531 158.121094 250.671875 159.125 250.472656 160.117188 C 250.277344 161.113281 249.984375 162.078125 249.59375 163.011719 C 249.207031 163.949219 248.730469 164.839844 248.167969 165.679688 C 247.605469 166.523438 246.96875 167.300781 246.25 168.019531 C 245.535156 168.734375 244.753906 169.375 243.914062 169.9375 C 243.070312 170.5 242.179688 170.976562 241.246094 171.363281 C 240.308594 171.75 239.34375 172.042969 238.351562 172.242188 C 237.355469 172.4375 236.355469 172.539062 235.339844 172.539062 C 234.328125 172.539062 233.324219 172.4375 232.332031 172.242188 C 231.335938 172.042969 230.371094 171.75 229.4375 171.363281 C 228.5 170.976562 227.609375 170.5 226.769531 169.9375 C 225.925781 169.375 225.148438 168.734375 224.429688 168.019531 C 223.714844 167.300781 223.074219 166.523438 222.511719 165.679688 C 221.949219 164.839844 221.472656 163.949219 221.085938 163.011719 C 220.699219 162.078125 220.40625 161.113281 220.207031 160.117188 C 220.011719 159.125 219.910156 158.121094 219.910156 157.109375 C 219.910156 156.09375 220.011719 155.09375 220.207031 154.097656 C 220.40625 153.105469 220.699219 152.140625 221.085938 151.203125 C 221.472656 150.269531 221.949219 149.378906 222.511719 148.535156 C 223.074219 147.695312 223.714844 146.914062 224.429688 146.199219 C 225.148438 145.484375 225.925781 144.84375 226.769531 144.28125 C 227.609375 143.71875 228.5 143.242188 229.4375 142.855469 C 230.371094 142.464844 231.335938 142.175781 232.332031 141.976562 C 233.324219 141.777344 234.328125 141.679688 235.339844 141.679688 C 236.355469 141.679688 237.355469 141.777344 238.351562 141.976562 C 239.34375 142.175781 240.308594 142.464844 241.246094 142.855469 C 242.179688 143.242188 243.070312 143.71875 243.914062 144.28125 C 244.753906 144.84375 245.535156 145.484375 246.25 146.199219 C 246.96875 146.914062 247.605469 147.695312 248.167969 148.535156 C 248.730469 149.378906 249.207031 150.269531 249.59375 151.203125 C 249.984375 152.140625 250.277344 153.105469 250.472656 154.097656 C 250.671875 155.09375 250.769531 156.09375 250.769531 157.109375 Z M 250.769531 157.109375 " fill-opacity="1" fill-rule="nonzero"/><path fill="#dd2e44" d="M 313.082031 157.109375 C 313.082031 158.121094 312.984375 159.125 312.785156 160.117188 C 312.585938 161.113281 312.296875 162.078125 311.90625 163.011719 C 311.519531 163.949219 311.042969 164.839844 310.480469 165.679688 C 309.917969 166.523438 309.277344 167.300781 308.5625 168.019531 C 307.847656 168.734375 307.066406 169.375 306.226562 169.9375 C 305.382812 170.5 304.492188 170.976562 303.558594 171.363281 C 302.621094 171.75 301.65625 172.042969 300.664062 172.242188 C 299.667969 172.4375 298.667969 172.539062 297.652344 172.539062 C 296.640625 172.539062 295.636719 172.4375 294.644531 172.242188 C 293.648438 172.042969 292.683594 171.75 291.75 171.363281 C 290.8125 170.976562 289.921875 170.5 289.082031 169.9375 C 288.238281 169.375 287.460938 168.734375 286.742188 168.019531 C 286.027344 167.300781 285.386719 166.523438 284.824219 165.679688 C 284.261719 164.839844 283.785156 163.949219 283.398438 163.011719 C 283.011719 162.078125 282.71875 161.113281 282.519531 160.117188 C 282.324219 159.125 282.222656 158.121094 282.222656 157.109375 C 282.222656 156.09375 282.324219 155.09375 282.519531 154.097656 C 282.71875 153.105469 283.011719 152.140625 283.398438 151.203125 C 283.785156 150.269531 284.261719 149.378906 284.824219 148.535156 C 285.386719 147.695312 286.027344 146.914062 286.742188 146.199219 C 287.460938 145.484375 288.238281 144.84375 289.082031 144.28125 C 289.921875 143.71875 290.8125 143.242188 291.75 142.855469 C 292.683594 142.464844 293.648438 142.175781 294.644531 141.976562 C 295.636719 141.777344 296.640625 141.679688 297.652344 141.679688 C 298.667969 141.679688 299.667969 141.777344 300.664062 141.976562 C 301.65625 142.175781 302.621094 142.464844 303.558594 142.855469 C 304.492188 143.242188 305.382812 143.71875 306.226562 144.28125 C 307.066406 144.84375 307.847656 145.484375 308.5625 146.199219 C 309.277344 146.914062 309.917969 147.695312 310.480469 148.535156 C 311.042969 149.378906 311.519531 150.269531 311.90625 151.203125 C 312.296875 152.140625 312.585938 153.105469 312.785156 154.097656 C 312.984375 155.09375 313.082031 156.09375 313.082031 157.109375 Z M 313.082031 157.109375 " fill-opacity="1" fill-rule="nonzero"/><path fill="#8899a6" d="M 126.097656 139.246094 L 126.097656 118.378906 C 126.097656 118.058594 126.066406 117.742188 126.003906 117.429688 C 125.941406 117.117188 125.847656 116.8125 125.726562 116.519531 C 125.605469 116.222656 125.457031 115.941406 125.277344 115.675781 C 125.101562 115.410156 124.898438 115.167969 124.671875 114.941406 C 124.449219 114.714844 124.203125 114.511719 123.9375 114.335938 C 123.671875 114.160156 123.390625 114.007812 123.097656 113.886719 C 122.800781 113.765625 122.496094 113.671875 122.183594 113.609375 C 121.871094 113.546875 121.554688 113.515625 121.238281 113.515625 L 106.242188 113.515625 C 105.921875 113.515625 105.605469 113.546875 105.292969 113.609375 C 104.980469 113.671875 104.675781 113.765625 104.378906 113.886719 C 104.085938 114.007812 103.804688 114.160156 103.539062 114.335938 C 103.273438 114.511719 103.03125 114.714844 102.804688 114.941406 C 102.578125 115.167969 102.375 115.410156 102.199219 115.675781 C 102.023438 115.941406 101.871094 116.222656 101.75 116.519531 C 101.628906 116.8125 101.535156 117.117188 101.472656 117.429688 C 101.410156 117.742188 101.378906 118.058594 101.378906 118.378906 L 101.378906 139.246094 L 113.738281 151.613281 Z M 101.371094 174.183594 L 101.371094 195.050781 C 101.371094 197.734375 103.546875 199.910156 106.230469 199.910156 L 121.226562 199.910156 C 121.546875 199.910156 121.863281 199.878906 122.175781 199.816406 C 122.488281 199.753906 122.792969 199.664062 123.085938 199.542969 C 123.382812 199.417969 123.660156 199.269531 123.925781 199.09375 C 124.191406 198.914062 124.4375 198.714844 124.664062 198.488281 C 124.890625 198.261719 125.089844 198.015625 125.269531 197.75 C 125.445312 197.484375 125.59375 197.207031 125.71875 196.910156 C 125.839844 196.617188 125.933594 196.3125 125.992188 196 C 126.054688 195.6875 126.085938 195.371094 126.085938 195.050781 L 126.085938 174.183594 L 113.730469 161.816406 Z M 152.085938 144.347656 L 131.21875 144.347656 L 118.847656 156.714844 L 131.21875 169.082031 L 152.085938 169.082031 C 152.402344 169.082031 152.71875 169.050781 153.03125 168.988281 C 153.34375 168.925781 153.648438 168.832031 153.941406 168.710938 C 154.238281 168.585938 154.515625 168.4375 154.78125 168.261719 C 155.046875 168.082031 155.292969 167.882812 155.519531 167.65625 C 155.746094 167.429688 155.945312 167.183594 156.121094 166.917969 C 156.300781 166.65625 156.449219 166.375 156.574219 166.082031 C 156.695312 165.785156 156.789062 165.480469 156.851562 165.167969 C 156.914062 164.855469 156.945312 164.539062 156.945312 164.222656 L 156.945312 149.214844 C 156.945312 148.898438 156.914062 148.582031 156.851562 148.265625 C 156.789062 147.953125 156.699219 147.648438 156.574219 147.355469 C 156.453125 147.058594 156.304688 146.777344 156.125 146.511719 C 155.949219 146.246094 155.746094 146 155.523438 145.777344 C 155.296875 145.550781 155.050781 145.347656 154.785156 145.171875 C 154.519531 144.992188 154.238281 144.84375 153.945312 144.71875 C 153.652344 144.597656 153.347656 144.503906 153.035156 144.441406 C 152.71875 144.378906 152.402344 144.347656 152.085938 144.347656 Z M 96.269531 144.347656 L 75.390625 144.347656 C 75.074219 144.347656 74.757812 144.378906 74.445312 144.441406 C 74.132812 144.503906 73.828125 144.597656 73.535156 144.71875 C 73.238281 144.839844 72.960938 144.992188 72.695312 145.167969 C 72.429688 145.34375 72.183594 145.546875 71.957031 145.773438 C 71.734375 145.996094 71.53125 146.242188 71.355469 146.507812 C 71.175781 146.773438 71.027344 147.054688 70.90625 147.347656 C 70.78125 147.640625 70.691406 147.945312 70.625 148.257812 C 70.5625 148.570312 70.53125 148.886719 70.53125 149.207031 L 70.53125 164.203125 C 70.53125 166.886719 72.707031 169.0625 75.390625 169.0625 L 96.257812 169.0625 L 108.628906 156.695312 Z M 96.269531 144.347656 " fill-opacity="1" fill-rule="nonzero"/></svg>