<svg xmlns="http://www.w3.org/2000/svg" xmlns:xlink="http://www.w3.org/1999/xlink" width="512" zoomAndPan="magnify" viewBox="0 0 384 383.999986" height="512" preserveAspectRatio="xMidYMid meet" version="1.0"><path fill="#1c274c" d="M 346.140625 192.078125 C 346.140625 277.164062 277.164062 346.140625 192.078125 346.140625 C 106.992188 346.140625 38.015625 277.164062 38.015625 192.078125 C 38.015625 106.992188 106.992188 38.015625 192.078125 38.015625 C 277.164062 38.015625 346.140625 106.992188 346.140625 192.078125 Z M 192.078125 280.664062 C 198.460938 280.664062 203.632812 275.492188 203.632812 269.109375 L 203.632812 176.671875 C 203.632812 170.292969 198.460938 165.117188 192.078125 165.117188 C 185.699219 165.117188 180.523438 170.292969 180.523438 176.671875 L 180.523438 269.109375 C 180.523438 275.492188 185.699219 280.664062 192.078125 280.664062 Z M 192.078125 115.046875 C 200.589844 115.046875 207.484375 121.945312 207.484375 130.453125 C 207.484375 138.964844 200.589844 145.859375 192.078125 145.859375 C 183.570312 145.859375 176.671875 138.964844 176.671875 130.453125 C 176.671875 121.945312 183.570312 115.046875 192.078125 115.046875 Z M 192.078125 115.046875 " fill-opacity="1" fill-rule="evenodd"/></svg>