<svg xmlns="http://www.w3.org/2000/svg" xmlns:xlink="http://www.w3.org/1999/xlink" width="512" zoomAndPan="magnify" viewBox="0 0 384 383.999986" height="512" preserveAspectRatio="xMidYMid meet" version="1.0"><defs><clipPath id="2e25603a36"><path d="M 16.785156 16.785156 L 367.035156 16.785156 L 367.035156 367.035156 L 16.785156 367.035156 Z M 16.785156 16.785156 " clip-rule="nonzero"/></clipPath></defs><path fill="#45aab8" d="M 318.722656 349.675781 C 327.269531 358.222656 341.128906 358.222656 349.675781 349.675781 C 358.222656 341.128906 358.222656 327.257812 349.675781 318.714844 L 292.75 261.789062 C 283.960938 273.523438 273.523438 283.953125 261.789062 292.742188 Z M 318.722656 349.675781 " fill-opacity="1" fill-rule="nonzero"/><path fill="#f9ebb2" d="M 290.417969 170.019531 C 290.417969 171.988281 290.371094 173.957031 290.273438 175.925781 C 290.175781 177.894531 290.03125 179.859375 289.839844 181.820312 C 289.644531 183.78125 289.402344 185.734375 289.113281 187.683594 C 288.824219 189.632812 288.488281 191.574219 288.105469 193.507812 C 287.71875 195.441406 287.289062 197.363281 286.808594 199.273438 C 286.332031 201.183594 285.804688 203.082031 285.234375 204.96875 C 284.660156 206.855469 284.042969 208.726562 283.378906 210.582031 C 282.714844 212.433594 282.007812 214.273438 281.253906 216.09375 C 280.5 217.914062 279.699219 219.714844 278.859375 221.496094 C 278.015625 223.277344 277.128906 225.035156 276.203125 226.773438 C 275.273438 228.511719 274.300781 230.226562 273.289062 231.917969 C 272.277344 233.605469 271.222656 235.269531 270.125 236.910156 C 269.03125 238.546875 267.898438 240.15625 266.722656 241.742188 C 265.550781 243.324219 264.339844 244.875 263.089844 246.398438 C 261.839844 247.921875 260.550781 249.414062 259.230469 250.875 C 257.90625 252.332031 256.546875 253.761719 255.152344 255.152344 C 253.761719 256.546875 252.332031 257.90625 250.875 259.230469 C 249.414062 260.550781 247.921875 261.839844 246.398438 263.089844 C 244.875 264.339844 243.324219 265.550781 241.742188 266.722656 C 240.15625 267.898438 238.546875 269.03125 236.910156 270.125 C 235.269531 271.222656 233.605469 272.277344 231.917969 273.289062 C 230.226562 274.300781 228.511719 275.273438 226.773438 276.199219 C 225.035156 277.128906 223.277344 278.015625 221.496094 278.859375 C 219.714844 279.699219 217.914062 280.5 216.09375 281.253906 C 214.273438 282.007812 212.433594 282.714844 210.582031 283.378906 C 208.726562 284.042969 206.855469 284.660156 204.96875 285.234375 C 203.082031 285.804688 201.183594 286.332031 199.273438 286.808594 C 197.363281 287.289062 195.441406 287.71875 193.507812 288.105469 C 191.574219 288.488281 189.632812 288.824219 187.683594 289.113281 C 185.734375 289.402344 183.78125 289.644531 181.820312 289.839844 C 179.859375 290.03125 177.894531 290.175781 175.925781 290.273438 C 173.957031 290.371094 171.988281 290.417969 170.019531 290.417969 C 168.050781 290.417969 166.078125 290.371094 164.113281 290.273438 C 162.144531 290.175781 160.179688 290.03125 158.21875 289.839844 C 156.257812 289.644531 154.300781 289.402344 152.351562 289.113281 C 150.402344 288.824219 148.464844 288.488281 146.53125 288.105469 C 144.597656 287.71875 142.675781 287.289062 140.765625 286.808594 C 138.851562 286.332031 136.953125 285.804688 135.070312 285.234375 C 133.183594 284.660156 131.3125 284.042969 129.457031 283.378906 C 127.601562 282.714844 125.765625 282.007812 123.945312 281.253906 C 122.125 280.5 120.324219 279.699219 118.542969 278.859375 C 116.761719 278.015625 115 277.128906 113.265625 276.199219 C 111.527344 275.273438 109.8125 274.300781 108.121094 273.289062 C 106.433594 272.277344 104.769531 271.222656 103.128906 270.125 C 101.492188 269.03125 99.878906 267.898438 98.296875 266.722656 C 96.714844 265.550781 95.164062 264.339844 93.640625 263.089844 C 92.117188 261.839844 90.625 260.550781 89.164062 259.230469 C 87.703125 257.90625 86.277344 256.546875 84.882812 255.152344 C 83.492188 253.761719 82.132812 252.332031 80.808594 250.875 C 79.488281 249.414062 78.199219 247.921875 76.949219 246.398438 C 75.699219 244.875 74.488281 243.324219 73.3125 241.742188 C 72.140625 240.15625 71.007812 238.546875 69.910156 236.910156 C 68.816406 235.269531 67.761719 233.605469 66.75 231.917969 C 65.738281 230.226562 64.765625 228.511719 63.835938 226.773438 C 62.910156 225.035156 62.023438 223.277344 61.179688 221.496094 C 60.339844 219.714844 59.539062 217.914062 58.785156 216.09375 C 58.03125 214.273438 57.324219 212.433594 56.660156 210.582031 C 55.996094 208.726562 55.378906 206.855469 54.804688 204.96875 C 54.234375 203.082031 53.707031 201.183594 53.230469 199.273438 C 52.75 197.363281 52.320312 195.441406 51.933594 193.507812 C 51.550781 191.574219 51.214844 189.632812 50.925781 187.683594 C 50.636719 185.734375 50.394531 183.78125 50.199219 181.820312 C 50.007812 179.859375 49.863281 177.894531 49.765625 175.925781 C 49.667969 173.957031 49.621094 171.988281 49.621094 170.019531 C 49.621094 168.050781 49.667969 166.078125 49.765625 164.113281 C 49.863281 162.144531 50.007812 160.179688 50.199219 158.21875 C 50.394531 156.257812 50.636719 154.300781 50.925781 152.351562 C 51.214844 150.402344 51.550781 148.464844 51.933594 146.53125 C 52.320312 144.597656 52.75 142.675781 53.230469 140.765625 C 53.707031 138.851562 54.234375 136.953125 54.804688 135.070312 C 55.378906 133.183594 55.996094 131.3125 56.660156 129.457031 C 57.324219 127.601562 58.03125 125.765625 58.785156 123.945312 C 59.539062 122.125 60.339844 120.324219 61.179688 118.542969 C 62.023438 116.761719 62.910156 115 63.835938 113.265625 C 64.765625 111.527344 65.738281 109.8125 66.75 108.121094 C 67.761719 106.433594 68.816406 104.769531 69.910156 103.128906 C 71.007812 101.492188 72.140625 99.878906 73.3125 98.296875 C 74.488281 96.714844 75.699219 95.164062 76.949219 93.640625 C 78.199219 92.117188 79.488281 90.625 80.808594 89.164062 C 82.132812 87.703125 83.492188 86.277344 84.882812 84.882812 C 86.277344 83.492188 87.703125 82.132812 89.164062 80.808594 C 90.625 79.488281 92.117188 78.199219 93.640625 76.949219 C 95.164062 75.699219 96.714844 74.488281 98.296875 73.3125 C 99.878906 72.140625 101.492188 71.007812 103.128906 69.910156 C 104.769531 68.816406 106.433594 67.761719 108.121094 66.75 C 109.8125 65.738281 111.527344 64.765625 113.265625 63.835938 C 115 62.910156 116.761719 62.023438 118.542969 61.179688 C 120.324219 60.335938 122.125 59.539062 123.945312 58.785156 C 125.765625 58.03125 127.601562 57.324219 129.457031 56.660156 C 131.3125 55.996094 133.183594 55.378906 135.070312 54.804688 C 136.953125 54.234375 138.851562 53.707031 140.765625 53.230469 C 142.675781 52.75 144.597656 52.320312 146.53125 51.933594 C 148.464844 51.550781 150.402344 51.214844 152.351562 50.925781 C 154.300781 50.636719 156.257812 50.394531 158.21875 50.199219 C 160.179688 50.007812 162.144531 49.863281 164.113281 49.765625 C 166.078125 49.667969 168.050781 49.621094 170.019531 49.621094 C 171.988281 49.621094 173.957031 49.667969 175.925781 49.765625 C 177.894531 49.863281 179.859375 50.007812 181.820312 50.199219 C 183.78125 50.394531 185.734375 50.636719 187.683594 50.925781 C 189.632812 51.214844 191.574219 51.550781 193.507812 51.933594 C 195.441406 52.320312 197.363281 52.75 199.273438 53.230469 C 201.183594 53.707031 203.082031 54.234375 204.96875 54.804688 C 206.855469 55.378906 208.726562 55.996094 210.582031 56.660156 C 212.433594 57.324219 214.273438 58.03125 216.09375 58.785156 C 217.914062 59.539062 219.714844 60.335938 221.496094 61.179688 C 223.277344 62.023438 225.035156 62.910156 226.773438 63.835938 C 228.511719 64.765625 230.226562 65.738281 231.917969 66.75 C 233.605469 67.761719 235.269531 68.816406 236.910156 69.910156 C 238.546875 71.007812 240.15625 72.140625 241.742188 73.3125 C 243.324219 74.488281 244.875 75.699219 246.398438 76.949219 C 247.921875 78.199219 249.414062 79.488281 250.875 80.808594 C 252.332031 82.132812 253.761719 83.492188 255.152344 84.882812 C 256.546875 86.277344 257.90625 87.703125 259.230469 89.164062 C 260.550781 90.625 261.839844 92.117188 263.089844 93.640625 C 264.339844 95.164062 265.550781 96.714844 266.722656 98.296875 C 267.898438 99.878906 269.03125 101.492188 270.125 103.128906 C 271.222656 104.769531 272.277344 106.433594 273.289062 108.121094 C 274.300781 109.8125 275.273438 111.527344 276.203125 113.265625 C 277.128906 115 278.015625 116.761719 278.859375 118.542969 C 279.699219 120.324219 280.5 122.125 281.253906 123.945312 C 282.007812 125.765625 282.714844 127.601562 283.378906 129.457031 C 284.042969 131.3125 284.660156 133.183594 285.234375 135.070312 C 285.804688 136.953125 286.332031 138.851562 286.808594 140.765625 C 287.289062 142.675781 287.71875 144.597656 288.105469 146.53125 C 288.488281 148.464844 288.824219 150.402344 289.113281 152.351562 C 289.402344 154.300781 289.644531 156.257812 289.839844 158.21875 C 290.03125 160.179688 290.175781 162.144531 290.273438 164.113281 C 290.371094 166.078125 290.417969 168.050781 290.417969 170.019531 Z M 290.417969 170.019531 " fill-opacity="1" fill-rule="nonzero"/><path fill="#f76d57" d="M 170.019531 27.730469 C 91.4375 27.730469 27.730469 91.4375 27.730469 170.019531 C 27.730469 248.601562 91.4375 312.308594 170.019531 312.308594 C 248.601562 312.308594 312.308594 248.601562 312.308594 170.019531 C 312.308594 91.4375 248.601562 27.730469 170.019531 27.730469 Z M 170.019531 301.363281 C 97.480469 301.363281 38.675781 242.558594 38.675781 170.019531 C 38.675781 97.480469 97.480469 38.675781 170.019531 38.675781 C 242.558594 38.675781 301.363281 97.480469 301.363281 170.019531 C 301.363281 242.558594 242.558594 301.363281 170.019531 301.363281 Z M 170.019531 301.363281 " fill-opacity="1" fill-rule="nonzero"/><g clip-path="url(#2e25603a36)"><path fill="#394240" d="M 357.414062 310.976562 L 299.054688 252.617188 C 314.351562 228.773438 323.253906 200.445312 323.253906 170.019531 C 323.253906 85.390625 254.648438 16.785156 170.019531 16.785156 C 85.390625 16.785156 16.785156 85.390625 16.785156 170.019531 C 16.785156 254.648438 85.390625 323.253906 170.019531 323.253906 C 200.445312 323.253906 228.773438 314.347656 252.617188 299.054688 L 310.976562 357.414062 C 323.804688 370.242188 344.589844 370.242188 357.414062 357.414062 C 370.238281 344.585938 370.242188 323.804688 357.414062 310.976562 Z M 170.019531 312.308594 C 91.4375 312.308594 27.730469 248.601562 27.730469 170.019531 C 27.730469 91.4375 91.4375 27.730469 170.019531 27.730469 C 248.601562 27.730469 312.308594 91.4375 312.308594 170.019531 C 312.308594 248.601562 248.601562 312.308594 170.019531 312.308594 Z M 349.675781 349.675781 C 341.128906 358.222656 327.265625 358.222656 318.722656 349.675781 L 261.789062 292.742188 C 273.527344 283.953125 283.960938 273.519531 292.75 261.789062 L 349.675781 318.714844 C 358.230469 327.257812 358.230469 341.128906 349.675781 349.675781 Z M 349.675781 349.675781 " fill-opacity="1" fill-rule="nonzero"/></g><path fill="#394240" d="M 170.019531 38.675781 C 97.480469 38.675781 38.675781 97.480469 38.675781 170.019531 C 38.675781 242.558594 97.480469 301.363281 170.019531 301.363281 C 242.558594 301.363281 301.363281 242.558594 301.363281 170.019531 C 301.363281 97.480469 242.558594 38.675781 170.019531 38.675781 Z M 170.019531 290.417969 C 103.527344 290.417969 49.621094 236.511719 49.621094 170.019531 C 49.621094 103.527344 103.527344 49.621094 170.019531 49.621094 C 236.511719 49.621094 290.417969 103.527344 290.417969 170.019531 C 290.417969 236.511719 236.511719 290.417969 170.019531 290.417969 Z M 170.019531 290.417969 " fill-opacity="1" fill-rule="nonzero"/><path fill="#394240" d="M 170.019531 76.984375 C 166.992188 76.984375 164.546875 79.429688 164.546875 82.457031 C 164.546875 85.484375 166.992188 87.929688 170.019531 87.929688 C 215.355469 87.929688 252.109375 124.683594 252.109375 170.019531 C 252.109375 173.046875 254.554688 175.492188 257.582031 175.492188 C 260.609375 175.492188 263.054688 173.046875 263.054688 170.019531 C 263.054688 118.636719 221.402344 76.984375 170.019531 76.984375 Z M 170.019531 76.984375 " fill-opacity="1" fill-rule="nonzero"/></svg>