<svg xmlns="http://www.w3.org/2000/svg" xmlns:xlink="http://www.w3.org/1999/xlink" width="512" zoomAndPan="magnify" viewBox="0 0 384 383.999986" height="512" preserveAspectRatio="xMidYMid meet" version="1.0"><path fill="#ffecb3" d="M 241.542969 76.542969 L 142.542969 43.542969 L 43.542969 76.542969 L 43.542969 340.542969 L 142.542969 307.542969 L 241.542969 340.542969 L 340.542969 307.542969 L 340.542969 43.542969 Z M 241.542969 76.542969 " fill-opacity="1" fill-rule="nonzero"/><path fill="#ffe082" d="M 142.542969 43.542969 L 142.542969 307.542969 L 241.542969 340.542969 L 241.542969 76.542969 Z M 142.542969 43.542969 " fill-opacity="1" fill-rule="nonzero"/><path fill="#f44336" d="M 241.542969 117.792969 C 209.640625 117.792969 183.792969 144.960938 183.792969 178.441406 C 183.792969 211.917969 241.542969 291.042969 241.542969 291.042969 C 241.542969 291.042969 299.292969 211.910156 299.292969 178.441406 C 299.292969 144.96875 273.445312 117.792969 241.542969 117.792969 Z M 241.542969 117.792969 " fill-opacity="1" fill-rule="nonzero"/><path fill="#ffebee" d="M 216.792969 175.542969 C 216.792969 176.355469 216.832031 177.164062 216.914062 177.96875 C 216.992188 178.777344 217.113281 179.578125 217.269531 180.371094 C 217.425781 181.167969 217.625 181.953125 217.859375 182.730469 C 218.09375 183.503906 218.367188 184.265625 218.679688 185.015625 C 218.988281 185.765625 219.335938 186.496094 219.714844 187.210938 C 220.097656 187.925781 220.515625 188.621094 220.964844 189.292969 C 221.414062 189.96875 221.898438 190.617188 222.410156 191.246094 C 222.925781 191.871094 223.46875 192.472656 224.042969 193.042969 C 224.617188 193.617188 225.214844 194.160156 225.84375 194.675781 C 226.46875 195.191406 227.121094 195.671875 227.792969 196.121094 C 228.46875 196.574219 229.160156 196.988281 229.875 197.371094 C 230.59375 197.753906 231.324219 198.101562 232.074219 198.410156 C 232.820312 198.71875 233.582031 198.992188 234.359375 199.226562 C 235.136719 199.464844 235.921875 199.660156 236.714844 199.820312 C 237.511719 199.976562 238.3125 200.09375 239.117188 200.175781 C 239.925781 200.253906 240.734375 200.292969 241.542969 200.292969 C 242.355469 200.292969 243.164062 200.253906 243.96875 200.175781 C 244.777344 200.09375 245.578125 199.976562 246.371094 199.820312 C 247.167969 199.660156 247.953125 199.464844 248.730469 199.226562 C 249.503906 198.992188 250.265625 198.71875 251.015625 198.410156 C 251.765625 198.101562 252.496094 197.753906 253.210938 197.371094 C 253.925781 196.988281 254.621094 196.574219 255.292969 196.121094 C 255.96875 195.671875 256.617188 195.191406 257.246094 194.675781 C 257.871094 194.160156 258.472656 193.617188 259.046875 193.042969 C 259.617188 192.472656 260.160156 191.871094 260.675781 191.246094 C 261.191406 190.617188 261.671875 189.96875 262.121094 189.292969 C 262.574219 188.621094 262.988281 187.925781 263.371094 187.210938 C 263.753906 186.496094 264.101562 185.765625 264.410156 185.015625 C 264.71875 184.265625 264.992188 183.503906 265.226562 182.730469 C 265.464844 181.953125 265.660156 181.167969 265.820312 180.371094 C 265.976562 179.578125 266.09375 178.777344 266.175781 177.96875 C 266.253906 177.164062 266.292969 176.355469 266.292969 175.542969 C 266.292969 174.734375 266.253906 173.925781 266.175781 173.117188 C 266.09375 172.3125 265.976562 171.511719 265.820312 170.714844 C 265.660156 169.921875 265.464844 169.136719 265.226562 168.359375 C 264.992188 167.582031 264.71875 166.820312 264.410156 166.074219 C 264.101562 165.324219 263.753906 164.59375 263.371094 163.878906 C 262.988281 163.160156 262.574219 162.46875 262.121094 161.792969 C 261.671875 161.121094 261.191406 160.46875 260.675781 159.84375 C 260.160156 159.214844 259.617188 158.617188 259.046875 158.042969 C 258.472656 157.46875 257.871094 156.925781 257.246094 156.410156 C 256.617188 155.898438 255.96875 155.414062 255.292969 154.964844 C 254.621094 154.515625 253.925781 154.097656 253.210938 153.714844 C 252.496094 153.335938 251.765625 152.988281 251.015625 152.679688 C 250.265625 152.367188 249.503906 152.09375 248.730469 151.859375 C 247.953125 151.625 247.167969 151.425781 246.371094 151.269531 C 245.578125 151.113281 244.777344 150.992188 243.96875 150.914062 C 243.164062 150.832031 242.355469 150.792969 241.542969 150.792969 C 240.734375 150.792969 239.925781 150.832031 239.117188 150.914062 C 238.3125 150.992188 237.511719 151.113281 236.714844 151.269531 C 235.921875 151.429688 235.136719 151.625 234.359375 151.859375 C 233.582031 152.09375 232.820312 152.367188 232.074219 152.679688 C 231.324219 152.988281 230.59375 153.335938 229.875 153.714844 C 229.160156 154.097656 228.46875 154.515625 227.792969 154.964844 C 227.121094 155.414062 226.46875 155.898438 225.84375 156.410156 C 225.214844 156.925781 224.617188 157.46875 224.042969 158.042969 C 223.46875 158.617188 222.925781 159.214844 222.410156 159.84375 C 221.898438 160.46875 221.414062 161.121094 220.964844 161.792969 C 220.515625 162.46875 220.097656 163.160156 219.714844 163.878906 C 219.335938 164.59375 218.988281 165.324219 218.679688 166.074219 C 218.367188 166.820312 218.09375 167.582031 217.859375 168.359375 C 217.625 169.136719 217.425781 169.921875 217.269531 170.714844 C 217.113281 171.511719 216.992188 172.3125 216.914062 173.117188 C 216.832031 173.925781 216.792969 174.734375 216.792969 175.542969 Z M 216.792969 175.542969 " fill-opacity="1" fill-rule="nonzero"/></svg>