<svg xmlns="http://www.w3.org/2000/svg" xmlns:xlink="http://www.w3.org/1999/xlink" width="512" zoomAndPan="magnify" viewBox="0 0 384 383.999986" height="512" preserveAspectRatio="xMidYMid meet" version="1.0"><path fill="#9a2d2f" d="M 94.285156 84.453125 C 88.835938 84.453125 86.113281 80.585938 84.140625 77.742188 C 82.125 74.863281 81.097656 73.71875 79.125 73.71875 C 77.152344 73.71875 76.164062 74.902344 74.113281 77.742188 C 72.097656 80.585938 69.375 84.453125 63.964844 84.453125 C 58.519531 84.453125 55.792969 80.585938 53.820312 77.742188 C 51.808594 74.863281 50.78125 73.71875 48.808594 73.71875 C 46.832031 73.71875 45.847656 74.902344 43.792969 77.742188 C 41.78125 80.585938 39.054688 84.453125 33.648438 84.453125 C 28.238281 84.453125 25.476562 80.585938 23.5 77.742188 C 21.488281 74.863281 20.460938 73.71875 18.488281 73.71875 C 16.75 73.71875 15.328125 72.296875 15.328125 70.558594 C 15.328125 68.820312 16.75 67.402344 18.488281 67.402344 C 23.9375 67.402344 26.660156 71.269531 28.632812 74.113281 C 30.648438 76.992188 31.671875 78.136719 33.648438 78.136719 C 35.621094 78.136719 36.609375 76.953125 38.660156 74.113281 C 40.675781 71.269531 43.398438 67.402344 48.808594 67.402344 C 54.214844 67.402344 56.980469 71.269531 58.953125 74.113281 C 60.964844 76.992188 61.992188 78.136719 63.964844 78.136719 C 65.941406 78.136719 66.925781 76.953125 68.980469 74.113281 C 70.992188 71.269531 73.71875 67.402344 79.125 67.402344 C 84.535156 67.402344 87.296875 71.269531 89.269531 74.113281 C 91.285156 76.992188 92.3125 78.136719 94.285156 78.136719 C 96.023438 78.136719 97.441406 79.558594 97.441406 81.296875 C 97.441406 83.035156 96.023438 84.453125 94.285156 84.453125 Z M 94.285156 104.195312 C 88.835938 104.195312 86.113281 100.324219 84.140625 97.484375 C 82.125 94.601562 81.097656 93.457031 79.125 93.457031 C 77.152344 93.457031 76.164062 94.640625 74.113281 97.484375 C 72.097656 100.324219 69.375 104.195312 63.964844 104.195312 C 58.519531 104.195312 55.792969 100.324219 53.820312 97.484375 C 51.808594 94.601562 50.78125 93.457031 48.808594 93.457031 C 46.832031 93.457031 45.847656 94.640625 43.792969 97.484375 C 41.78125 100.324219 39.054688 104.195312 33.648438 104.195312 C 28.238281 104.195312 25.476562 100.324219 23.5 97.484375 C 21.488281 94.601562 20.460938 93.457031 18.488281 93.457031 C 16.75 93.457031 15.328125 92.035156 15.328125 90.296875 C 15.328125 88.5625 16.75 87.140625 18.488281 87.140625 C 23.9375 87.140625 26.660156 91.007812 28.632812 93.851562 C 30.648438 96.734375 31.671875 97.878906 33.648438 97.878906 C 35.621094 97.878906 36.609375 96.691406 38.660156 93.851562 C 40.675781 91.007812 43.398438 87.140625 48.808594 87.140625 C 54.214844 87.140625 56.980469 91.007812 58.953125 93.851562 C 60.964844 96.734375 61.992188 97.878906 63.964844 97.878906 C 65.941406 97.878906 66.925781 96.691406 68.980469 93.851562 C 70.992188 91.007812 73.71875 87.140625 79.125 87.140625 C 84.535156 87.140625 87.296875 91.007812 89.269531 93.851562 C 91.285156 96.734375 92.3125 97.878906 94.285156 97.878906 C 96.023438 97.878906 97.441406 99.296875 97.441406 101.035156 C 97.441406 102.773438 96.023438 104.195312 94.285156 104.195312 Z M 94.285156 104.195312 " fill-opacity="1" fill-rule="nonzero"/><path fill="#ffeb4d" d="M 115.207031 30.921875 C 115.207031 31.753906 115.289062 32.574219 115.449219 33.386719 C 115.613281 34.203125 115.851562 34.992188 116.167969 35.757812 C 116.488281 36.523438 116.875 37.253906 117.335938 37.941406 C 117.796875 38.632812 118.320312 39.269531 118.90625 39.855469 C 119.496094 40.441406 120.132812 40.964844 120.824219 41.425781 C 121.511719 41.886719 122.238281 42.277344 123.007812 42.59375 C 123.773438 42.910156 124.5625 43.152344 125.375 43.3125 C 126.191406 43.476562 127.011719 43.554688 127.839844 43.554688 C 128.671875 43.554688 129.492188 43.476562 130.304688 43.3125 C 131.117188 43.152344 131.910156 42.910156 132.675781 42.59375 C 133.441406 42.277344 134.167969 41.886719 134.859375 41.425781 C 135.550781 40.964844 136.1875 40.441406 136.773438 39.855469 C 137.359375 39.269531 137.882812 38.632812 138.34375 37.941406 C 138.804688 37.253906 139.195312 36.523438 139.511719 35.757812 C 139.828125 34.992188 140.070312 34.203125 140.230469 33.386719 C 140.394531 32.574219 140.472656 31.753906 140.472656 30.921875 C 140.472656 30.09375 140.394531 29.273438 140.230469 28.457031 C 140.070312 27.644531 139.828125 26.855469 139.511719 26.089844 C 139.195312 25.324219 138.804688 24.59375 138.34375 23.90625 C 137.882812 23.214844 137.359375 22.578125 136.773438 21.992188 C 136.1875 21.402344 135.550781 20.878906 134.859375 20.417969 C 134.167969 19.957031 133.441406 19.570312 132.675781 19.253906 C 131.910156 18.933594 131.117188 18.695312 130.304688 18.535156 C 129.492188 18.371094 128.671875 18.289062 127.839844 18.289062 C 127.011719 18.289062 126.191406 18.371094 125.375 18.535156 C 124.5625 18.695312 123.773438 18.933594 123.007812 19.253906 C 122.238281 19.570312 121.511719 19.957031 120.824219 20.417969 C 120.132812 20.878906 119.496094 21.402344 118.90625 21.992188 C 118.320312 22.578125 117.796875 23.214844 117.335938 23.90625 C 116.875 24.59375 116.488281 25.324219 116.167969 26.089844 C 115.851562 26.855469 115.613281 27.644531 115.449219 28.457031 C 115.289062 29.273438 115.207031 30.09375 115.207031 30.921875 Z M 115.207031 30.921875 " fill-opacity="1" fill-rule="nonzero"/><path fill="#9a2d2f" d="M 127.839844 46.714844 C 119.117188 46.714844 112.050781 39.648438 112.050781 30.921875 C 112.050781 22.199219 119.117188 15.132812 127.839844 15.132812 C 136.566406 15.132812 143.632812 22.199219 143.632812 30.921875 C 143.632812 39.648438 136.527344 46.714844 127.839844 46.714844 Z M 127.839844 21.449219 C 122.628906 21.449219 118.367188 25.710938 118.367188 30.921875 C 118.367188 36.132812 122.628906 40.398438 127.839844 40.398438 C 133.050781 40.398438 137.316406 36.132812 137.316406 30.921875 C 137.316406 25.710938 133.050781 21.449219 127.839844 21.449219 Z M 127.839844 21.449219 " fill-opacity="1" fill-rule="nonzero"/><path fill="#dae5ff" d="M 294.832031 353.652344 L 84.808594 353.652344 C 70.875 353.652344 59.542969 342.320312 59.542969 328.386719 L 59.542969 176.792969 C 59.542969 162.855469 70.875 151.527344 84.808594 151.527344 L 294.832031 151.527344 C 308.765625 151.527344 320.097656 162.855469 320.097656 176.792969 L 320.097656 328.386719 C 320.097656 342.320312 308.765625 353.652344 294.832031 353.652344 Z M 294.832031 353.652344 " fill-opacity="1" fill-rule="nonzero"/><path fill="#ffacc2" d="M 210.347656 242.445312 L 84.019531 242.445312 L 154.488281 164.792969 Z M 210.347656 242.445312 " fill-opacity="1" fill-rule="nonzero"/><path fill="#ffffff" d="M 171.304688 188.203125 L 155.476562 184.292969 L 134.90625 186.347656 L 154.488281 164.792969 Z M 171.304688 188.203125 " fill-opacity="1" fill-rule="nonzero"/><path fill="#dae5ff" d="M 184.6875 242.445312 L 84.019531 242.445312 L 143.355469 177.03125 Z M 184.6875 242.445312 " fill-opacity="1" fill-rule="nonzero"/><path fill="#ffffff" d="M 126.972656 195.070312 L 135.972656 201.664062 L 143.316406 196.136719 L 159.660156 202.808594 L 143.355469 177.03125 Z M 126.972656 195.070312 " fill-opacity="1" fill-rule="nonzero"/><path fill="#88d2fc" d="M 242.324219 262.460938 C 242.324219 263.738281 242.386719 265.015625 242.511719 266.292969 C 242.636719 267.566406 242.824219 268.832031 243.070312 270.085938 C 243.320312 271.34375 243.632812 272.585938 244.003906 273.808594 C 244.375 275.035156 244.804688 276.242188 245.292969 277.421875 C 245.78125 278.605469 246.328125 279.761719 246.933594 280.894531 C 247.535156 282.023438 248.191406 283.121094 248.902344 284.183594 C 249.613281 285.25 250.375 286.277344 251.1875 287.269531 C 252 288.257812 252.859375 289.207031 253.761719 290.113281 C 254.667969 291.019531 255.617188 291.878906 256.605469 292.691406 C 257.59375 293.503906 258.621094 294.265625 259.6875 294.976562 C 260.75 295.6875 261.847656 296.347656 262.976562 296.949219 C 264.105469 297.554688 265.261719 298.101562 266.445312 298.589844 C 267.628906 299.082031 268.832031 299.511719 270.058594 299.882812 C 271.285156 300.257812 272.523438 300.566406 273.78125 300.816406 C 275.035156 301.066406 276.300781 301.253906 277.574219 301.378906 C 278.851562 301.507812 280.128906 301.570312 281.410156 301.570312 C 282.6875 301.570312 283.964844 301.507812 285.242188 301.378906 C 286.515625 301.253906 287.78125 301.066406 289.035156 300.816406 C 290.292969 300.566406 291.53125 300.257812 292.757812 299.882812 C 293.984375 299.511719 295.1875 299.082031 296.371094 298.589844 C 297.554688 298.101562 298.710938 297.554688 299.839844 296.949219 C 300.96875 296.347656 302.066406 295.6875 303.128906 294.976562 C 304.195312 294.265625 305.222656 293.503906 306.210938 292.691406 C 307.199219 291.878906 308.148438 291.019531 309.054688 290.113281 C 309.957031 289.207031 310.816406 288.257812 311.628906 287.269531 C 312.441406 286.277344 313.203125 285.25 313.914062 284.183594 C 314.625 283.121094 315.28125 282.023438 315.886719 280.894531 C 316.488281 279.761719 317.035156 278.605469 317.523438 277.421875 C 318.011719 276.242188 318.445312 275.035156 318.816406 273.808594 C 319.1875 272.585938 319.496094 271.34375 319.746094 270.085938 C 319.992188 268.832031 320.179688 267.566406 320.304688 266.292969 C 320.429688 265.015625 320.492188 263.738281 320.492188 262.460938 C 320.492188 261.179688 320.429688 259.902344 320.304688 258.625 C 320.179688 257.351562 319.992188 256.085938 319.746094 254.832031 C 319.496094 253.574219 319.1875 252.332031 318.816406 251.109375 C 318.445312 249.882812 318.011719 248.679688 317.523438 247.496094 C 317.035156 246.3125 316.488281 245.15625 315.886719 244.023438 C 315.28125 242.894531 314.625 241.796875 313.914062 240.734375 C 313.203125 239.667969 312.441406 238.640625 311.628906 237.648438 C 310.816406 236.660156 309.957031 235.710938 309.054688 234.804688 C 308.148438 233.898438 307.199219 233.039062 306.210938 232.226562 C 305.222656 231.414062 304.195312 230.652344 303.128906 229.941406 C 302.066406 229.230469 300.96875 228.570312 299.839844 227.96875 C 298.710938 227.363281 297.554688 226.816406 296.371094 226.328125 C 295.1875 225.835938 293.984375 225.40625 292.757812 225.035156 C 291.53125 224.660156 290.292969 224.351562 289.035156 224.101562 C 287.78125 223.851562 286.515625 223.664062 285.242188 223.539062 C 283.964844 223.414062 282.6875 223.347656 281.410156 223.347656 C 280.128906 223.347656 278.851562 223.414062 277.574219 223.539062 C 276.300781 223.664062 275.035156 223.851562 273.78125 224.101562 C 272.523438 224.351562 271.285156 224.660156 270.058594 225.035156 C 268.832031 225.40625 267.628906 225.835938 266.445312 226.328125 C 265.261719 226.816406 264.105469 227.363281 262.976562 227.96875 C 261.847656 228.570312 260.75 229.230469 259.6875 229.941406 C 258.621094 230.652344 257.59375 231.414062 256.605469 232.226562 C 255.617188 233.039062 254.667969 233.898438 253.761719 234.804688 C 252.859375 235.710938 252 236.660156 251.1875 237.648438 C 250.375 238.640625 249.613281 239.667969 248.902344 240.734375 C 248.191406 241.796875 247.535156 242.894531 246.933594 244.023438 C 246.328125 245.15625 245.78125 246.3125 245.292969 247.496094 C 244.804688 248.679688 244.375 249.882812 244.003906 251.109375 C 243.632812 252.332031 243.320312 253.574219 243.070312 254.832031 C 242.824219 256.085938 242.636719 257.351562 242.511719 258.625 C 242.386719 259.902344 242.324219 261.179688 242.324219 262.460938 Z M 242.324219 262.460938 " fill-opacity="1" fill-rule="nonzero"/><path fill="#dae5ff" d="M 84.808594 126.261719 C 70.875 126.261719 59.542969 137.589844 59.542969 151.527344 L 59.542969 328.386719 C 59.542969 314.449219 70.875 303.121094 84.808594 303.121094 C 98.746094 303.121094 110.074219 314.449219 110.074219 328.386719 L 110.074219 151.527344 C 110.074219 137.550781 98.746094 126.261719 84.808594 126.261719 Z M 294.832031 126.261719 C 280.894531 126.261719 269.566406 137.589844 269.566406 151.527344 L 269.566406 328.386719 C 269.566406 314.449219 280.894531 303.121094 294.832031 303.121094 C 308.765625 303.121094 320.097656 314.449219 320.097656 328.386719 L 320.097656 151.527344 C 320.097656 137.550781 308.765625 126.261719 294.832031 126.261719 Z M 294.832031 126.261719 " fill-opacity="1" fill-rule="nonzero"/><path fill="#ffeb4d" d="M 213.980469 182.753906 C 220.929688 175.804688 232.179688 175.804688 239.089844 182.753906 C 246.035156 189.703125 246.035156 200.953125 239.089844 207.863281 C 232.140625 214.808594 220.890625 214.808594 213.980469 207.863281 C 207.03125 200.953125 207.03125 189.703125 213.980469 182.753906 Z M 213.980469 182.753906 " fill-opacity="1" fill-rule="nonzero"/><path fill="#ffffff" d="M 84.808594 129.417969 C 79.519531 129.417969 74.664062 131.273438 70.835938 134.394531 C 72.847656 140.988281 77.46875 147.460938 87.574219 149.949219 C 103.363281 153.816406 104.667969 164.792969 106.917969 173.28125 L 106.917969 151.527344 C 106.917969 139.328125 97.007812 129.417969 84.808594 129.417969 Z M 272.722656 151.527344 L 272.722656 163.566406 C 276.078125 161.042969 278.804688 157.6875 279.949219 153.34375 C 285.160156 133.328125 298.777344 139.683594 305.09375 136.527344 C 306.121094 136.011719 307.148438 135.066406 308.09375 133.878906 C 304.382812 131.078125 299.804688 129.417969 294.832031 129.417969 C 282.632812 129.417969 272.722656 139.328125 272.722656 151.527344 Z M 272.722656 151.527344 " fill-opacity="1" fill-rule="nonzero"/><path fill="#9a2d2f" d="M 365.613281 279.949219 C 363.640625 279.949219 362.652344 278.761719 360.601562 275.921875 C 358.585938 273.078125 355.863281 269.210938 350.453125 269.210938 C 345.046875 269.210938 342.28125 273.078125 340.308594 275.921875 C 338.296875 278.804688 337.269531 279.949219 335.296875 279.949219 C 333.320312 279.949219 332.335938 278.761719 330.28125 275.921875 C 328.703125 273.671875 326.6875 270.789062 323.253906 269.683594 L 323.253906 257.367188 C 323.808594 258 324.398438 258.789062 325.109375 259.8125 C 327.125 262.65625 329.847656 266.523438 335.253906 266.523438 C 340.703125 266.523438 343.425781 262.65625 345.402344 259.8125 C 347.414062 256.933594 348.441406 255.789062 350.414062 255.789062 C 352.390625 255.789062 353.375 256.972656 355.429688 259.8125 C 357.441406 262.65625 360.167969 266.523438 365.574219 266.523438 C 367.3125 266.523438 368.734375 265.105469 368.734375 263.367188 C 368.734375 261.628906 367.3125 260.207031 365.574219 260.207031 C 363.601562 260.207031 362.613281 259.023438 360.5625 256.183594 C 358.546875 253.339844 355.824219 249.472656 350.414062 249.472656 C 345.007812 249.472656 342.242188 253.339844 340.269531 256.183594 C 338.257812 259.0625 337.230469 260.207031 335.253906 260.207031 C 333.28125 260.207031 332.292969 259.023438 330.242188 256.183594 C 328.664062 253.933594 326.648438 251.050781 323.214844 249.945312 L 323.214844 151.527344 C 323.214844 135.855469 310.464844 123.101562 294.792969 123.101562 C 280.183594 123.101562 268.105469 134.195312 266.566406 148.367188 L 113.035156 148.367188 C 111.457031 134.195312 99.417969 123.101562 84.808594 123.101562 C 69.136719 123.101562 56.386719 135.855469 56.386719 151.527344 L 56.386719 328.386719 C 56.386719 337.191406 60.414062 345.085938 66.691406 350.296875 L 27.726562 350.296875 C 25.988281 350.296875 24.566406 351.71875 24.566406 353.453125 C 24.566406 355.191406 25.988281 356.613281 27.726562 356.613281 L 353.019531 356.613281 C 354.757812 356.613281 356.179688 355.191406 356.179688 353.453125 C 356.179688 351.71875 354.757812 350.296875 353.019531 350.296875 L 312.910156 350.296875 C 319.226562 345.085938 323.214844 337.191406 323.214844 328.386719 L 323.214844 277.105469 C 323.769531 277.738281 324.359375 278.527344 325.070312 279.554688 C 327.082031 282.394531 329.808594 286.265625 335.214844 286.265625 C 340.664062 286.265625 343.386719 282.394531 345.363281 279.554688 C 347.375 276.671875 348.402344 275.527344 350.375 275.527344 C 352.347656 275.527344 353.335938 276.710938 355.390625 279.554688 C 357.402344 282.394531 360.125 286.265625 365.535156 286.265625 C 367.273438 286.265625 368.691406 284.84375 368.691406 283.105469 C 368.691406 281.367188 367.351562 279.949219 365.613281 279.949219 Z M 113.234375 214.96875 L 127.40625 199.335938 L 134.117188 204.230469 C 135.222656 205.058594 136.761719 205.058594 137.867188 204.191406 L 143.75 199.730469 L 157.488281 205.335938 L 178.925781 239.285156 L 113.234375 239.285156 Z M 156.226562 181.214844 C 155.988281 181.136719 155.710938 181.136719 155.476562 181.136719 L 155.160156 181.136719 L 150.027344 181.648438 L 147.304688 177.34375 L 154.171875 169.765625 L 163.726562 183.070312 Z M 169.410156 191.003906 L 204.152344 239.324219 L 186.386719 239.324219 L 153.777344 187.648438 L 155.199219 187.492188 Z M 151.726562 196.175781 L 144.539062 193.253906 C 143.511719 192.820312 142.328125 192.980469 141.460938 193.648438 L 136.011719 197.753906 L 131.75 194.636719 L 143 182.242188 Z M 113.234375 245.601562 L 210.347656 245.601562 C 211.53125 245.601562 212.636719 244.929688 213.152344 243.863281 C 213.664062 242.800781 213.585938 241.535156 212.914062 240.589844 L 157.054688 162.9375 C 156.5 162.148438 155.632812 161.671875 154.683594 161.632812 C 153.738281 161.59375 152.789062 161.949219 152.160156 162.660156 L 132.578125 184.214844 L 113.234375 205.53125 L 113.234375 154.683594 L 259.734375 154.683594 C 255.789062 157.488281 252.078125 160.605469 248.601562 164.082031 C 244.695312 167.988281 241.179688 172.253906 238.140625 176.714844 C 234.589844 174.503906 230.5625 173.398438 226.496094 173.398438 C 220.851562 173.398438 215.164062 175.570312 210.863281 179.871094 C 202.257812 188.519531 202.257812 202.570312 210.863281 211.257812 L 223.375 223.8125 L 223.375 224.914062 C 223.375 268.894531 187.609375 304.660156 143.632812 304.660156 C 132.855469 304.660156 122.589844 302.488281 113.195312 298.621094 L 113.195312 245.601562 Z M 235.890625 205.019531 C 233.285156 207.625 229.890625 208.925781 226.496094 208.925781 C 223.730469 208.925781 220.96875 208.058594 218.601562 206.320312 C 218.085938 205.925781 217.574219 205.53125 217.097656 205.058594 C 211.929688 199.886719 211.929688 191.4375 217.097656 186.226562 C 222.269531 181.054688 230.679688 181.054688 235.851562 186.226562 C 241.101562 191.359375 241.101562 199.808594 235.890625 205.019531 Z M 62.703125 151.527344 C 62.703125 139.328125 72.613281 129.417969 84.808594 129.417969 C 97.007812 129.417969 106.917969 139.328125 106.917969 151.527344 L 106.917969 310.542969 C 101.707031 304.109375 93.730469 299.960938 84.808594 299.960938 C 75.886719 299.960938 67.914062 304.109375 62.703125 310.542969 Z M 316.9375 328.386719 C 316.9375 339.558594 308.609375 348.835938 297.832031 350.296875 L 81.808594 350.296875 C 71.03125 348.835938 62.703125 339.558594 62.703125 328.386719 C 62.703125 316.1875 72.613281 306.277344 84.808594 306.277344 C 97.007812 306.277344 106.917969 316.1875 106.917969 328.386719 C 106.917969 330.125 108.339844 331.542969 110.074219 331.542969 C 111.8125 331.542969 113.234375 330.125 113.234375 328.386719 L 113.234375 305.488281 C 122.828125 309.121094 133.089844 311.015625 143.671875 311.015625 C 166.648438 311.015625 188.28125 302.054688 204.507812 285.789062 C 220.730469 269.527344 229.730469 247.929688 229.730469 224.957031 L 229.730469 223.769531 L 242.167969 211.296875 C 250.496094 202.964844 250.773438 189.582031 243.035156 180.859375 C 249.15625 171.660156 257.089844 163.84375 266.367188 157.84375 L 266.367188 222.941406 C 250.457031 229.023438 239.128906 244.417969 239.128906 262.417969 C 239.128906 280.421875 250.457031 295.855469 266.367188 301.898438 L 266.367188 328.347656 C 266.367188 330.085938 267.789062 331.503906 269.527344 331.503906 C 271.261719 331.503906 272.683594 330.085938 272.683594 328.347656 C 272.683594 316.148438 282.59375 306.238281 294.792969 306.238281 C 306.988281 306.238281 316.9375 316.1875 316.9375 328.386719 Z M 266.40625 229.8125 L 266.40625 295.066406 C 254.050781 289.382812 245.484375 276.90625 245.484375 262.417969 C 245.484375 247.929688 254.050781 235.496094 266.40625 229.8125 Z M 316.9375 310.542969 C 311.726562 304.109375 303.753906 299.960938 294.832031 299.960938 C 285.910156 299.960938 277.933594 304.109375 272.722656 310.542969 L 272.722656 151.527344 C 272.722656 139.328125 282.632812 129.417969 294.832031 129.417969 C 307.03125 129.417969 316.9375 139.328125 316.9375 151.527344 Z M 316.9375 310.542969 " fill-opacity="1" fill-rule="nonzero"/></svg>