<svg xmlns="http://www.w3.org/2000/svg" xmlns:xlink="http://www.w3.org/1999/xlink" width="512" zoomAndPan="magnify" viewBox="0 0 384 383.999986" height="512" preserveAspectRatio="xMidYMid meet" version="1.0"><defs><clipPath id="f0d3795c39"><path d="M 15.132812 286 L 369.132812 286 L 369.132812 369.132812 L 15.132812 369.132812 Z M 15.132812 286 " clip-rule="nonzero"/></clipPath><clipPath id="02de508d69"><path d="M 62 15.132812 L 322 15.132812 L 322 275 L 62 275 Z M 62 15.132812 " clip-rule="nonzero"/></clipPath><clipPath id="b128ddbb2a"><path d="M 85 15.132812 L 322 15.132812 L 322 252 L 85 252 Z M 85 15.132812 " clip-rule="nonzero"/></clipPath></defs><g clip-path="url(#f0d3795c39)"><path fill="#000000" d="M 363.234375 286.535156 L 21.035156 286.535156 C 17.789062 286.535156 15.132812 289.1875 15.132812 292.433594 L 15.132812 363.234375 C 15.132812 366.480469 17.789062 369.132812 21.035156 369.132812 L 363.234375 369.132812 C 366.480469 369.132812 369.132812 366.480469 369.132812 363.234375 L 369.132812 292.433594 C 369.132812 289.1875 366.480469 286.535156 363.234375 286.535156 Z M 357.335938 357.335938 L 26.933594 357.335938 L 26.933594 298.335938 L 44.636719 298.335938 L 44.636719 310.132812 C 44.636719 313.378906 47.289062 316.035156 50.535156 316.035156 C 53.78125 316.035156 56.433594 313.378906 56.433594 310.132812 L 56.433594 298.335938 L 80.035156 298.335938 L 80.035156 321.933594 C 80.035156 325.179688 82.6875 327.835938 85.933594 327.835938 C 89.179688 327.835938 91.832031 325.179688 91.832031 321.933594 L 91.832031 298.335938 L 115.433594 298.335938 L 115.433594 310.132812 C 115.433594 313.378906 118.089844 316.035156 121.332031 316.035156 C 124.578125 316.035156 127.234375 313.378906 127.234375 310.132812 L 127.234375 298.335938 L 150.832031 298.335938 L 150.832031 321.933594 C 150.832031 325.179688 153.488281 327.835938 156.734375 327.835938 C 159.976562 327.835938 162.632812 325.179688 162.632812 321.933594 L 162.632812 298.335938 L 186.230469 298.335938 L 186.230469 310.132812 C 186.230469 313.378906 188.886719 316.035156 192.132812 316.035156 C 195.375 316.035156 198.03125 313.378906 198.03125 310.132812 L 198.03125 298.335938 L 221.632812 298.335938 L 221.632812 321.933594 C 221.632812 325.179688 224.285156 327.835938 227.53125 327.835938 C 230.777344 327.835938 233.429688 325.179688 233.429688 321.933594 L 233.429688 298.335938 L 257.03125 298.335938 L 257.03125 310.132812 C 257.03125 313.378906 259.6875 316.035156 262.929688 316.035156 C 266.175781 316.035156 268.832031 313.378906 268.832031 310.132812 L 268.832031 298.335938 L 292.429688 298.335938 L 292.429688 321.933594 C 292.429688 325.179688 295.085938 327.835938 298.328125 327.835938 C 301.574219 327.835938 304.230469 325.179688 304.230469 321.933594 L 304.230469 298.335938 L 327.828125 298.335938 L 327.828125 310.132812 C 327.828125 313.378906 330.484375 316.035156 333.730469 316.035156 C 336.972656 316.035156 339.628906 313.378906 339.628906 310.132812 L 339.628906 298.335938 L 357.328125 298.335938 L 357.328125 357.335938 Z M 357.335938 357.335938 " fill-opacity="1" fill-rule="nonzero"/></g><path fill="#f6981e" d="M 26.933594 298.335938 L 44.636719 298.335938 L 44.636719 310.132812 L 26.933594 310.132812 Z M 26.933594 298.335938 " fill-opacity="1" fill-rule="nonzero"/><path fill="#f6981e" d="M 56.433594 298.335938 L 80.035156 298.335938 L 80.035156 310.132812 L 56.433594 310.132812 Z M 56.433594 298.335938 " fill-opacity="1" fill-rule="nonzero"/><path fill="#f6981e" d="M 91.835938 298.335938 L 115.433594 298.335938 L 115.433594 310.132812 L 91.835938 310.132812 Z M 91.835938 298.335938 " fill-opacity="1" fill-rule="nonzero"/><path fill="#f6981e" d="M 127.234375 298.335938 L 150.835938 298.335938 L 150.835938 310.132812 L 127.234375 310.132812 Z M 127.234375 298.335938 " fill-opacity="1" fill-rule="nonzero"/><path fill="#f6981e" d="M 162.632812 298.335938 L 186.234375 298.335938 L 186.234375 310.132812 L 162.632812 310.132812 Z M 162.632812 298.335938 " fill-opacity="1" fill-rule="nonzero"/><path fill="#f6981e" d="M 198.035156 298.335938 L 221.632812 298.335938 L 221.632812 310.132812 L 198.035156 310.132812 Z M 198.035156 298.335938 " fill-opacity="1" fill-rule="nonzero"/><path fill="#f6981e" d="M 268.835938 298.335938 L 292.433594 298.335938 L 292.433594 310.132812 L 268.835938 310.132812 Z M 268.835938 298.335938 " fill-opacity="1" fill-rule="nonzero"/><path fill="#f6981e" d="M 304.234375 298.335938 L 327.835938 298.335938 L 327.835938 310.132812 L 304.234375 310.132812 Z M 304.234375 298.335938 " fill-opacity="1" fill-rule="nonzero"/><path fill="#f6981e" d="M 339.632812 298.335938 L 357.335938 298.335938 L 357.335938 310.132812 L 339.632812 310.132812 Z M 339.632812 298.335938 " fill-opacity="1" fill-rule="nonzero"/><path fill="#f6981e" d="M 357.335938 310.132812 L 357.335938 357.335938 L 333.734375 357.335938 L 333.734375 316.035156 C 336.980469 316.035156 339.632812 313.378906 339.632812 310.132812 Z M 357.335938 310.132812 " fill-opacity="1" fill-rule="nonzero"/><path fill="#fdb50d" d="M 333.734375 316.035156 L 333.734375 357.335938 L 26.933594 357.335938 L 26.933594 310.132812 L 44.636719 310.132812 C 44.636719 313.378906 47.289062 316.035156 50.535156 316.035156 C 53.78125 316.035156 56.433594 313.378906 56.433594 310.132812 L 80.035156 310.132812 L 80.035156 321.933594 C 80.035156 325.179688 82.6875 327.835938 85.933594 327.835938 C 89.179688 327.835938 91.832031 325.179688 91.832031 321.933594 L 91.832031 310.132812 L 115.433594 310.132812 C 115.433594 313.378906 118.089844 316.035156 121.332031 316.035156 C 124.578125 316.035156 127.234375 313.378906 127.234375 310.132812 L 150.832031 310.132812 L 150.832031 321.933594 C 150.832031 325.179688 153.488281 327.835938 156.734375 327.835938 C 159.976562 327.835938 162.632812 325.179688 162.632812 321.933594 L 162.632812 310.132812 L 186.230469 310.132812 C 186.230469 313.378906 188.886719 316.035156 192.132812 316.035156 C 195.375 316.035156 198.03125 313.378906 198.03125 310.132812 L 221.632812 310.132812 L 221.632812 321.933594 C 221.632812 325.179688 224.285156 327.835938 227.53125 327.835938 C 230.777344 327.835938 233.429688 325.179688 233.429688 321.933594 L 233.429688 310.132812 L 257.03125 310.132812 C 257.03125 313.378906 259.6875 316.035156 262.929688 316.035156 C 266.175781 316.035156 268.832031 313.378906 268.832031 310.132812 L 292.429688 310.132812 L 292.429688 321.933594 C 292.429688 325.179688 295.085938 327.835938 298.328125 327.835938 C 301.574219 327.835938 304.230469 325.179688 304.230469 321.933594 L 304.230469 310.132812 L 327.828125 310.132812 C 327.835938 313.378906 330.488281 316.035156 333.734375 316.035156 Z M 333.734375 316.035156 " fill-opacity="1" fill-rule="nonzero"/><path fill="#f6981e" d="M 233.433594 298.335938 L 257.035156 298.335938 L 257.035156 310.132812 L 233.433594 310.132812 Z M 233.433594 298.335938 " fill-opacity="1" fill-rule="nonzero"/><g clip-path="url(#02de508d69)"><path fill="#000000" d="M 68.234375 274.734375 L 316.035156 274.734375 C 319.296875 274.734375 321.933594 272.097656 321.933594 268.835938 C 321.933594 265.570312 319.296875 262.933594 316.035156 262.933594 L 74.132812 262.933594 L 74.132812 21.035156 C 74.132812 17.773438 71.496094 15.132812 68.234375 15.132812 C 64.972656 15.132812 62.335938 17.773438 62.335938 21.035156 L 62.335938 268.835938 C 62.335938 272.097656 64.972656 274.734375 68.234375 274.734375 Z M 68.234375 274.734375 " fill-opacity="1" fill-rule="nonzero"/></g><g clip-path="url(#b128ddbb2a)"><path fill="#000000" d="M 321.523438 203.992188 C 320.636719 201.929688 318.570312 200.570312 316.328125 200.570312 L 282.464844 200.570312 C 279.574219 121.394531 215.675781 57.496094 136.496094 54.605469 L 136.496094 20.738281 C 136.496094 18.496094 135.140625 16.433594 133.074219 15.546875 C 130.953125 14.722656 128.53125 15.195312 126.941406 16.785156 L 87.585938 55.667969 C 86.523438 56.730469 85.933594 58.144531 85.933594 59.679688 C 85.933594 61.15625 86.523438 62.570312 87.585938 63.632812 L 126.882812 103.398438 C 127.941406 104.460938 129.417969 105.050781 130.894531 105.050781 C 131.601562 105.050781 132.308594 104.875 133.015625 104.636719 C 135.140625 103.753906 136.5 101.6875 136.5 99.445312 L 136.5 65.875 C 209.480469 68.765625 268.304688 127.589844 271.195312 200.570312 L 237.625 200.570312 C 235.382812 200.570312 233.316406 201.929688 232.433594 204.054688 C 231.605469 206.175781 232.078125 208.597656 233.671875 210.1875 L 273.4375 249.484375 C 274.5 250.546875 275.914062 251.136719 277.390625 251.136719 C 278.984375 251.078125 280.339844 250.546875 281.402344 249.484375 L 320.285156 210.128906 C 321.875 208.535156 322.347656 206.117188 321.523438 203.992188 Z M 125.289062 85.757812 L 117.617188 78.027344 L 99.503906 59.738281 L 117.617188 41.804688 L 125.289062 34.191406 Z M 277.332031 237.566406 L 271.078125 231.371094 L 251.3125 211.78125 L 302.878906 211.78125 Z M 277.332031 237.566406 " fill-opacity="1" fill-rule="nonzero"/></g><path fill="#e5e5e5" d="M 302.878906 211.78125 L 277.332031 237.566406 L 271.078125 231.371094 L 290.488281 211.78125 Z M 302.878906 211.78125 " fill-opacity="1" fill-rule="nonzero"/><path fill="#f9f9f9" d="M 290.488281 211.78125 L 271.078125 231.371094 L 251.3125 211.78125 Z M 290.488281 211.78125 " fill-opacity="1" fill-rule="nonzero"/><path fill="#e5e5e5" d="M 125.289062 34.191406 L 125.289062 85.757812 L 117.617188 78.027344 L 117.617188 41.804688 Z M 125.289062 34.191406 " fill-opacity="1" fill-rule="nonzero"/><path fill="#f9f9f9" d="M 117.617188 41.804688 L 117.617188 78.027344 L 99.503906 59.738281 Z M 117.617188 41.804688 " fill-opacity="1" fill-rule="nonzero"/></svg>