<svg xmlns="http://www.w3.org/2000/svg" xmlns:xlink="http://www.w3.org/1999/xlink" width="512" zoomAndPan="magnify" viewBox="0 0 384 383.999986" height="512" preserveAspectRatio="xMidYMid meet" version="1.0"><defs><clipPath id="e54ed8d7db"><path d="M 23.988281 23.988281 L 359.988281 23.988281 L 359.988281 359.988281 L 23.988281 359.988281 Z M 23.988281 23.988281 " clip-rule="nonzero"/></clipPath></defs><path fill="#668077" d="M 349.488281 86.988281 L 349.488281 349.488281 L 149.988281 349.488281 C 213.726562 349.488281 265.488281 297.726562 265.488281 233.988281 C 265.488281 170.253906 213.726562 118.488281 149.988281 118.488281 C 131.40625 118.488281 113.871094 122.898438 98.328125 130.667969 L 97.488281 128.988281 L 97.488281 34.488281 L 349.488281 34.488281 Z M 349.488281 86.988281 " fill-opacity="1" fill-rule="nonzero"/><path fill="#ffc44d" d="M 149.988281 118.488281 C 213.726562 118.488281 265.488281 170.253906 265.488281 233.988281 C 265.488281 297.726562 213.726562 349.488281 149.988281 349.488281 C 86.253906 349.488281 34.488281 297.726562 34.488281 233.988281 C 34.488281 188.839844 60.53125 149.675781 98.328125 130.667969 C 113.871094 122.898438 131.40625 118.488281 149.988281 118.488281 Z M 149.988281 118.488281 " fill-opacity="1" fill-rule="nonzero"/><g clip-path="url(#e54ed8d7db)"><path stroke-linecap="round" transform="matrix(10.499999, 0, 0, 10.499999, 23.989944, 23.98992)" fill="none" stroke-linejoin="round" d="M 14.999843 16.999845 C 14.999843 15.342851 13.656837 13.999845 11.999843 13.999845 M 11.999843 13.999845 C 10.342848 13.999845 8.999842 15.342851 8.999842 16.999845 C 8.999842 18.656839 10.342848 19.999846 11.999843 19.999846 C 13.656837 19.999846 14.999843 21.342852 14.999843 22.999846 C 14.999843 24.65684 13.656837 25.999846 11.999843 25.999846 M 11.999843 13.999845 L 11.999843 12.999845 M 11.999843 25.999846 C 10.342848 25.999846 8.999842 24.65684 8.999842 22.999846 M 11.999843 25.999846 L 11.999843 26.999846 M 21.999843 30.999846 L 30.999844 30.999846 L 30.999844 28.999846 M 24.999844 25.999846 L 30.999844 25.999846 L 30.999844 23.999846 M 25.999844 20.999846 L 30.999844 20.999846 L 30.999844 18.999845 M 25.999844 15.999845 L 30.999844 15.999845 L 30.999844 13.999845 M 22.999844 10.999845 L 30.999844 10.999845 L 30.999844 8.999845 M 9.999842 5.999844 L 30.999844 5.999844 L 30.999844 0.999844 L 6.999842 0.999844 L 6.999842 5.999844 M 22.999844 19.999846 C 22.999844 13.926184 18.073876 8.999845 11.999843 8.999845 C 5.926181 8.999845 0.999842 13.926184 0.999842 19.999846 C 0.999842 26.073879 5.926181 30.999846 11.999843 30.999846 C 18.073876 30.999846 22.999844 26.073879 22.999844 19.999846 Z M 22.999844 19.999846 " stroke="#000000" stroke-width="2" stroke-opacity="1" stroke-miterlimit="4"/></g></svg>