<svg xmlns="http://www.w3.org/2000/svg" xmlns:xlink="http://www.w3.org/1999/xlink" width="512" zoomAndPan="magnify" viewBox="0 0 384 383.999986" height="512" preserveAspectRatio="xMidYMid meet" version="1.0"><path fill="#e5e6eb" d="M 54.933594 148.167969 L 329.152344 148.167969 L 329.152344 334.882812 C 329.152344 335.414062 329.125 335.945312 329.074219 336.472656 C 329.023438 337 328.945312 337.523438 328.839844 338.046875 C 328.738281 338.566406 328.609375 339.082031 328.453125 339.589844 C 328.300781 340.097656 328.121094 340.59375 327.917969 341.085938 C 327.714844 341.574219 327.488281 342.054688 327.238281 342.523438 C 326.988281 342.992188 326.714844 343.445312 326.421875 343.886719 C 326.125 344.328125 325.8125 344.753906 325.472656 345.164062 C 325.136719 345.574219 324.78125 345.96875 324.40625 346.34375 C 324.03125 346.71875 323.636719 347.074219 323.226562 347.410156 C 322.816406 347.75 322.390625 348.0625 321.949219 348.359375 C 321.507812 348.652344 321.054688 348.925781 320.585938 349.175781 C 320.117188 349.425781 319.636719 349.652344 319.148438 349.855469 C 318.65625 350.058594 318.160156 350.238281 317.652344 350.390625 C 317.144531 350.546875 316.628906 350.675781 316.109375 350.777344 C 315.585938 350.882812 315.0625 350.960938 314.535156 351.011719 C 314.007812 351.0625 313.476562 351.089844 312.945312 351.089844 L 71.140625 351.089844 C 70.609375 351.089844 70.078125 351.0625 69.550781 351.011719 C 69.023438 350.960938 68.5 350.882812 67.980469 350.777344 C 67.457031 350.675781 66.945312 350.546875 66.4375 350.390625 C 65.929688 350.238281 65.429688 350.058594 64.9375 349.855469 C 64.449219 349.652344 63.96875 349.425781 63.5 349.175781 C 63.03125 348.925781 62.578125 348.652344 62.136719 348.359375 C 61.695312 348.0625 61.269531 347.75 60.859375 347.410156 C 60.449219 347.074219 60.054688 346.71875 59.679688 346.34375 C 59.304688 345.96875 58.949219 345.574219 58.613281 345.164062 C 58.277344 344.753906 57.960938 344.328125 57.664062 343.886719 C 57.371094 343.445312 57.097656 342.992188 56.847656 342.523438 C 56.597656 342.054688 56.371094 341.574219 56.167969 341.085938 C 55.964844 340.59375 55.785156 340.097656 55.632812 339.589844 C 55.476562 339.082031 55.347656 338.566406 55.246094 338.046875 C 55.140625 337.523438 55.0625 337 55.011719 336.472656 C 54.960938 335.945312 54.933594 335.414062 54.933594 334.882812 Z M 54.933594 148.167969 " fill-opacity="1" fill-rule="nonzero"/><path fill="#cceaff" d="M 54.933594 148.167969 L 329.152344 148.167969 L 329.152344 192.042969 L 54.933594 192.042969 Z M 54.933594 148.167969 " fill-opacity="1" fill-rule="nonzero"/><path fill="#444444" d="M 137.199219 148.167969 L 181.074219 192.042969 L 235.917969 192.042969 L 192.042969 148.167969 Z M 137.199219 148.167969 " fill-opacity="1" fill-rule="nonzero"/><path fill="#444444" d="M 54.933594 148.167969 L 54.933594 192.042969 L 126.230469 192.042969 L 82.355469 148.167969 Z M 54.933594 148.167969 " fill-opacity="1" fill-rule="nonzero"/><path fill="#444444" d="M 329.152344 148.167969 L 246.886719 148.167969 L 290.761719 192.042969 L 329.152344 192.042969 Z M 329.152344 148.167969 " fill-opacity="1" fill-rule="nonzero"/><path fill="#cceaff" d="M 43.578125 105.785156 L 308.453125 34.8125 L 319.808594 77.195312 L 54.933594 148.167969 Z M 43.578125 105.785156 " fill-opacity="1" fill-rule="nonzero"/><path fill="#444444" d="M 165.421875 73.140625 L 134.398438 126.878906 L 187.371094 112.683594 L 218.394531 58.949219 Z M 165.421875 73.140625 " fill-opacity="1" fill-rule="nonzero"/><path fill="#444444" d="M 43.574219 105.789062 L 54.933594 148.167969 L 81.421875 141.070312 L 112.449219 87.335938 Z M 43.574219 105.789062 " fill-opacity="1" fill-rule="nonzero"/><path fill="#444444" d="M 308.453125 34.816406 L 271.371094 44.75 L 240.34375 98.484375 L 319.808594 77.195312 Z M 308.453125 34.816406 " fill-opacity="1" fill-rule="nonzero"/><path fill="#0468ad" d="M 153.464844 246.886719 L 175.589844 246.886719 L 175.589844 290.761719 L 153.464844 290.761719 C 152.757812 290.761719 152.058594 290.691406 151.363281 290.554688 C 150.667969 290.417969 149.996094 290.210938 149.339844 289.941406 C 148.6875 289.671875 148.066406 289.339844 147.476562 288.945312 C 146.886719 288.550781 146.34375 288.105469 145.84375 287.605469 C 145.339844 287.101562 144.894531 286.558594 144.5 285.96875 C 144.109375 285.382812 143.777344 284.761719 143.503906 284.105469 C 143.234375 283.453125 143.03125 282.777344 142.890625 282.082031 C 142.753906 281.390625 142.683594 280.6875 142.683594 279.980469 L 142.683594 257.667969 C 142.683594 256.960938 142.753906 256.261719 142.890625 255.566406 C 143.03125 254.871094 143.234375 254.199219 143.503906 253.542969 C 143.777344 252.890625 144.109375 252.269531 144.5 251.679688 C 144.894531 251.089844 145.339844 250.546875 145.84375 250.046875 C 146.34375 249.542969 146.886719 249.097656 147.476562 248.703125 C 148.066406 248.3125 148.6875 247.980469 149.339844 247.707031 C 149.996094 247.4375 150.667969 247.234375 151.363281 247.09375 C 152.058594 246.957031 152.757812 246.886719 153.464844 246.886719 Z M 153.464844 246.886719 " fill-opacity="1" fill-rule="nonzero"/><path fill="#027de5" d="M 224.949219 318.183594 L 170.105469 290.761719 L 170.105469 246.886719 L 224.949219 219.464844 Z M 224.949219 318.183594 " fill-opacity="1" fill-rule="nonzero"/><path fill="#027de5" d="M 240.351562 230.910156 L 261.515625 225.144531 L 264.398438 235.730469 L 243.230469 241.492188 Z M 240.351562 230.910156 " fill-opacity="1" fill-rule="nonzero"/><path fill="#027de5" d="M 241.402344 263.339844 L 263.339844 263.339844 L 263.339844 274.308594 L 241.402344 274.308594 Z M 241.402344 263.339844 " fill-opacity="1" fill-rule="nonzero"/><path fill="#027de5" d="M 240.347656 306.738281 L 243.230469 296.15625 L 264.398438 301.925781 L 261.511719 312.511719 Z M 240.347656 306.738281 " fill-opacity="1" fill-rule="nonzero"/><path fill="#ffffff" d="M 65.902344 235.917969 L 65.902344 203.011719 L 98.808594 203.011719 Z M 65.902344 235.917969 " fill-opacity="1" fill-rule="nonzero"/><path fill="#000000" d="M 329.152344 142.683594 L 96.617188 142.683594 L 321.253906 82.492188 C 321.601562 82.398438 321.9375 82.273438 322.261719 82.113281 C 322.585938 81.953125 322.890625 81.765625 323.175781 81.546875 C 323.460938 81.328125 323.722656 81.082031 323.960938 80.8125 C 324.195312 80.539062 324.40625 80.25 324.585938 79.9375 C 324.765625 79.625 324.914062 79.296875 325.027344 78.957031 C 325.144531 78.617188 325.226562 78.265625 325.273438 77.910156 C 325.320312 77.554688 325.332031 77.195312 325.308594 76.835938 C 325.285156 76.476562 325.226562 76.121094 325.132812 75.773438 L 313.746094 33.398438 C 313.652344 33.050781 313.527344 32.714844 313.367188 32.390625 C 313.210938 32.070312 313.019531 31.765625 312.800781 31.480469 C 312.582031 31.195312 312.335938 30.933594 312.066406 30.695312 C 311.796875 30.457031 311.503906 30.25 311.191406 30.070312 C 310.882812 29.890625 310.554688 29.742188 310.214844 29.625 C 309.875 29.507812 309.523438 29.429688 309.167969 29.378906 C 308.8125 29.332031 308.453125 29.320312 308.09375 29.34375 C 307.734375 29.367188 307.382812 29.425781 307.035156 29.519531 L 42.160156 100.492188 C 41.8125 100.585938 41.476562 100.710938 41.15625 100.871094 C 40.832031 101.03125 40.527344 101.21875 40.242188 101.4375 C 39.957031 101.65625 39.695312 101.902344 39.457031 102.171875 C 39.222656 102.445312 39.011719 102.734375 38.832031 103.046875 C 38.652344 103.359375 38.503906 103.683594 38.390625 104.023438 C 38.273438 104.367188 38.191406 104.714844 38.144531 105.070312 C 38.097656 105.429688 38.085938 105.785156 38.109375 106.144531 C 38.132812 106.503906 38.191406 106.859375 38.285156 107.207031 L 49.449219 148.886719 L 49.449219 334.882812 C 49.449219 335.59375 49.484375 336.300781 49.554688 337.007812 C 49.625 337.714844 49.730469 338.417969 49.871094 339.113281 C 50.007812 339.808594 50.183594 340.5 50.386719 341.179688 C 50.59375 341.859375 50.835938 342.523438 51.105469 343.179688 C 51.378906 343.835938 51.683594 344.476562 52.015625 345.105469 C 52.351562 345.730469 52.71875 346.339844 53.113281 346.929688 C 53.507812 347.519531 53.929688 348.089844 54.378906 348.636719 C 54.832031 349.1875 55.308594 349.714844 55.808594 350.214844 C 56.3125 350.71875 56.835938 351.195312 57.386719 351.644531 C 57.933594 352.09375 58.503906 352.519531 59.09375 352.914062 C 59.683594 353.308594 60.292969 353.671875 60.917969 354.007812 C 61.546875 354.34375 62.1875 354.644531 62.84375 354.917969 C 63.5 355.191406 64.167969 355.429688 64.847656 355.636719 C 65.527344 355.84375 66.214844 356.015625 66.910156 356.152344 C 67.605469 356.292969 68.308594 356.398438 69.015625 356.46875 C 69.722656 356.539062 70.429688 356.574219 71.140625 356.574219 L 312.945312 356.574219 C 313.65625 356.574219 314.363281 356.539062 315.070312 356.46875 C 315.777344 356.398438 316.480469 356.292969 317.175781 356.152344 C 317.871094 356.015625 318.5625 355.84375 319.242188 355.636719 C 319.921875 355.429688 320.585938 355.191406 321.242188 354.917969 C 321.898438 354.644531 322.539062 354.34375 323.167969 354.007812 C 323.792969 353.671875 324.402344 353.308594 324.992188 352.914062 C 325.582031 352.519531 326.152344 352.09375 326.699219 351.644531 C 327.25 351.195312 327.777344 350.71875 328.277344 350.214844 C 328.78125 349.714844 329.257812 349.1875 329.707031 348.636719 C 330.15625 348.089844 330.582031 347.519531 330.976562 346.929688 C 331.371094 346.339844 331.734375 345.730469 332.070312 345.105469 C 332.40625 344.476562 332.707031 343.835938 332.980469 343.179688 C 333.253906 342.523438 333.492188 341.859375 333.699219 341.179688 C 333.90625 340.5 334.078125 339.808594 334.214844 339.113281 C 334.355469 338.417969 334.460938 337.714844 334.53125 337.007812 C 334.601562 336.300781 334.636719 335.59375 334.636719 334.882812 L 334.636719 148.167969 C 334.636719 147.808594 334.601562 147.453125 334.53125 147.097656 C 334.460938 146.746094 334.355469 146.402344 334.21875 146.070312 C 334.082031 145.738281 333.914062 145.421875 333.710938 145.121094 C 333.511719 144.820312 333.285156 144.546875 333.03125 144.289062 C 332.777344 144.035156 332.5 143.808594 332.199219 143.609375 C 331.898438 143.410156 331.585938 143.238281 331.25 143.101562 C 330.917969 142.964844 330.574219 142.859375 330.222656 142.789062 C 329.871094 142.71875 329.511719 142.683594 329.152344 142.683594 Z M 323.667969 186.558594 L 293.03125 186.558594 L 260.125 153.652344 L 323.667969 153.652344 Z M 60.417969 153.652344 L 80.085938 153.652344 L 112.992188 186.558594 L 60.417969 186.558594 Z M 128.5 186.558594 L 95.59375 153.652344 L 134.929688 153.652344 L 167.835938 186.558594 Z M 183.34375 186.558594 L 150.4375 153.652344 L 189.773438 153.652344 L 222.679688 186.558594 Z M 238.1875 186.558594 L 205.28125 153.652344 L 244.617188 153.652344 L 277.523438 186.558594 Z M 183.757812 107.972656 L 145.765625 118.152344 L 169.035156 77.847656 L 207.027344 67.667969 Z M 222.011719 63.652344 L 260 53.476562 L 236.730469 93.78125 L 198.738281 103.957031 Z M 130.78125 122.167969 L 92.777344 132.347656 L 116.039062 92.042969 L 154.03125 81.863281 Z M 313.089844 73.316406 L 251.71875 89.769531 L 274.984375 49.449219 L 304.597656 41.519531 Z M 101.074219 96.066406 L 77.808594 136.367188 L 58.8125 141.457031 L 50.292969 109.644531 Z M 312.945312 345.605469 L 71.140625 345.605469 C 70.4375 345.605469 69.738281 345.535156 69.050781 345.398438 C 68.359375 345.261719 67.6875 345.054688 67.039062 344.785156 C 66.390625 344.515625 65.769531 344.1875 65.1875 343.796875 C 64.601562 343.40625 64.058594 342.960938 63.5625 342.460938 C 63.0625 341.964844 62.621094 341.421875 62.230469 340.839844 C 61.835938 340.253906 61.507812 339.636719 61.238281 338.984375 C 60.96875 338.335938 60.765625 337.664062 60.625 336.976562 C 60.488281 336.285156 60.417969 335.585938 60.417969 334.882812 L 60.417969 197.527344 L 323.667969 197.527344 L 323.667969 334.882812 C 323.667969 335.585938 323.597656 336.285156 323.460938 336.976562 C 323.324219 337.664062 323.117188 338.335938 322.847656 338.984375 C 322.578125 339.636719 322.25 340.253906 321.859375 340.839844 C 321.46875 341.421875 321.023438 341.964844 320.523438 342.460938 C 320.027344 342.960938 319.484375 343.40625 318.902344 343.796875 C 318.316406 344.1875 317.699219 344.515625 317.046875 344.785156 C 316.398438 345.054688 315.726562 345.261719 315.039062 345.398438 C 314.347656 345.535156 313.648438 345.605469 312.945312 345.605469 Z M 312.945312 345.605469 " fill-opacity="1" fill-rule="nonzero"/></svg>