<svg xmlns="http://www.w3.org/2000/svg" xmlns:xlink="http://www.w3.org/1999/xlink" width="512" zoomAndPan="magnify" viewBox="0 0 384 383.999986" height="512" preserveAspectRatio="xMidYMid meet" version="1.0"><defs><clipPath id="b88b7417b4"><path d="M 49 21.335938 L 335 21.335938 L 335 362.585938 L 49 362.585938 Z M 49 21.335938 " clip-rule="nonzero"/></clipPath></defs><path fill="#d1cdb2" d="M 54.300781 323.351562 L 97.890625 315.816406 L 113.164062 357.335938 L 192.460938 219.988281 L 133.597656 186.003906 Z M 54.300781 323.351562 " fill-opacity="1" fill-rule="nonzero"/><path fill="#d1cdb2" d="M 329.625 323.351562 L 286.035156 315.816406 L 270.761719 357.335938 L 191.464844 219.988281 L 250.328125 186.003906 Z M 329.625 323.351562 " fill-opacity="1" fill-rule="nonzero"/><path fill="#c6c19f" d="M 191.464844 219.988281 L 191.960938 219.703125 L 133.597656 186.003906 L 108.042969 230.265625 L 111.121094 230.484375 C 113.71875 230.671875 115.859375 232.605469 116.300781 235.171875 L 121.871094 267.46875 C 122.496094 271.09375 126.355469 273.167969 129.722656 271.695312 L 159.753906 258.5625 C 162.140625 257.519531 164.929688 258.238281 166.515625 260.304688 L 168.039062 262.292969 L 191.964844 220.851562 Z M 191.464844 219.988281 " fill-opacity="1" fill-rule="nonzero"/><path fill="#c6c19f" d="M 191.960938 219.703125 L 192.460938 219.988281 L 191.960938 220.851562 L 215.382812 261.417969 L 215.859375 260.824219 C 217.488281 258.789062 220.292969 258.128906 222.660156 259.222656 L 252.402344 272.984375 C 255.742188 274.53125 259.640625 272.535156 260.34375 268.925781 L 266.589844 236.75 C 267.089844 234.191406 269.265625 232.304688 271.867188 232.171875 L 276.839844 231.925781 L 250.328125 186.003906 Z M 191.960938 219.703125 " fill-opacity="1" fill-rule="nonzero"/><path fill="#b9873c" d="M 81.632812 98.871094 L 116.175781 88.5 L 114.378906 52.480469 L 149.785156 59.351562 L 164.933594 26.621094 L 193.089844 49.15625 L 221.710938 27.21875 L 236.167969 60.257812 L 271.710938 54.132812 L 269.15625 90.105469 L 303.472656 101.199219 L 284.496094 131.867188 L 309.726562 157.636719 L 278.667969 175.972656 L 289.035156 210.515625 L 253.015625 212.316406 L 246.140625 247.71875 L 213.410156 232.578125 L 190.867188 260.730469 L 168.921875 232.109375 L 135.878906 246.5625 L 129.75 211.023438 L 93.777344 208.464844 L 104.863281 174.148438 L 74.199219 155.164062 L 99.964844 129.929688 Z M 81.632812 98.871094 " fill-opacity="1" fill-rule="nonzero"/><path fill="#72ccc5" d="M 265.59375 143.675781 C 265.59375 144.878906 265.566406 146.085938 265.503906 147.289062 C 265.445312 148.492188 265.359375 149.691406 265.238281 150.890625 C 265.121094 152.089844 264.972656 153.285156 264.796875 154.480469 C 264.621094 155.671875 264.414062 156.859375 264.179688 158.039062 C 263.945312 159.222656 263.679688 160.398438 263.386719 161.566406 C 263.09375 162.734375 262.773438 163.894531 262.421875 165.050781 C 262.074219 166.203125 261.695312 167.347656 261.289062 168.480469 C 260.882812 169.617188 260.449219 170.738281 259.988281 171.851562 C 259.527344 172.964844 259.039062 174.066406 258.523438 175.15625 C 258.007812 176.246094 257.46875 177.324219 256.898438 178.386719 C 256.332031 179.449219 255.738281 180.496094 255.117188 181.53125 C 254.5 182.5625 253.855469 183.582031 253.183594 184.582031 C 252.515625 185.585938 251.820312 186.570312 251.105469 187.539062 C 250.386719 188.507812 249.644531 189.457031 248.878906 190.386719 C 248.117188 191.320312 247.328125 192.230469 246.519531 193.125 C 245.710938 194.015625 244.878906 194.890625 244.027344 195.742188 C 243.175781 196.59375 242.304688 197.425781 241.410156 198.234375 C 240.515625 199.042969 239.605469 199.828125 238.671875 200.59375 C 237.742188 201.359375 236.792969 202.101562 235.824219 202.816406 C 234.855469 203.535156 233.871094 204.230469 232.871094 204.898438 C 231.867188 205.566406 230.851562 206.210938 229.816406 206.832031 C 228.78125 207.453125 227.734375 208.046875 226.671875 208.613281 C 225.609375 209.179688 224.53125 209.722656 223.441406 210.238281 C 222.355469 210.753906 221.253906 211.242188 220.140625 211.703125 C 219.027344 212.164062 217.902344 212.597656 216.765625 213.003906 C 215.632812 213.410156 214.488281 213.789062 213.335938 214.136719 C 212.183594 214.488281 211.019531 214.808594 209.851562 215.101562 C 208.683594 215.394531 207.507812 215.65625 206.324219 215.894531 C 205.144531 216.128906 203.957031 216.335938 202.765625 216.511719 C 201.574219 216.6875 200.378906 216.835938 199.179688 216.953125 C 197.980469 217.070312 196.777344 217.160156 195.574219 217.21875 C 194.371094 217.277344 193.167969 217.308594 191.960938 217.308594 C 190.757812 217.308594 189.550781 217.277344 188.347656 217.21875 C 187.144531 217.160156 185.941406 217.070312 184.742188 216.953125 C 183.542969 216.835938 182.347656 216.6875 181.15625 216.511719 C 179.964844 216.335938 178.777344 216.128906 177.597656 215.894531 C 176.414062 215.65625 175.238281 215.394531 174.070312 215.101562 C 172.902344 214.808594 171.738281 214.488281 170.585938 214.136719 C 169.433594 213.789062 168.289062 213.410156 167.15625 213.003906 C 166.019531 212.597656 164.894531 212.164062 163.78125 211.703125 C 162.667969 211.242188 161.566406 210.753906 160.480469 210.238281 C 159.390625 209.722656 158.3125 209.183594 157.25 208.613281 C 156.1875 208.046875 155.140625 207.453125 154.105469 206.832031 C 153.074219 206.210938 152.054688 205.566406 151.050781 204.898438 C 150.050781 204.230469 149.066406 203.535156 148.097656 202.816406 C 147.128906 202.101562 146.179688 201.359375 145.25 200.59375 C 144.316406 199.828125 143.40625 199.042969 142.511719 198.234375 C 141.617188 197.425781 140.746094 196.59375 139.894531 195.742188 C 139.042969 194.890625 138.210938 194.015625 137.402344 193.125 C 136.59375 192.230469 135.804688 191.320312 135.042969 190.386719 C 134.277344 189.457031 133.535156 188.507812 132.816406 187.539062 C 132.101562 186.570312 131.40625 185.585938 130.738281 184.582031 C 130.066406 183.582031 129.421875 182.5625 128.804688 181.53125 C 128.183594 180.496094 127.589844 179.449219 127.023438 178.386719 C 126.453125 177.324219 125.914062 176.246094 125.398438 175.15625 C 124.882812 174.066406 124.394531 172.964844 123.933594 171.851562 C 123.472656 170.738281 123.039062 169.617188 122.632812 168.480469 C 122.226562 167.347656 121.847656 166.203125 121.5 165.050781 C 121.148438 163.894531 120.828125 162.734375 120.535156 161.566406 C 120.242188 160.398438 119.976562 159.222656 119.742188 158.039062 C 119.507812 156.859375 119.300781 155.671875 119.125 154.480469 C 118.949219 153.285156 118.800781 152.089844 118.683594 150.890625 C 118.5625 149.691406 118.476562 148.492188 118.417969 147.289062 C 118.355469 146.085938 118.328125 144.878906 118.328125 143.675781 C 118.328125 142.46875 118.355469 141.265625 118.417969 140.0625 C 118.476562 138.859375 118.5625 137.65625 118.683594 136.457031 C 118.800781 135.257812 118.949219 134.0625 119.125 132.871094 C 119.300781 131.679688 119.507812 130.492188 119.742188 129.308594 C 119.976562 128.128906 120.242188 126.953125 120.535156 125.785156 C 120.828125 124.613281 121.148438 123.453125 121.5 122.300781 C 121.847656 121.148438 122.226562 120.003906 122.632812 118.867188 C 123.039062 117.734375 123.472656 116.609375 123.933594 115.496094 C 124.394531 114.382812 124.882812 113.28125 125.398438 112.191406 C 125.914062 111.101562 126.453125 110.027344 127.023438 108.964844 C 127.589844 107.902344 128.183594 106.851562 128.804688 105.820312 C 129.421875 104.785156 130.066406 103.769531 130.738281 102.765625 C 131.40625 101.765625 132.101562 100.78125 132.816406 99.8125 C 133.535156 98.84375 134.277344 97.894531 135.042969 96.960938 C 135.804688 96.03125 136.59375 95.117188 137.402344 94.226562 C 138.210938 93.332031 139.042969 92.460938 139.894531 91.609375 C 140.746094 90.757812 141.617188 89.925781 142.511719 89.117188 C 143.40625 88.308594 144.316406 87.519531 145.25 86.753906 C 146.179688 85.992188 147.128906 85.25 148.097656 84.53125 C 149.066406 83.8125 150.050781 83.121094 151.050781 82.449219 C 152.054688 81.78125 153.074219 81.136719 154.105469 80.515625 C 155.140625 79.898438 156.1875 79.304688 157.25 78.734375 C 158.3125 78.167969 159.390625 77.625 160.480469 77.109375 C 161.566406 76.597656 162.667969 76.109375 163.78125 75.644531 C 164.894531 75.183594 166.019531 74.75 167.15625 74.347656 C 168.289062 73.941406 169.433594 73.5625 170.585938 73.210938 C 171.738281 72.863281 172.902344 72.539062 174.070312 72.25 C 175.238281 71.957031 176.414062 71.691406 177.597656 71.457031 C 178.777344 71.222656 179.964844 71.015625 181.15625 70.839844 C 182.347656 70.660156 183.542969 70.515625 184.742188 70.394531 C 185.941406 70.277344 187.144531 70.1875 188.347656 70.128906 C 189.550781 70.070312 190.757812 70.042969 191.960938 70.042969 C 193.167969 70.042969 194.371094 70.070312 195.574219 70.128906 C 196.777344 70.1875 197.980469 70.277344 199.179688 70.394531 C 200.378906 70.515625 201.574219 70.660156 202.765625 70.839844 C 203.957031 71.015625 205.144531 71.222656 206.324219 71.457031 C 207.507812 71.691406 208.683594 71.957031 209.851562 72.25 C 211.019531 72.539062 212.183594 72.863281 213.335938 73.210938 C 214.488281 73.5625 215.632812 73.941406 216.765625 74.347656 C 217.902344 74.75 219.027344 75.183594 220.140625 75.644531 C 221.253906 76.109375 222.355469 76.597656 223.441406 77.109375 C 224.53125 77.625 225.609375 78.167969 226.671875 78.734375 C 227.734375 79.304688 228.78125 79.898438 229.816406 80.515625 C 230.851562 81.136719 231.867188 81.78125 232.871094 82.449219 C 233.871094 83.121094 234.855469 83.8125 235.824219 84.53125 C 236.792969 85.25 237.742188 85.992188 238.671875 86.753906 C 239.605469 87.519531 240.515625 88.308594 241.410156 89.117188 C 242.304688 89.925781 243.175781 90.757812 244.027344 91.609375 C 244.878906 92.460938 245.710938 93.332031 246.519531 94.226562 C 247.328125 95.117188 248.117188 96.03125 248.878906 96.960938 C 249.644531 97.894531 250.386719 98.84375 251.105469 99.8125 C 251.820312 100.78125 252.515625 101.765625 253.183594 102.765625 C 253.855469 103.769531 254.5 104.785156 255.117188 105.820312 C 255.738281 106.851562 256.332031 107.902344 256.898438 108.964844 C 257.46875 110.027344 258.007812 111.101562 258.523438 112.191406 C 259.039062 113.28125 259.527344 114.382812 259.988281 115.496094 C 260.449219 116.609375 260.882812 117.734375 261.289062 118.867188 C 261.695312 120.003906 262.074219 121.148438 262.421875 122.300781 C 262.773438 123.453125 263.09375 124.613281 263.386719 125.785156 C 263.679688 126.953125 263.945312 128.128906 264.179688 129.308594 C 264.414062 130.492188 264.621094 131.679688 264.796875 132.871094 C 264.972656 134.0625 265.121094 135.257812 265.238281 136.457031 C 265.359375 137.65625 265.445312 138.859375 265.503906 140.0625 C 265.566406 141.265625 265.59375 142.46875 265.59375 143.675781 Z M 265.59375 143.675781 " fill-opacity="1" fill-rule="nonzero"/><path fill="#11bba3" d="M 208.953125 200.316406 C 168.289062 200.316406 135.320312 167.351562 135.320312 126.683594 C 135.320312 110.6875 140.425781 95.886719 149.089844 83.808594 C 130.464844 97.171875 118.328125 119.003906 118.328125 143.675781 C 118.328125 184.34375 151.296875 217.308594 191.960938 217.308594 C 216.632812 217.308594 238.46875 205.175781 251.828125 186.550781 C 239.753906 195.214844 224.949219 200.316406 208.953125 200.316406 Z M 208.953125 200.316406 " fill-opacity="1" fill-rule="nonzero"/><path fill="#66bf00" d="M 174.96875 104.027344 L 180.632812 121.019531 L 197.625 132.347656 L 208.953125 155.003906 L 214.617188 132.347656 L 214.617188 115.355469 L 241.117188 88.855469 C 228.082031 77.160156 210.855469 70.042969 191.960938 70.042969 C 176.015625 70.042969 161.253906 75.113281 149.199219 83.730469 L 157.976562 98.363281 Z M 174.96875 104.027344 " fill-opacity="1" fill-rule="nonzero"/><path fill="#66bf00" d="M 263.949219 128.144531 L 242.9375 132.347656 L 237.273438 160.667969 L 248.601562 177.660156 L 253.472656 184.15625 C 261.132812 172.539062 265.59375 158.628906 265.59375 143.675781 C 265.59375 138.347656 265.023438 133.152344 263.949219 128.144531 Z M 263.949219 128.144531 " fill-opacity="1" fill-rule="nonzero"/><path fill="#66bf00" d="M 191.960938 171.996094 L 174.96875 155.003906 L 146.648438 149.339844 L 129.65625 126.683594 L 119.457031 130.761719 C 118.71875 134.957031 118.328125 139.269531 118.328125 143.675781 C 118.328125 172.890625 135.339844 198.128906 160 210.027344 L 186.296875 188.988281 Z M 191.960938 171.996094 " fill-opacity="1" fill-rule="nonzero"/><path fill="#58ab23" d="M 135.773438 134.835938 L 129.65625 126.683594 L 119.460938 130.761719 C 118.71875 134.957031 118.328125 139.269531 118.328125 143.675781 C 118.328125 172.890625 135.339844 198.128906 160 210.027344 L 179.699219 194.269531 C 155.964844 183.980469 138.71875 161.566406 135.773438 134.835938 Z M 135.773438 134.835938 " fill-opacity="1" fill-rule="nonzero"/><g clip-path="url(#b88b7417b4)"><path fill="#000000" d="M 334.222656 320.695312 L 308.792969 276.648438 C 307.324219 274.109375 304.078125 273.238281 301.539062 274.707031 C 299 276.171875 298.128906 279.417969 299.59375 281.960938 L 319.355469 316.1875 L 286.9375 310.585938 C 284.40625 310.148438 281.933594 311.582031 281.050781 313.984375 L 269.691406 344.863281 L 211.53125 244.128906 C 211.453125 243.992188 211.363281 243.863281 211.277344 243.734375 L 214.953125 239.140625 L 243.910156 252.539062 C 246.992188 253.964844 250.703125 252.058594 251.351562 248.730469 L 257.433594 217.410156 L 262.921875 217.136719 C 262.941406 218 290.285156 265.832031 290.285156 265.832031 C 291.84375 268.535156 295.515625 269.304688 298.035156 267.453125 C 300.183594 265.871094 300.816406 262.832031 299.480469 260.523438 L 274.109375 216.578125 L 289.300781 215.816406 C 292.683594 215.648438 295.097656 212.238281 294.121094 208.988281 L 284.953125 178.425781 L 312.425781 162.207031 C 315.34375 160.484375 315.894531 156.34375 313.519531 153.917969 L 291.199219 131.121094 L 307.988281 103.992188 C 309.777344 101.105469 308.332031 97.1875 305.105469 96.144531 L 274.75 86.332031 L 277.007812 54.507812 C 277.246094 51.125 274.152344 48.320312 270.808594 48.898438 L 239.367188 54.316406 L 226.574219 25.085938 C 225.21875 21.984375 221.175781 20.9375 218.480469 23.003906 L 193.15625 42.414062 L 168.25 22.476562 C 165.597656 20.351562 161.535156 21.316406 160.113281 24.390625 L 146.710938 53.34375 L 115.390625 47.265625 C 112.058594 46.621094 108.90625 49.355469 109.074219 52.742188 L 110.664062 84.609375 L 80.105469 93.785156 C 76.863281 94.757812 75.332031 98.644531 77.058594 101.570312 L 93.277344 129.046875 L 70.480469 151.371094 C 68.058594 153.746094 68.519531 157.894531 71.402344 159.679688 L 98.53125 176.472656 L 88.722656 206.832031 C 87.675781 210.0625 90.015625 213.519531 93.394531 213.761719 L 110.726562 214.992188 L 94.890625 242.425781 C 93.554688 244.734375 94.1875 247.773438 96.335938 249.355469 C 98.855469 251.207031 102.527344 250.4375 104.085938 247.734375 C 104.085938 247.734375 122.003906 216.4375 122.097656 215.800781 L 125.222656 216.023438 L 130.644531 247.464844 C 131.222656 250.804688 134.894531 252.789062 138.003906 251.429688 L 167.238281 238.640625 L 171.988281 244.839844 C 171.960938 244.882812 171.933594 244.921875 171.90625 244.964844 L 114.230469 344.863281 L 102.871094 313.984375 C 101.988281 311.578125 99.511719 310.148438 96.984375 310.585938 L 64.5625 316.1875 L 92.785156 267.304688 C 94.253906 264.765625 93.382812 261.519531 90.84375 260.050781 C 88.300781 258.585938 85.054688 259.457031 83.589844 261.996094 L 49.699219 320.699219 C 47.488281 324.523438 50.859375 329.332031 55.199219 328.585938 L 94.429688 321.804688 L 108.175781 359.171875 C 109.699219 363.308594 115.550781 363.816406 117.757812 359.992188 L 178.976562 253.957031 L 186.648438 263.960938 C 188.714844 266.652344 192.886719 266.699219 195.007812 264.050781 L 204.167969 252.613281 L 266.160156 359.992188 C 268.367188 363.8125 274.222656 363.308594 275.742188 359.171875 L 289.488281 321.804688 L 328.71875 328.585938 C 333.0625 329.332031 336.433594 324.523438 334.222656 320.695312 Z M 190.957031 252.121094 L 173.136719 228.878906 C 172.105469 227.535156 170.535156 226.800781 168.921875 226.800781 C 168.203125 226.800781 167.480469 226.945312 166.792969 227.246094 L 139.960938 238.980469 L 134.980469 210.121094 C 134.566406 207.714844 132.5625 205.898438 130.125 205.726562 L 100.910156 203.648438 L 109.917969 175.78125 C 110.667969 173.457031 109.734375 170.917969 107.660156 169.632812 L 82.757812 154.214844 L 103.679688 133.722656 C 105.425781 132.011719 105.78125 129.332031 104.539062 127.230469 L 89.652344 102.007812 L 117.703125 93.585938 C 120.042969 92.882812 121.601562 90.675781 121.480469 88.234375 L 120.019531 58.984375 L 148.769531 64.5625 C 151.167969 65.027344 153.574219 63.796875 154.601562 61.582031 L 166.90625 35 L 189.769531 53.304688 C 191.675781 54.828125 194.378906 54.855469 196.316406 53.371094 L 219.5625 35.554688 L 231.304688 62.386719 C 232.285156 64.621094 234.664062 65.90625 237.070312 65.488281 L 265.933594 60.515625 L 263.863281 89.730469 C 263.6875 92.164062 265.199219 94.40625 267.523438 95.15625 L 295.390625 104.164062 L 279.980469 129.070312 C 278.695312 131.148438 278.992188 133.835938 280.699219 135.582031 L 301.191406 156.507812 L 275.96875 171.398438 C 273.867188 172.640625 272.882812 175.15625 273.582031 177.496094 L 282 205.550781 L 252.75 207.011719 C 250.308594 207.132812 248.269531 208.90625 247.804688 211.304688 L 242.21875 240.054688 L 215.636719 227.757812 C 213.421875 226.730469 210.789062 227.351562 209.261719 229.257812 Z M 190.957031 252.121094 " fill-opacity="1" fill-rule="nonzero"/></g><path fill="#000000" d="M 270.90625 143.675781 C 270.90625 100.148438 235.492188 64.734375 191.960938 64.734375 C 148.433594 64.734375 113.019531 100.148438 113.019531 143.675781 C 113.019531 187.207031 148.433594 222.621094 191.960938 222.621094 C 235.492188 222.621094 270.90625 187.203125 270.90625 143.675781 Z M 252.90625 174.539062 L 242.914062 159.550781 L 247.453125 136.859375 L 259.65625 134.417969 C 260.066406 137.445312 260.285156 140.535156 260.285156 143.675781 C 260.285156 154.777344 257.621094 165.265625 252.90625 174.539062 Z M 233.214844 89.25 L 210.863281 111.601562 C 209.867188 112.597656 209.308594 113.945312 209.308594 115.355469 L 209.308594 131.691406 L 207.285156 139.789062 L 202.375 129.972656 C 201.960938 129.144531 201.339844 128.441406 200.570312 127.929688 L 185.097656 117.609375 L 180.007812 102.34375 C 179.476562 100.761719 178.234375 99.515625 176.648438 98.988281 L 161.519531 93.945312 L 156.378906 85.371094 C 166.746094 79.015625 178.933594 75.351562 191.960938 75.351562 C 207.445312 75.351562 221.742188 80.535156 233.214844 89.25 Z M 123.640625 143.675781 C 123.640625 140.585938 123.847656 137.546875 124.25 134.566406 L 127.851562 133.125 L 142.402344 152.527344 C 143.1875 153.570312 144.328125 154.289062 145.609375 154.546875 L 172.351562 159.894531 L 185.886719 173.429688 L 181.757812 185.820312 L 159.382812 203.71875 C 138.109375 192.128906 123.640625 169.558594 123.640625 143.675781 Z M 191.960938 212 C 184.429688 212 177.179688 210.769531 170.398438 208.507812 L 189.613281 193.136719 C 190.414062 192.496094 191.011719 191.640625 191.335938 190.667969 L 197 173.675781 C 197.636719 171.765625 197.136719 169.664062 195.714844 168.242188 L 178.722656 151.25 C 177.980469 150.507812 177.039062 150 176.007812 149.796875 L 149.679688 144.53125 L 133.90625 123.496094 C 132.464844 121.578125 129.910156 120.863281 127.683594 121.753906 L 127.179688 121.957031 C 131.179688 110.050781 138.378906 99.605469 147.746094 91.632812 L 153.421875 101.09375 C 154.078125 102.183594 155.09375 103 156.296875 103.402344 L 170.773438 108.226562 L 175.59375 122.699219 C 175.96875 123.820312 176.707031 124.78125 177.6875 125.4375 L 193.507812 135.984375 L 204.203125 157.378906 C 205.203125 159.378906 207.417969 160.554688 209.632812 160.269531 C 211.777344 159.992188 213.578125 158.390625 214.105469 156.292969 L 219.769531 133.636719 C 219.871094 133.214844 219.925781 132.78125 219.925781 132.347656 L 219.925781 117.554688 L 241.160156 96.320312 C 248.597656 104.046875 254.238281 113.511719 257.402344 124.039062 L 241.898438 127.140625 C 239.792969 127.5625 238.152344 129.203125 237.730469 131.304688 L 232.066406 159.625 C 231.792969 161.007812 232.074219 162.441406 232.855469 163.613281 L 244.183594 180.605469 C 244.238281 180.6875 244.292969 180.769531 244.355469 180.84375 L 246.902344 184.242188 C 234.445312 201.070312 214.457031 212 191.960938 212 Z M 191.960938 212 " fill-opacity="1" fill-rule="nonzero"/></svg>